<svg width="938" height="856" fill="none" xmlns="http://www.w3.org/2000/svg"><path fill="#fff" d="M551 185h185v89H551z"/><mask id="a" fill="#fff"><path fill-rule="evenodd" clip-rule="evenodd" d="M553 187h181v38H553v-38zm-2-2h185v42h-7.446v7h-22v-7H582.447v7h-22v-7H551v-42zm128 9h-71v23h71v-23zm48 20.5a2.5 2.5 0 11-5 0 2.5 2.5 0 015 0zM562.5 217a2.5 2.5 0 100-5 2.5 2.5 0 000 5zm140.5-2.5a2.5 2.5 0 11-5 0 2.5 2.5 0 015 0zM595.5 217a2.5 2.5 0 100-5 2.5 2.5 0 000 5zm98.5-2.5a2.5 2.5 0 11-5 0 2.5 2.5 0 015 0zM586.5 217a2.5 2.5 0 100-5 2.5 2.5 0 000 5z"/></mask><path fill-rule="evenodd" clip-rule="evenodd" d="M553 187h181v38H553v-38zm-2-2h185v42h-7.446v7h-22v-7H582.447v7h-22v-7H551v-42zm128 9h-71v23h71v-23zm48 20.5a2.5 2.5 0 11-5 0 2.5 2.5 0 015 0zM562.5 217a2.5 2.5 0 100-5 2.5 2.5 0 000 5zm140.5-2.5a2.5 2.5 0 11-5 0 2.5 2.5 0 015 0zM595.5 217a2.5 2.5 0 100-5 2.5 2.5 0 000 5zm98.5-2.5a2.5 2.5 0 11-5 0 2.5 2.5 0 015 0zM586.5 217a2.5 2.5 0 100-5 2.5 2.5 0 000 5z" fill="#575757"/><path d="M734 187h1v-1h-1v1zm-181 0v-1h-1v1h1zm181 38v1h1v-1h-1zm-181 0h-1v1h1v-1zm-2-40v-1h-1v1h1zm185 0h1v-1h-1v1zm0 42v1h1v-1h-1zm-7.446 0v-1h-1v1h1zm0 7v1h1v-1h-1zm-22 0h-1v1h1v-1zm0-7h1v-1h-1v1zm-124.107 0v-1h-1v1h1zm0 7v1h1v-1h-1zm-22 0h-1v1h1v-1zm0-7h1v-1h-1v1zM551 227h-1v1h1v-1zm57-33v-1h-1v1h1zm71 0h1v-1h-1v1zm-71 23h-1v1h1v-1zm71 0v1h1v-1h-1zm55-31H553v2h181v-2zm1 39v-38h-2v38h2zm-182 1h181v-2H553v2zm-1-39v38h2v-38h-2zm1-3h-2v2h2v-2zm181 0H553v2h181v-2zm2 0h-2v2h2v-2zm1 3v-2h-2v2h2zm0 38v-38h-2v38h2zm0 2v-2h-2v2h2zm-3 1h2v-2h-2v2zm-5.446 0H734v-2h-5.446v2zm1 6v-7h-2v7h2zm-23 1h22v-2h-22v2zm-1-8v7h2v-7h-2zm-123.107 1h124.107v-2H582.447v2zm1 6v-7h-2v7h2zm-23 1h22v-2h-22v2zm-1-8v7h2v-7h-2zM553 228h7.447v-2H553v2zm-2 0h2v-2h-2v2zm-1-3v2h2v-2h-2zm0-38v38h2v-38h-2zm0-2v2h2v-2h-2zm58 10h71v-2h-71v2zm1 22v-23h-2v23h2zm70-1h-71v2h71v-2zm-1-22v23h2v-23h-2zm46.5 24a3.5 3.5 0 003.5-3.5h-2a1.5 1.5 0 01-1.5 1.5v2zm-3.5-3.5a3.5 3.5 0 003.5 3.5v-2a1.5 1.5 0 01-1.5-1.5h-2zm3.5-3.5a3.5 3.5 0 00-3.5 3.5h2a1.5 1.5 0 011.5-1.5v-2zm3.5 3.5a3.5 3.5 0 00-3.5-3.5v2a1.5 1.5 0 011.5 1.5h2zm-164 0a1.5 1.5 0 01-1.5 1.5v2a3.5 3.5 0 003.5-3.5h-2zm-1.5-1.5a1.5 1.5 0 011.5 1.5h2a3.5 3.5 0 00-3.5-3.5v2zm-1.5 1.5a1.5 1.5 0 011.5-1.5v-2a3.5 3.5 0 00-3.5 3.5h2zm1.5 1.5a1.5 1.5 0 01-1.5-1.5h-2a3.5 3.5 0 003.5 3.5v-2zm138 2a3.5 3.5 0 003.5-3.5h-2a1.5 1.5 0 01-1.5 1.5v2zm-3.5-3.5a3.5 3.5 0 003.5 3.5v-2a1.5 1.5 0 01-1.5-1.5h-2zm3.5-3.5a3.5 3.5 0 00-3.5 3.5h2a1.5 1.5 0 011.5-1.5v-2zm3.5 3.5a3.5 3.5 0 00-3.5-3.5v2a1.5 1.5 0 011.5 1.5h2zm-107 0a1.5 1.5 0 01-1.5 1.5v2a3.5 3.5 0 003.5-3.5h-2zm-1.5-1.5a1.5 1.5 0 011.5 1.5h2a3.5 3.5 0 00-3.5-3.5v2zm-1.5 1.5a1.5 1.5 0 011.5-1.5v-2a3.5 3.5 0 00-3.5 3.5h2zm1.5 1.5a1.5 1.5 0 01-1.5-1.5h-2a3.5 3.5 0 003.5 3.5v-2zm96 2a3.5 3.5 0 003.5-3.5h-2a1.5 1.5 0 01-1.5 1.5v2zm-3.5-3.5a3.5 3.5 0 003.5 3.5v-2a1.5 1.5 0 01-1.5-1.5h-2zm3.5-3.5a3.5 3.5 0 00-3.5 3.5h2a1.5 1.5 0 011.5-1.5v-2zm3.5 3.5a3.5 3.5 0 00-3.5-3.5v2a1.5 1.5 0 011.5 1.5h2zm-107 0a1.5 1.5 0 01-1.5 1.5v2a3.5 3.5 0 003.5-3.5h-2zm-1.5-1.5a1.5 1.5 0 011.5 1.5h2a3.5 3.5 0 00-3.5-3.5v2zm-1.5 1.5a1.5 1.5 0 011.5-1.5v-2a3.5 3.5 0 00-3.5 3.5h2zm1.5 1.5a1.5 1.5 0 01-1.5-1.5h-2a3.5 3.5 0 003.5 3.5v-2z" fill="#575757" mask="url(#a)"/><path d="M619.129 253.76v1.84a6.13 6.13 0 00-1.74-1.24 5.492 5.492 0 00-2.3-.52c-1.533 0-2.813.54-3.84 1.62-1.013 1.067-1.52 2.38-1.52 3.94 0 1.68.553 3.007 1.66 3.98 1.12.973 2.36 1.46 3.72 1.46.853 0 1.68-.207 2.48-.62a5.907 5.907 0 001.54-1.12v1.84c-1.213.867-2.553 1.3-4.02 1.3-1.973 0-3.62-.66-4.94-1.98-1.307-1.32-1.96-2.947-1.96-4.88 0-1.987.66-3.64 1.98-4.96 1.333-1.32 3-1.98 5-1.98 1.467 0 2.78.44 3.94 1.32zm7.38 5.26h-2.6V266h-1.44v-6.98h-2.6v-1.32h6.64v1.32zm2.953 5.82v5.76h-1.44v-12.9h1.44v1.16c.733-.907 1.68-1.36 2.84-1.36 1.24 0 2.22.44 2.94 1.32.733.867 1.1 1.893 1.1 3.08 0 1.2-.36 2.227-1.08 3.08-.72.84-1.687 1.26-2.9 1.26-1.213 0-2.18-.467-2.9-1.4zm2.7.12c.813 0 1.467-.293 1.96-.88.493-.6.74-1.327.74-2.18 0-.96-.273-1.72-.82-2.28-.547-.56-1.18-.84-1.9-.84s-1.36.28-1.92.84c-.56.56-.84 1.313-.84 2.26 0 .867.253 1.6.76 2.2.52.587 1.193.88 2.02.88zm6.387-7.26h1.44v5.48l5.68-6.12V266h-1.44v-5.54l-5.68 6.12v-8.88zm8.884 8.3l2-8.94 3.44 6.76 3.36-6.76 2 8.94h-1.48l-1.1-5.14-2.82 5.72-2.86-5.72-1.06 5.14h-1.48zm18.722-2.78l1.2.66c-.28.533-.62.98-1.02 1.34-.76.68-1.68 1.02-2.76 1.02-1.12 0-2.087-.36-2.9-1.08-.8-.733-1.2-1.82-1.2-3.26 0-1.267.36-2.313 1.08-3.14.733-.84 1.713-1.26 2.94-1.26 1.386 0 2.433.507 3.14 1.52.56.8.82 1.84.78 3.12h-6.46c.013.84.273 1.52.78 2.04.506.52 1.126.78 1.86.78.653 0 1.22-.2 1.7-.6.373-.32.66-.7.86-1.14zm-5.1-2.28h4.88c-.12-.653-.407-1.173-.86-1.56-.44-.4-.967-.6-1.58-.6-.6 0-1.134.207-1.6.62-.454.4-.734.913-.84 1.54zm10.009 3.9v5.76h-1.44v-12.9h1.44v1.16c.733-.907 1.68-1.36 2.84-1.36 1.24 0 2.22.44 2.94 1.32.733.867 1.1 1.893 1.1 3.08 0 1.2-.36 2.227-1.08 3.08-.72.84-1.687 1.26-2.9 1.26-1.214 0-2.18-.467-2.9-1.4zm2.7.12c.813 0 1.466-.293 1.96-.88.493-.6.74-1.327.74-2.18 0-.96-.274-1.72-.82-2.28-.547-.56-1.18-.84-1.9-.84s-1.36.28-1.92.84c-.56.56-.84 1.313-.84 2.26 0 .867.253 1.6.76 2.2.52.587 1.193.88 2.02.88z" fill="#A89365"/><path fill="#fff" d="M468 19h86v107h-86z"/><path fill-rule="evenodd" clip-rule="evenodd" d="M505.758 23.008h12.279A4.008 4.008 0 00521.512 21H524a3 3 0 013 3v57a3 3 0 01-3 3h-25a3 3 0 01-3-3V24a3 3 0 013-3h3.284a4.006 4.006 0 003.474 2.008zm12.279-2c.062 0 .123-.003.183-.008h-12.644c.06.005.121.008.182.008h12.279zM503.75 19H524a5 5 0 015 5v5.027a1 1 0 011 1v4.017a1 1 0 01-1 1V81a5 5 0 01-5 5h-25a5 5 0 01-5-5V42.063a1 1 0 01-1-1v-4.017a1 1 0 011-1v-1.002a1 1 0 01-1-1v-4.017a1 1 0 011-1V24a5 5 0 015-5h4.75z" fill="#575757"/><path d="M480.342 105.76v1.84a6.13 6.13 0 00-1.74-1.24 5.492 5.492 0 00-2.3-.52c-1.533 0-2.813.54-3.84 1.62-1.013 1.067-1.52 2.38-1.52 3.94 0 1.68.553 3.007 1.66 3.98 1.12.973 2.36 1.46 3.72 1.46.853 0 1.68-.207 2.48-.62a5.907 5.907 0 001.54-1.12v1.84c-1.213.867-2.553 1.3-4.02 1.3-1.973 0-3.62-.66-4.94-1.98-1.307-1.32-1.96-2.947-1.96-4.88 0-1.987.66-3.64 1.98-4.96 1.333-1.32 3-1.98 5-1.98 1.467 0 2.78.44 3.94 1.32zm1.41 12.24l2-8.94 3.44 6.76 3.36-6.76 2 8.94h-1.48l-1.1-5.14-2.82 5.72-2.86-5.72-1.06 5.14h-1.48zm18.921-7.12v-1.18h1.44v8.3h-1.44v-1.16c-.72.933-1.667 1.4-2.84 1.4-1.12 0-2.073-.387-2.86-1.16-.787-.773-1.18-1.853-1.18-3.24 0-1.36.387-2.42 1.16-3.18.787-.773 1.747-1.16 2.88-1.16 1.2 0 2.147.46 2.84 1.38zm-2.68-.1c-.76 0-1.407.273-1.94.82-.52.533-.78 1.28-.78 2.24 0 .92.24 1.673.72 2.26.493.573 1.16.86 2 .86.84 0 1.507-.3 2-.9.507-.6.76-1.333.76-2.2 0-.987-.28-1.747-.84-2.28-.56-.533-1.2-.8-1.92-.8zm8.287 6.06v5.76h-1.44v-12.9h1.44v1.16c.734-.907 1.68-1.36 2.84-1.36 1.24 0 2.22.44 2.94 1.32.734.867 1.1 1.893 1.1 3.08 0 1.2-.36 2.227-1.08 3.08-.72.84-1.686 1.26-2.9 1.26-1.213 0-2.18-.467-2.9-1.4zm2.7.12c.814 0 1.467-.293 1.96-.88.494-.6.74-1.327.74-2.18 0-.96-.273-1.72-.82-2.28-.546-.56-1.18-.84-1.9-.84s-1.36.28-1.92.84c-.56.56-.84 1.313-.84 2.26 0 .867.254 1.6.76 2.2.52.587 1.194.88 2.02.88zm11.633-5.94h-2.6V118h-1.44v-6.98h-2.6v-1.32h6.64v1.32zm5.737 11.58v-4.46c-1.453 0-2.62-.36-3.5-1.08-.96-.773-1.44-1.847-1.44-3.22 0-1.36.474-2.427 1.42-3.2.854-.72 2.027-1.08 3.52-1.08v-4.9h1.44v4.9c1.494 0 2.667.36 3.52 1.08.947.773 1.42 1.84 1.42 3.2 0 1.373-.48 2.447-1.44 3.22-.88.72-2.046 1.08-3.5 1.08v4.46h-1.44zm0-5.74v-6.02c-.946 0-1.686.173-2.22.52-.826.52-1.24 1.347-1.24 2.48 0 1.067.387 1.873 1.16 2.42.56.4 1.327.6 2.3.6zm1.44-6.02v6.02c.974 0 1.74-.2 2.3-.6.774-.547 1.16-1.353 1.16-2.42 0-1.133-.413-1.96-1.24-2.48-.533-.347-1.273-.52-2.22-.52zm14.168 6.16c-.827.827-1.873 1.24-3.14 1.24-1.267 0-2.32-.413-3.16-1.24-.827-.827-1.24-1.867-1.24-3.12 0-1.267.413-2.313 1.24-3.14.84-.827 1.893-1.24 3.16-1.24 1.267 0 2.313.413 3.14 1.24.84.827 1.26 1.873 1.26 3.14 0 1.253-.42 2.293-1.26 3.12zm-1.08-5.4c-.56-.547-1.247-.82-2.06-.82s-1.507.28-2.08.84c-.56.547-.84 1.3-.84 2.26 0 .96.287 1.713.86 2.26.573.547 1.26.82 2.06.82s1.487-.273 2.06-.82c.573-.547.86-1.3.86-2.26 0-.973-.287-1.733-.86-2.28zm4.548 6.4v-8.3h1.44v3.4h3.92v-3.4h1.44v8.3h-1.44v-3.58h-3.92V118h-1.44zM556.74 8.66h2.4c1.333 0 2.353.28 3.06.84.8.613 1.2 1.533 1.2 2.76 0 1.147-.44 2.02-1.32 2.62.853.213 1.486.647 1.9 1.3.426.64.64 1.327.64 2.06 0 .6-.134 1.153-.4 1.66a3.57 3.57 0 01-.96 1.22c-.747.587-1.814.88-3.2.88h-3.32V8.66zm1.48 1.4v4.46h1.12c.2 0 .393-.007.58-.02.186-.027.406-.08.66-.16.266-.093.493-.213.68-.36.2-.147.366-.367.5-.66.133-.293.2-.633.2-1.02 0-.413-.08-.767-.24-1.06-.16-.307-.34-.533-.54-.68a2.25 2.25 0 00-.72-.34 3.816 3.816 0 00-.64-.14 4.886 4.886 0 00-.44-.02h-1.16zm0 5.78v4.76h1.7c1.08 0 1.86-.187 2.34-.56.586-.427.88-1.04.88-1.84 0-.893-.38-1.547-1.14-1.96-.48-.267-1.234-.4-2.26-.4h-1.52zm8.765-8.42h1.44V22h-1.44V7.42zm5.6 6.28v4.84c0 .84.133 1.433.4 1.78.333.427.82.64 1.46.64s1.127-.213 1.46-.64c.267-.347.4-.94.4-1.78V13.7h1.44v5c0 1.12-.253 1.953-.76 2.5-.653.693-1.5 1.04-2.54 1.04s-1.887-.347-2.54-1.04c-.507-.547-.76-1.38-.76-2.5v-5h1.44zm14.037 5.52l1.2.66c-.28.533-.62.98-1.02 1.34-.76.68-1.68 1.02-2.76 1.02-1.12 0-2.087-.36-2.9-1.08-.8-.733-1.2-1.82-1.2-3.26 0-1.267.36-2.313 1.08-3.14.733-.84 1.713-1.26 2.94-1.26 1.386 0 2.433.507 3.14 1.52.56.8.82 1.84.78 3.12h-6.46c.013.84.273 1.52.78 2.04.506.52 1.126.78 1.86.78.653 0 1.22-.2 1.7-.6.373-.32.66-.7.86-1.14zm-5.1-2.28h4.88c-.12-.653-.407-1.173-.86-1.56-.44-.4-.967-.6-1.58-.6-.6 0-1.134.207-1.6.62-.454.4-.734.913-.84 1.54zm11.488-1.92h-1.44V22h-1.44v-6.98h-.88V13.7h.88v-3h1.44v3h1.44v1.32zm8.378 5.98c-.827.827-1.874 1.24-3.14 1.24-1.267 0-2.32-.413-3.16-1.24-.827-.827-1.24-1.867-1.24-3.12 0-1.267.413-2.313 1.24-3.14.84-.827 1.893-1.24 3.16-1.24 1.266 0 2.313.413 3.14 1.24.84.827 1.26 1.873 1.26 3.14 0 1.253-.42 2.293-1.26 3.12zm-1.08-5.4c-.56-.547-1.247-.82-2.06-.82-.814 0-1.507.28-2.08.84-.56.547-.84 1.3-.84 2.26 0 .96.286 1.713.86 2.26a2.88 2.88 0 002.06.82c.8 0 1.486-.273 2.06-.82.573-.547.86-1.3.86-2.26 0-.973-.287-1.733-.86-2.28zm11.568 5.4c-.827.827-1.873 1.24-3.14 1.24-1.267 0-2.32-.413-3.16-1.24-.827-.827-1.24-1.867-1.24-3.12 0-1.267.413-2.313 1.24-3.14.84-.827 1.893-1.24 3.16-1.24 1.267 0 2.313.413 3.14 1.24.84.827 1.26 1.873 1.26 3.14 0 1.253-.42 2.293-1.26 3.12zm-1.08-5.4c-.56-.547-1.247-.82-2.06-.82s-1.507.28-2.08.84c-.56.547-.84 1.3-.84 2.26 0 .96.287 1.713.86 2.26a2.88 2.88 0 002.06.82c.8 0 1.487-.273 2.06-.82.573-.547.86-1.3.86-2.26 0-.973-.287-1.733-.86-2.28zm7.468-.58h-1.44V22h-1.44v-6.98h-.88V13.7h.88v-3h1.44v3h1.44v1.32zm1.358 6.98V7.42h1.44v7.24c.586-.773 1.38-1.16 2.38-1.16 1.066 0 1.86.38 2.38 1.14.32.467.48 1.207.48 2.22V22h-1.44v-5.1c0-.68-.127-1.187-.38-1.52-.307-.4-.76-.6-1.36-.6-.614 0-1.1.213-1.46.64-.4.467-.6 1.213-.6 2.24V22h-1.44zm12.702 3.4l10.28-18.58 1.16.6-10.28 18.54-1.16-.56zm16.664-16.74h1.64l3.52 10 4.18-10.68 3.96 10.68 3.9-10h1.64l-5.6 14.04-3.92-10.68-4.2 10.68-5.12-14.04zm20.36 5.04h1.44V22h-1.44v-8.3zm0-2.42c-.2-.2-.3-.44-.3-.72 0-.28.1-.52.3-.72.2-.2.44-.3.72-.3.28 0 .52.1.72.3.2.2.3.44.3.72 0 .28-.1.52-.3.72-.2.2-.44.3-.72.3-.28 0-.52-.1-.72-.3zm10.6-2.62v1.4h-4.6V14h4.44v1.4h-4.44V22h-1.48V8.66h6.08zm2.232 5.04h1.44V22h-1.44v-8.3zm0-2.42c-.2-.2-.3-.44-.3-.72 0-.28.1-.52.3-.72.2-.2.44-.3.72-.3.28 0 .52.1.72.3.2.2.3.44.3.72 0 .28-.1.52-.3.72-.2.2-.44.3-.72.3-.28 0-.52-.1-.72-.3z" fill="#A89365"/><path fill="#fff" d="M283 185h185v89H283z"/><mask id="b" fill="#fff"><path fill-rule="evenodd" clip-rule="evenodd" d="M285 187h181v38H285v-38zm-2-2h185v42h-7.446v7h-22v-7H314.447v7h-22v-7H283v-42zm59 12h67v7h-67v-7zm-2-2h71v11h-71v-11zm9 15h53v7h-53v-7zm-54.5 6a3.5 3.5 0 100-7 3.5 3.5 0 000 7zm164.5-2.5a2.5 2.5 0 11-5 0 2.5 2.5 0 015 0zm-13.5 2.5a2.5 2.5 0 100-5 2.5 2.5 0 000 5zm-8.5-2.5a2.5 2.5 0 11-5 0 2.5 2.5 0 015 0zm-13.5 2.5a2.5 2.5 0 100-5 2.5 2.5 0 000 5z"/></mask><path fill-rule="evenodd" clip-rule="evenodd" d="M285 187h181v38H285v-38zm-2-2h185v42h-7.446v7h-22v-7H314.447v7h-22v-7H283v-42zm59 12h67v7h-67v-7zm-2-2h71v11h-71v-11zm9 15h53v7h-53v-7zm-54.5 6a3.5 3.5 0 100-7 3.5 3.5 0 000 7zm164.5-2.5a2.5 2.5 0 11-5 0 2.5 2.5 0 015 0zm-13.5 2.5a2.5 2.5 0 100-5 2.5 2.5 0 000 5zm-8.5-2.5a2.5 2.5 0 11-5 0 2.5 2.5 0 015 0zm-13.5 2.5a2.5 2.5 0 100-5 2.5 2.5 0 000 5z" fill="#575757"/><path d="M466 187h1v-1h-1v1zm-181 0v-1h-1v1h1zm181 38v1h1v-1h-1zm-181 0h-1v1h1v-1zm-2-40v-1h-1v1h1zm185 0h1v-1h-1v1zm0 42v1h1v-1h-1zm-7.446 0v-1h-1v1h1zm0 7v1h1v-1h-1zm-22 0h-1v1h1v-1zm0-7h1v-1h-1v1zm-124.107 0v-1h-1v1h1zm0 7v1h1v-1h-1zm-22 0h-1v1h1v-1zm0-7h1v-1h-1v1zM283 227h-1v1h1v-1zm126-30h1v-1h-1v1zm-67 0v-1h-1v1h1zm67 7v1h1v-1h-1zm-67 0h-1v1h1v-1zm-2-9v-1h-1v1h1zm71 0h1v-1h-1v1zm0 11v1h1v-1h-1zm-71 0h-1v1h1v-1zm62 4h1v-1h-1v1zm-53 0v-1h-1v1h1zm53 7v1h1v-1h-1zm-53 0h-1v1h1v-1zm117-31H285v2h181v-2zm1 39v-38h-2v38h2zm-182 1h181v-2H285v2zm-1-39v38h2v-38h-2zm1-3h-2v2h2v-2zm181 0H285v2h181v-2zm2 0h-2v2h2v-2zm1 3v-2h-2v2h2zm0 38v-38h-2v38h2zm0 2v-2h-2v2h2zm-3 1h2v-2h-2v2zm-5.446 0H466v-2h-5.446v2zm1 6v-7h-2v7h2zm-23 1h22v-2h-22v2zm-1-8v7h2v-7h-2zm-123.107 1h124.107v-2H314.447v2zm1 6v-7h-2v7h2zm-23 1h22v-2h-22v2zm-1-8v7h2v-7h-2zM285 228h7.447v-2H285v2zm-2 0h2v-2h-2v2zm-1-3v2h2v-2h-2zm0-38v38h2v-38h-2zm0-2v2h2v-2h-2zm127 11h-67v2h67v-2zm1 8v-7h-2v7h2zm-68 1h67v-2h-67v2zm-1-8v7h2v-7h-2zm1-3h-2v2h2v-2zm67 0h-67v2h67v-2zm2 0h-2v2h2v-2zm1 3v-2h-2v2h2zm0 7v-7h-2v7h2zm0 2v-2h-2v2h2zm-3 1h2v-2h-2v2zm-67 0h67v-2h-67v2zm-2 0h2v-2h-2v2zm-1-3v2h2v-2h-2zm0-7v7h2v-7h-2zm0-2v2h2v-2h-2zm63 14h-53v2h53v-2zm1 8v-7h-2v7h2zm-54 1h53v-2h-53v2zm-1-8v7h2v-7h-2zm-51 2.5a2.5 2.5 0 01-2.5 2.5v2a4.5 4.5 0 004.5-4.5h-2zm-2.5-2.5a2.5 2.5 0 012.5 2.5h2a4.5 4.5 0 00-4.5-4.5v2zm-2.5 2.5a2.5 2.5 0 012.5-2.5v-2a4.5 4.5 0 00-4.5 4.5h2zm2.5 2.5a2.5 2.5 0 01-2.5-2.5h-2a4.5 4.5 0 004.5 4.5v-2zm162 2a3.5 3.5 0 003.5-3.5h-2a1.5 1.5 0 01-1.5 1.5v2zm-3.5-3.5a3.5 3.5 0 003.5 3.5v-2a1.5 1.5 0 01-1.5-1.5h-2zm3.5-3.5a3.5 3.5 0 00-3.5 3.5h2a1.5 1.5 0 011.5-1.5v-2zm3.5 3.5a3.5 3.5 0 00-3.5-3.5v2a1.5 1.5 0 011.5 1.5h2zm-13 0a1.5 1.5 0 01-1.5 1.5v2a3.5 3.5 0 003.5-3.5h-2zm-1.5-1.5a1.5 1.5 0 011.5 1.5h2a3.5 3.5 0 00-3.5-3.5v2zm-1.5 1.5a1.5 1.5 0 011.5-1.5v-2a3.5 3.5 0 00-3.5 3.5h2zm1.5 1.5a1.5 1.5 0 01-1.5-1.5h-2a3.5 3.5 0 003.5 3.5v-2zm-11 2a3.5 3.5 0 003.5-3.5h-2a1.5 1.5 0 01-1.5 1.5v2zm-3.5-3.5a3.5 3.5 0 003.5 3.5v-2a1.5 1.5 0 01-1.5-1.5h-2zm3.5-3.5a3.5 3.5 0 00-3.5 3.5h2a1.5 1.5 0 011.5-1.5v-2zm3.5 3.5a3.5 3.5 0 00-3.5-3.5v2a1.5 1.5 0 011.5 1.5h2zm-13 0a1.5 1.5 0 01-1.5 1.5v2a3.5 3.5 0 003.5-3.5h-2zm-1.5-1.5a1.5 1.5 0 011.5 1.5h2a3.5 3.5 0 00-3.5-3.5v2zm-1.5 1.5a1.5 1.5 0 011.5-1.5v-2a3.5 3.5 0 00-3.5 3.5h2zm1.5 1.5a1.5 1.5 0 01-1.5-1.5h-2a3.5 3.5 0 003.5 3.5v-2z" fill="#575757" mask="url(#b)"/><path d="M310.984 253.76v1.84a6.13 6.13 0 00-1.74-1.24 5.489 5.489 0 00-2.3-.52c-1.533 0-2.813.54-3.84 1.62-1.013 1.067-1.52 2.38-1.52 3.94 0 1.68.554 3.007 1.66 3.98 1.12.973 2.36 1.46 3.72 1.46.854 0 1.68-.207 2.48-.62a5.89 5.89 0 001.54-1.12v1.84c-1.213.867-2.553 1.3-4.02 1.3-1.973 0-3.62-.66-4.94-1.98-1.306-1.32-1.96-2.947-1.96-4.88 0-1.987.66-3.64 1.98-4.96 1.334-1.32 3-1.98 5-1.98 1.467 0 2.78.44 3.94 1.32zm2.73 12.24v-13.34h2.72c2.053 0 3.693.52 4.92 1.56 1.52 1.267 2.28 2.973 2.28 5.12 0 2.08-.78 3.787-2.34 5.12-.64.547-1.327.94-2.06 1.18-.733.24-1.673.36-2.82.36h-2.7zm1.48-11.94v10.54h1.3c1.587 0 2.86-.4 3.82-1.2 1.2-1.013 1.8-2.367 1.8-4.06 0-1.6-.513-2.88-1.54-3.84-1.027-.96-2.387-1.44-4.08-1.44h-1.3zm10.437 8.42V261h4.4v1.48h-4.4zm6.766-4.78h6.68v8.3h-1.44v-6.98h-3.8V266h-1.44v-8.3zm10.835 7.14v5.76h-1.44v-12.9h1.44v1.16c.733-.907 1.68-1.36 2.84-1.36 1.24 0 2.22.44 2.94 1.32.733.867 1.1 1.893 1.1 3.08 0 1.2-.36 2.227-1.08 3.08-.72.84-1.687 1.26-2.9 1.26-1.214 0-2.18-.467-2.9-1.4zm2.7.12c.813 0 1.466-.293 1.96-.88.493-.6.74-1.327.74-2.18 0-.96-.274-1.72-.82-2.28-.547-.56-1.18-.84-1.9-.84s-1.36.28-1.92.84c-.56.56-.84 1.313-.84 2.26 0 .867.253 1.6.76 2.2.52.587 1.193.88 2.02.88zm13.407.04c-.827.827-1.873 1.24-3.14 1.24-1.267 0-2.32-.413-3.16-1.24-.827-.827-1.24-1.867-1.24-3.12 0-1.267.413-2.313 1.24-3.14.84-.827 1.893-1.24 3.16-1.24 1.267 0 2.313.413 3.14 1.24.84.827 1.26 1.873 1.26 3.14 0 1.253-.42 2.293-1.26 3.12zm-1.08-5.4c-.56-.547-1.247-.82-2.06-.82s-1.507.28-2.08.84c-.56.547-.84 1.3-.84 2.26 0 .96.287 1.713.86 2.26.573.547 1.26.82 2.06.82s1.487-.273 2.06-.82c.573-.547.86-1.3.86-2.26 0-.973-.287-1.733-.86-2.28zm4.548-1.9h1.44v5.48l5.68-6.12V266h-1.44v-5.54l-5.68 6.12v-8.88zm9.844 8.3v-8.3h4.92v1.32h-3.48V266h-1.44zm7.807-1.16v5.76h-1.44v-12.9h1.44v1.16c.734-.907 1.68-1.36 2.84-1.36 1.24 0 2.22.44 2.94 1.32.734.867 1.1 1.893 1.1 3.08 0 1.2-.36 2.227-1.08 3.08-.72.84-1.686 1.26-2.9 1.26-1.213 0-2.18-.467-2.9-1.4zm2.7.12c.814 0 1.467-.293 1.96-.88.494-.6.74-1.327.74-2.18 0-.96-.273-1.72-.82-2.28-.546-.56-1.18-.84-1.9-.84s-1.36.28-1.92.84c-.56.56-.84 1.313-.84 2.26 0 .867.254 1.6.76 2.2.52.587 1.194.88 2.02.88zm6.388 1.04v-8.3h1.44v3.18h1.48c1.146 0 1.986.273 2.52.82.426.427.64 1.007.64 1.74 0 .773-.247 1.393-.74 1.86-.494.467-1.307.7-2.44.7h-2.9zm1.44-1.28h1.34c.6 0 1.026-.073 1.28-.22.36-.24.54-.593.54-1.06 0-.48-.174-.827-.52-1.04-.24-.16-.667-.24-1.28-.24h-1.36v2.56zm5.64 1.28v-8.3h1.44v8.3h-1.44zm4.15-8.3h3.14c.76 0 1.34.16 1.74.48.48.387.72.907.72 1.56 0 .72-.3 1.273-.9 1.66.413.107.76.293 1.04.56.44.427.66.96.66 1.6 0 .8-.287 1.427-.86 1.88-.493.373-1.147.56-1.96.56h-3.58v-8.3zm1.44 3.38h1.52c.387 0 .693-.08.92-.24.267-.2.4-.487.4-.86a.95.95 0 00-.4-.8c-.2-.133-.587-.2-1.16-.2h-1.28v2.1zm0 3.64h1.78c.613 0 1.047-.093 1.3-.28.32-.24.48-.547.48-.92 0-.4-.14-.713-.42-.94-.253-.2-.687-.3-1.3-.3h-1.84v2.44zm13.514-5.84v-1.18h1.44v8.3h-1.44v-1.16c-.72.933-1.667 1.4-2.84 1.4-1.12 0-2.074-.387-2.86-1.16-.787-.773-1.18-1.853-1.18-3.24 0-1.36.386-2.42 1.16-3.18.786-.773 1.746-1.16 2.88-1.16 1.2 0 2.146.46 2.84 1.38zm-2.68-.1c-.76 0-1.407.273-1.94.82-.52.533-.78 1.28-.78 2.24 0 .92.24 1.673.72 2.26.493.573 1.16.86 2 .86.84 0 1.506-.3 2-.9.506-.6.76-1.333.76-2.2 0-.987-.28-1.747-.84-2.28-.56-.533-1.2-.8-1.92-.8zm12.287.24h-2.6V266h-1.44v-6.98h-2.6v-1.32h6.64v1.32zm7.478 4.2l1.2.66c-.28.533-.62.98-1.02 1.34-.76.68-1.68 1.02-2.76 1.02-1.12 0-2.087-.36-2.9-1.08-.8-.733-1.2-1.82-1.2-3.26 0-1.267.36-2.313 1.08-3.14.733-.84 1.713-1.26 2.94-1.26 1.387 0 2.433.507 3.14 1.52.56.8.82 1.84.78 3.12h-6.46c.013.84.273 1.52.78 2.04s1.127.78 1.86.78c.653 0 1.22-.2 1.7-.6.373-.32.66-.7.86-1.14zm-5.1-2.28h4.88c-.12-.653-.407-1.173-.86-1.56-.44-.4-.967-.6-1.58-.6-.6 0-1.133.207-1.6.62-.453.4-.733.913-.84 1.54zm14.849-3.24v8.3h-1.44v-6.98h-2.96v3.74c0 1.08-.214 1.88-.64 2.4-.48.587-1.147.88-2 .88-.107 0-.254-.013-.44-.04v-1.32c.133.027.24.04.32.04.466 0 .813-.18 1.04-.54.186-.293.28-.767.28-1.42v-5.06h5.84zm2.724 8.3v-8.3h1.44v3.18h1.48c1.146 0 1.986.273 2.52.82.426.427.64 1.007.64 1.74 0 .773-.247 1.393-.74 1.86-.494.467-1.307.7-2.44.7h-2.9zm1.44-1.28h1.34c.6 0 1.026-.073 1.28-.22.36-.24.54-.593.54-1.06 0-.48-.174-.827-.52-1.04-.24-.16-.667-.24-1.28-.24h-1.36v2.56z" fill="#A89365"/><path fill="#fff" d="M807 164h130v142H807z"/><path fill-rule="evenodd" clip-rule="evenodd" d="M935 234H809v10a2 2 0 002 2h122a2 2 0 002-2v-10zm-56 14h54a4 4 0 004-4v-76a4 4 0 00-4-4H811a4 4 0 00-4 4v76a4 4 0 004 4h53v5.513A13.162 13.162 0 01855 266h33a13.162 13.162 0 01-9-12.487V248zm56-16H809v-64a2 2 0 012-2h122a2 2 0 012 2v64zm-60 8a3 3 0 11-6 0 3 3 0 016 0z" fill="#575757"/><path d="M829.427 284.66v5.72l5.68-5.72h2l-6.24 6.22 6.44 7.12h-2.04l-5.46-6.12-.38.38V298h-1.48v-13.34h1.48zM845.134 297c-.827.827-1.873 1.24-3.14 1.24-1.267 0-2.32-.413-3.16-1.24-.827-.827-1.24-1.867-1.24-3.12 0-1.267.413-2.313 1.24-3.14.84-.827 1.893-1.24 3.16-1.24 1.267 0 2.313.413 3.14 1.24.84.827 1.26 1.873 1.26 3.14 0 1.253-.42 2.293-1.26 3.12zm-1.08-5.4c-.56-.547-1.247-.82-2.06-.82s-1.507.28-2.08.84c-.56.547-.84 1.3-.84 2.26 0 .96.287 1.713.86 2.26.573.547 1.26.82 2.06.82s1.487-.273 2.06-.82c.573-.547.86-1.3.86-2.26 0-.973-.287-1.733-.86-2.28zm3.588 6.4l2-8.94 3.44 6.76 3.36-6.76 2 8.94h-1.48l-1.1-5.14-2.82 5.72-2.86-5.72-1.06 5.14h-1.48zm12.562-8.3h6.68v8.3h-1.44v-6.98h-3.8V298h-1.44v-8.3zm9.394 8.3v-8.3h1.44v3.18h1.48c1.147 0 1.987.273 2.52.82.427.427.64 1.007.64 1.74 0 .773-.246 1.393-.74 1.86-.493.467-1.306.7-2.44.7h-2.9zm1.44-1.28h1.34c.6 0 1.027-.073 1.28-.22.36-.24.54-.593.54-1.06 0-.48-.173-.827-.52-1.04-.24-.16-.666-.24-1.28-.24h-1.36v2.56zm8.008-3.62h1.5c.133-.933.507-1.72 1.12-2.36.787-.827 1.833-1.24 3.14-1.24 1.28 0 2.333.413 3.16 1.24s1.24 1.873 1.24 3.14c0 1.253-.42 2.293-1.26 3.12-.827.827-1.873 1.24-3.14 1.24-1.453 0-2.593-.52-3.42-1.56a4.185 4.185 0 01-.92-2.26h-1.42V298h-1.44v-8.3h1.44v3.4zm5.76-2.32c-.8 0-1.48.28-2.04.84-.547.547-.82 1.3-.82 2.26 0 .973.28 1.733.84 2.28.56.533 1.233.8 2.02.8.8 0 1.487-.273 2.06-.82.573-.547.86-1.3.86-2.26 0-.96-.287-1.713-.86-2.26-.56-.56-1.247-.84-2.06-.84zm11.853.24h-2.6V298h-1.44v-6.98h-2.6v-1.32h6.64v1.32zm7.478 4.2l1.2.66c-.28.533-.62.98-1.02 1.34-.76.68-1.68 1.02-2.76 1.02-1.12 0-2.086-.36-2.9-1.08-.8-.733-1.2-1.82-1.2-3.26 0-1.267.36-2.313 1.08-3.14.734-.84 1.714-1.26 2.94-1.26 1.387 0 2.434.507 3.14 1.52.56.8.82 1.84.78 3.12h-6.46c.014.84.274 1.52.78 2.04.507.52 1.127.78 1.86.78.654 0 1.22-.2 1.7-.6.374-.32.66-.7.86-1.14zm-5.1-2.28h4.88c-.12-.653-.406-1.173-.86-1.56-.44-.4-.966-.6-1.58-.6-.6 0-1.133.207-1.6.62-.453.4-.733.913-.84 1.54zm10.009 3.9v5.76h-1.44v-12.9h1.44v1.16c.733-.907 1.68-1.36 2.84-1.36 1.24 0 2.22.44 2.94 1.32.733.867 1.1 1.893 1.1 3.08 0 1.2-.36 2.227-1.08 3.08-.72.84-1.687 1.26-2.9 1.26-1.213 0-2.18-.467-2.9-1.4zm2.7.12c.813 0 1.467-.293 1.96-.88.493-.6.74-1.327.74-2.18 0-.96-.273-1.72-.82-2.28-.547-.56-1.18-.84-1.9-.84s-1.36.28-1.92.84c-.56.56-.84 1.313-.84 2.26 0 .867.253 1.6.76 2.2.52.587 1.193.88 2.02.88z" fill="#A89365"/><path fill="#fff" d="M266 470h218v97H266z"/><path fill-rule="evenodd" clip-rule="evenodd" d="M268 472h214v46H268v-46zm-2-2h218v50h-11v7h-26v-7H303v7h-26v-7h-11v-50zm35 24.5a8.5 8.5 0 11-17.001-.001A8.5 8.5 0 01301 494.5zm2 0c0 5.799-4.701 10.5-10.5 10.5s-10.5-4.701-10.5-10.5 4.701-10.5 10.5-10.5 10.5 4.701 10.5 10.5zm154.5 8.5a8.5 8.5 0 10-.001-17.001A8.5 8.5 0 00457.5 503zm0 2c5.799 0 10.5-4.701 10.5-10.5s-4.701-10.5-10.5-10.5-10.5 4.701-10.5 10.5 4.701 10.5 10.5 10.5zM316 483h118v24H316v-24zm93.5 10a2.5 2.5 0 100-5 2.5 2.5 0 000 5zm-69 5a2.5 2.5 0 100-5 2.5 2.5 0 000 5zm11 0a2.5 2.5 0 100-5 2.5 2.5 0 000 5zm60.5.5a2.5 2.5 0 11-5 0 2.5 2.5 0 015 0z" fill="#575757"/><path d="M286.578 559v-10.18l-9.28 10.78v-13.94h1.48v10.22l9.28-10.78V559h-1.48zm4.559 0v-8.3h1.44v3.4h3.92v-3.4h1.44v8.3h-1.44v-3.58h-3.92V559h-1.44zm14.952-6.98h-2.6V559h-1.44v-6.98h-2.6v-1.32h6.64v1.32zm7.478 4.2l1.2.66c-.28.533-.62.98-1.02 1.34-.76.68-1.68 1.02-2.76 1.02-1.12 0-2.087-.36-2.9-1.08-.8-.733-1.2-1.82-1.2-3.26 0-1.267.36-2.313 1.08-3.14.733-.84 1.713-1.26 2.94-1.26 1.387 0 2.433.507 3.14 1.52.56.8.82 1.84.78 3.12h-6.46c.013.84.273 1.52.78 2.04s1.127.78 1.86.78c.653 0 1.22-.2 1.7-.6.373-.32.66-.7.86-1.14zm-5.1-2.28h4.88c-.12-.653-.407-1.173-.86-1.56-.44-.4-.967-.6-1.58-.6-.6 0-1.133.207-1.6.62-.453.4-.733.913-.84 1.54zm8.569 5.06v-8.3h4.92v1.32h-3.48V559h-1.44zm7.807-1.16v5.76h-1.44v-12.9h1.44v1.16c.733-.907 1.68-1.36 2.84-1.36 1.24 0 2.22.44 2.94 1.32.733.867 1.1 1.893 1.1 3.08 0 1.2-.36 2.227-1.08 3.08-.72.84-1.687 1.26-2.9 1.26-1.213 0-2.18-.467-2.9-1.4zm2.7.12c.813 0 1.467-.293 1.96-.88.493-.6.74-1.327.74-2.18 0-.96-.273-1.72-.82-2.28-.547-.56-1.18-.84-1.9-.84s-1.36.28-1.92.84c-.56.56-.84 1.313-.84 2.26 0 .867.253 1.6.76 2.2.52.587 1.193.88 2.02.88zm12.747-6.08v-1.18h1.44v8.3h-1.44v-1.16c-.72.933-1.666 1.4-2.84 1.4-1.12 0-2.073-.387-2.86-1.16-.786-.773-1.18-1.853-1.18-3.24 0-1.36.387-2.42 1.16-3.18.787-.773 1.747-1.16 2.88-1.16 1.2 0 2.147.46 2.84 1.38zm-2.68-.1a2.61 2.61 0 00-1.94.82c-.52.533-.78 1.28-.78 2.24 0 .92.24 1.673.72 2.26.494.573 1.16.86 2 .86.84 0 1.507-.3 2-.9.507-.6.76-1.333.76-2.2 0-.987-.28-1.747-.84-2.28-.56-.533-1.2-.8-1.92-.8zm13.128-1.08v8.3h-1.44v-6.98h-2.96v3.74c0 1.08-.214 1.88-.64 2.4-.48.587-1.147.88-2 .88-.107 0-.254-.013-.44-.04v-1.32c.133.027.24.04.32.04.466 0 .813-.18 1.04-.54.186-.293.28-.767.28-1.42v-5.06h5.84zm2.724 8.3v-8.3h1.44v3.18h1.48c1.146 0 1.986.273 2.52.82.426.427.64 1.007.64 1.74 0 .773-.247 1.393-.74 1.86-.494.467-1.307.7-2.44.7h-2.9zm1.44-1.28h1.34c.6 0 1.026-.073 1.28-.22.36-.24.54-.593.54-1.06 0-.48-.174-.827-.52-1.04-.24-.16-.667-.24-1.28-.24h-1.36v2.56zm6.567 1.28v-8.3h1.44v3.4h3.92v-3.4h1.44v8.3h-1.44v-3.58h-3.92V559h-1.44zm9.512 0v-8.3h1.44v3.18h1.48c1.147 0 1.987.273 2.52.82.427.427.64 1.007.64 1.74 0 .773-.247 1.393-.74 1.86-.493.467-1.307.7-2.44.7h-2.9zm1.44-1.28h1.34c.6 0 1.027-.073 1.28-.22.36-.24.54-.593.54-1.06 0-.48-.173-.827-.52-1.04-.24-.16-.667-.24-1.28-.24h-1.36v2.56zm5.64 1.28v-8.3h1.44v8.3h-1.44zm4.151-8.3h1.44v5.48l5.68-6.12V559h-1.44v-5.54l-5.68 6.12v-8.88zm.72-3.58l1.2-.46c.24.8.806 1.2 1.7 1.2.893 0 1.46-.4 1.7-1.2l1.2.46c-.214.6-.58 1.073-1.1 1.42-.507.347-1.107.52-1.8.52-.694 0-1.3-.173-1.82-.52a2.813 2.813 0 01-1.08-1.42zm13.771 16.48l2.64-5.38-3.82-7.52h1.64l2.94 5.94 2.7-5.94h1.6l-6.1 12.9h-1.6zm15.72-12.3v1.72c-.654-.827-1.52-1.24-2.6-1.24-.814 0-1.507.28-2.08.84-.574.547-.86 1.3-.86 2.26 0 .96.286 1.713.86 2.26.573.547 1.26.82 2.06.82 1.066 0 1.96-.433 2.68-1.3v1.72a4.38 4.38 0 01-2.641.86c-1.293 0-2.359-.407-3.199-1.22-.827-.827-1.24-1.867-1.24-3.12 0-1.267.42-2.313 1.26-3.14.84-.84 1.9-1.26 3.179-1.26.961 0 1.821.267 2.581.8zm2.269-.6h1.44v5.48l5.68-6.12V559h-1.44v-5.54l-5.68 6.12v-8.88zm16.124 0v8.3h-1.44v-6.98h-2.96v3.74c0 1.08-.214 1.88-.64 2.4-.48.587-1.147.88-2 .88-.107 0-.254-.013-.44-.04v-1.32c.133.027.24.04.32.04.466 0 .813-.18 1.04-.54.186-.293.28-.767.28-1.42v-5.06h5.84zm2.724 0h1.44v5.48l5.68-6.12V559h-1.44v-5.54l-5.68 6.12v-8.88zm15.283 1.32h-2.6V559h-1.44v-6.98h-2.6v-1.32h6.64v1.32zm7.478 4.2l1.2.66c-.28.533-.62.98-1.02 1.34-.76.68-1.68 1.02-2.76 1.02-1.12 0-2.086-.36-2.9-1.08-.8-.733-1.2-1.82-1.2-3.26 0-1.267.36-2.313 1.08-3.14.734-.84 1.714-1.26 2.94-1.26 1.387 0 2.434.507 3.14 1.52.56.8.82 1.84.78 3.12h-6.46c.014.84.274 1.52.78 2.04.507.52 1.127.78 1.86.78.654 0 1.22-.2 1.7-.6.374-.32.66-.7.86-1.14zm-5.1-2.28h4.88c-.12-.653-.406-1.173-.86-1.56-.44-.4-.966-.6-1.58-.6-.6 0-1.133.207-1.6.62-.453.4-.733.913-.84 1.54zm14.849-3.24v8.3h-1.44v-6.98h-2.96v3.74c0 1.08-.213 1.88-.64 2.4-.48.587-1.147.88-2 .88-.107 0-.253-.013-.44-.04v-1.32c.133.027.24.04.32.04.467 0 .813-.18 1.04-.54.187-.293.28-.767.28-1.42v-5.06h5.84zm2.724 8.3v-8.3h1.44v3.18h1.48c1.147 0 1.987.273 2.52.82.427.427.64 1.007.64 1.74 0 .773-.247 1.393-.74 1.86-.493.467-1.307.7-2.44.7h-2.9zm1.44-1.28h1.34c.6 0 1.027-.073 1.28-.22.36-.24.54-.593.54-1.06 0-.48-.173-.827-.52-1.04-.24-.16-.667-.24-1.28-.24h-1.36v2.56zM781.313 454.7h1.44v3.4l3.36-3.4h1.76l-3.6 3.7 4.04 4.6h-1.88l-3.24-3.64-.44.42V463h-1.44v-8.3zm14.798 1.18v-1.18h1.44v8.3h-1.44v-1.16c-.72.933-1.667 1.4-2.84 1.4-1.12 0-2.074-.387-2.86-1.16-.787-.773-1.18-1.853-1.18-3.24 0-1.36.386-2.42 1.16-3.18.786-.773 1.746-1.16 2.88-1.16 1.2 0 2.146.46 2.84 1.38zm-2.68-.1c-.76 0-1.407.273-1.94.82-.52.533-.78 1.28-.78 2.24 0 .92.24 1.673.72 2.26.493.573 1.16.86 2 .86.84 0 1.506-.3 2-.9.506-.6.76-1.333.76-2.2 0-.987-.28-1.747-.84-2.28-.56-.533-1.2-.8-1.92-.8zm13.247-6.78h1.6c-.147.493-.4.913-.76 1.26-.347.333-.667.56-.96.68-.28.12-.613.227-1 .32-.067.013-.227.053-.48.12-.253.053-.447.1-.58.14-.133.04-.307.093-.52.16a3.344 3.344 0 00-.58.24 4.167 4.167 0 00-.48.3c-.507.387-.92.927-1.24 1.62a5.732 5.732 0 00-.5 2.18h.04c.6-1.013 1.607-1.52 3.02-1.52 1.24 0 2.267.42 3.08 1.26.827.84 1.24 1.88 1.24 3.12 0 1.253-.42 2.293-1.26 3.12-.84.827-1.933 1.24-3.28 1.24-1.16 0-2.113-.347-2.86-1.04-.933-.853-1.4-2.28-1.4-4.28 0-3.48.787-5.76 2.36-6.84.12-.08.247-.153.38-.22.133-.08.273-.147.42-.2.16-.067.293-.12.4-.16.107-.053.253-.1.44-.14.2-.053.333-.087.4-.1.08-.027.227-.06.44-.1.227-.053.367-.087.42-.1.533-.12.92-.26 1.16-.42.24-.173.407-.387.5-.64zm-.46 7.6c-.56-.547-1.247-.82-2.06-.82s-1.507.28-2.08.84c-.56.547-.84 1.3-.84 2.26 0 .96.287 1.713.86 2.26.573.547 1.26.82 2.06.82s1.487-.273 2.06-.82c.573-.547.86-1.3.86-2.26 0-.973-.287-1.733-.86-2.28zm10.708 3.62l1.2.66c-.28.533-.62.98-1.02 1.34-.76.68-1.68 1.02-2.76 1.02-1.12 0-2.086-.36-2.9-1.08-.8-.733-1.2-1.82-1.2-3.26 0-1.267.36-2.313 1.08-3.14.734-.84 1.714-1.26 2.94-1.26 1.387 0 2.434.507 3.14 1.52.56.8.82 1.84.78 3.12h-6.46c.014.84.274 1.52.78 2.04.507.52 1.127.78 1.86.78.654 0 1.22-.2 1.7-.6.374-.32.66-.7.86-1.14zm-5.1-2.28h4.88c-.12-.653-.406-1.173-.86-1.56-.44-.4-.966-.6-1.58-.6-.6 0-1.133.207-1.6.62-.453.4-.733.913-.84 1.54zm14.849-3.24v8.3h-1.44v-6.98h-2.96v3.74c0 1.08-.213 1.88-.64 2.4-.48.587-1.147.88-2 .88-.107 0-.253-.013-.44-.04v-1.32c.133.027.24.04.32.04.467 0 .813-.18 1.04-.54.187-.293.28-.767.28-1.42v-5.06h5.84zm2.724 8.3v-8.3h1.44v3.18h1.48c1.147 0 1.987.273 2.52.82.427.427.64 1.007.64 1.74 0 .773-.247 1.393-.74 1.86-.493.467-1.307.7-2.44.7h-2.9zm1.44-1.28h1.34c.6 0 1.027-.073 1.28-.22.36-.24.54-.593.54-1.06 0-.48-.173-.827-.52-1.04-.24-.16-.667-.24-1.28-.24h-1.36v2.56zM95.313 476.7h1.44v3.4l3.36-3.4h1.76l-3.6 3.7 4.04 4.6h-1.88l-3.24-3.64-.44.42V485h-1.44v-8.3zm14.798 1.18v-1.18h1.44v8.3h-1.44v-1.16c-.72.933-1.667 1.4-2.84 1.4-1.12 0-2.074-.387-2.86-1.16-.787-.773-1.18-1.853-1.18-3.24 0-1.36.386-2.42 1.16-3.18.786-.773 1.746-1.16 2.88-1.16 1.2 0 2.146.46 2.84 1.38zm-2.68-.1c-.76 0-1.407.273-1.94.82-.52.533-.78 1.28-.78 2.24 0 .92.24 1.673.72 2.26.493.573 1.16.86 2 .86.84 0 1.506-.3 2-.9.506-.6.76-1.333.76-2.2 0-.987-.28-1.747-.84-2.28-.56-.533-1.2-.8-1.92-.8zm13.247-6.78h1.6c-.147.493-.4.913-.76 1.26-.347.333-.667.56-.96.68-.28.12-.613.227-1 .32-.067.013-.227.053-.48.12-.253.053-.447.1-.58.14-.133.04-.307.093-.52.16a3.344 3.344 0 00-.58.24 4.167 4.167 0 00-.48.3c-.507.387-.92.927-1.24 1.62a5.732 5.732 0 00-.5 2.18h.04c.6-1.013 1.607-1.52 3.02-1.52 1.24 0 2.267.42 3.08 1.26.827.84 1.24 1.88 1.24 3.12 0 1.253-.42 2.293-1.26 3.12-.84.827-1.933 1.24-3.28 1.24-1.16 0-2.113-.347-2.86-1.04-.933-.853-1.4-2.28-1.4-4.28 0-3.48.787-5.76 2.36-6.84.12-.08.247-.153.38-.22.133-.08.273-.147.42-.2.16-.067.293-.12.4-.16.107-.053.253-.1.44-.14.2-.053.333-.087.4-.1.08-.027.227-.06.44-.1.227-.053.367-.087.42-.1.533-.12.92-.26 1.16-.42.24-.173.407-.387.5-.64zm-.46 7.6c-.56-.547-1.247-.82-2.06-.82s-1.507.28-2.08.84c-.56.547-.84 1.3-.84 2.26 0 .96.287 1.713.86 2.26.573.547 1.26.82 2.06.82s1.487-.273 2.06-.82c.573-.547.86-1.3.86-2.26 0-.973-.287-1.733-.86-2.28zm10.708 3.62l1.2.66c-.28.533-.62.98-1.02 1.34-.76.68-1.68 1.02-2.76 1.02-1.12 0-2.086-.36-2.9-1.08-.8-.733-1.2-1.82-1.2-3.26 0-1.267.36-2.313 1.08-3.14.734-.84 1.714-1.26 2.94-1.26 1.387 0 2.434.507 3.14 1.52.56.8.82 1.84.78 3.12h-6.46c.014.84.274 1.52.78 2.04.507.52 1.127.78 1.86.78.654 0 1.22-.2 1.7-.6.374-.32.66-.7.86-1.14zm-5.1-2.28h4.88c-.12-.653-.406-1.173-.86-1.56-.44-.4-.966-.6-1.58-.6-.6 0-1.133.207-1.6.62-.453.4-.733.913-.84 1.54zm14.849-3.24v8.3h-1.44v-6.98h-2.96v3.74c0 1.08-.213 1.88-.64 2.4-.48.587-1.147.88-2 .88-.107 0-.253-.013-.44-.04v-1.32c.133.027.24.04.32.04.467 0 .813-.18 1.04-.54.187-.293.28-.767.28-1.42v-5.06h5.84zm2.724 8.3v-8.3h1.44v3.18h1.48c1.147 0 1.987.273 2.52.82.427.427.64 1.007.64 1.74 0 .773-.247 1.393-.74 1.86-.493.467-1.307.7-2.44.7h-2.9zm1.44-1.28h1.34c.6 0 1.027-.073 1.28-.22.36-.24.54-.593.54-1.06 0-.48-.173-.827-.52-1.04-.24-.16-.667-.24-1.28-.24h-1.36v2.56zM80.313 402.7h1.44v3.4l3.36-3.4h1.76l-3.6 3.7 4.04 4.6h-1.88l-3.24-3.64-.44.42V411h-1.44v-8.3zm14.798 1.18v-1.18h1.44v8.3h-1.44v-1.16c-.72.933-1.667 1.4-2.84 1.4-1.12 0-2.074-.387-2.86-1.16-.787-.773-1.18-1.853-1.18-3.24 0-1.36.386-2.42 1.16-3.18.786-.773 1.746-1.16 2.88-1.16 1.2 0 2.146.46 2.84 1.38zm-2.68-.1c-.76 0-1.407.273-1.94.82-.52.533-.78 1.28-.78 2.24 0 .92.24 1.673.72 2.26.493.573 1.16.86 2 .86.84 0 1.506-.3 2-.9.506-.6.76-1.333.76-2.2 0-.987-.28-1.747-.84-2.28-.56-.533-1.2-.8-1.92-.8zm13.247-6.78h1.6c-.147.493-.4.913-.76 1.26-.347.333-.667.56-.96.68-.28.12-.613.227-1 .32-.067.013-.227.053-.48.12-.253.053-.447.1-.58.14-.133.04-.307.093-.52.16a3.344 3.344 0 00-.58.24 4.167 4.167 0 00-.48.3c-.507.387-.92.927-1.24 1.62a5.732 5.732 0 00-.5 2.18h.04c.6-1.013 1.607-1.52 3.02-1.52 1.24 0 2.267.42 3.08 1.26.827.84 1.24 1.88 1.24 3.12 0 1.253-.42 2.293-1.26 3.12-.84.827-1.933 1.24-3.28 1.24-1.16 0-2.113-.347-2.86-1.04-.933-.853-1.4-2.28-1.4-4.28 0-3.48.787-5.76 2.36-6.84.12-.08.247-.153.38-.22.133-.08.273-.147.42-.2.16-.067.293-.12.4-.16.107-.053.253-.1.44-.14.2-.053.333-.087.4-.1.08-.027.227-.06.44-.1.227-.053.367-.087.42-.1.533-.12.92-.26 1.16-.42.24-.173.407-.387.5-.64zm-.46 7.6c-.56-.547-1.247-.82-2.06-.82s-1.507.28-2.08.84c-.56.547-.84 1.3-.84 2.26 0 .96.287 1.713.86 2.26.573.547 1.26.82 2.06.82s1.487-.273 2.06-.82c.573-.547.86-1.3.86-2.26 0-.973-.287-1.733-.86-2.28zm10.708 3.62l1.2.66c-.28.533-.62.98-1.02 1.34-.76.68-1.68 1.02-2.76 1.02-1.12 0-2.086-.36-2.9-1.08-.8-.733-1.2-1.82-1.2-3.26 0-1.267.36-2.313 1.08-3.14.734-.84 1.714-1.26 2.94-1.26 1.387 0 2.434.507 3.14 1.52.56.8.82 1.84.78 3.12h-6.46c.014.84.274 1.52.78 2.04.507.52 1.127.78 1.86.78.654 0 1.22-.2 1.7-.6.374-.32.66-.7.86-1.14zm-5.1-2.28h4.88c-.12-.653-.406-1.173-.86-1.56-.44-.4-.966-.6-1.58-.6-.6 0-1.133.207-1.6.62-.453.4-.733.913-.84 1.54zm14.849-3.24v8.3h-1.44v-6.98h-2.96v3.74c0 1.08-.213 1.88-.64 2.4-.48.587-1.147.88-2 .88-.107 0-.253-.013-.44-.04v-1.32c.133.027.24.04.32.04.467 0 .813-.18 1.04-.54.187-.293.28-.767.28-1.42v-5.06h5.84zm2.724 8.3v-8.3h1.44v3.18h1.48c1.147 0 1.987.273 2.52.82.427.427.64 1.007.64 1.74 0 .773-.247 1.393-.74 1.86-.493.467-1.307.7-2.44.7h-2.9zm1.44-1.28h1.34c.6 0 1.027-.073 1.28-.22.36-.24.54-.593.54-1.06 0-.48-.173-.827-.52-1.04-.24-.16-.667-.24-1.28-.24h-1.36v2.56zm712.474-7.02h1.44v3.4l3.36-3.4h1.76l-3.6 3.7 4.04 4.6h-1.88l-3.24-3.64-.44.42V411h-1.44v-8.3zm14.798 1.18v-1.18h1.44v8.3h-1.44v-1.16c-.72.933-1.667 1.4-2.84 1.4-1.12 0-2.074-.387-2.86-1.16-.787-.773-1.18-1.853-1.18-3.24 0-1.36.386-2.42 1.16-3.18.786-.773 1.746-1.16 2.88-1.16 1.2 0 2.146.46 2.84 1.38zm-2.68-.1c-.76 0-1.407.273-1.94.82-.52.533-.78 1.28-.78 2.24 0 .92.24 1.673.72 2.26.493.573 1.16.86 2 .86.84 0 1.506-.3 2-.9.506-.6.76-1.333.76-2.2 0-.987-.28-1.747-.84-2.28-.56-.533-1.2-.8-1.92-.8zm13.247-6.78h1.6c-.147.493-.4.913-.76 1.26-.347.333-.667.56-.96.68-.28.12-.613.227-1 .32-.067.013-.227.053-.48.12-.253.053-.447.1-.58.14-.133.04-.307.093-.52.16a3.344 3.344 0 00-.58.24 4.167 4.167 0 00-.48.3c-.507.387-.92.927-1.24 1.62a5.732 5.732 0 00-.5 2.18h.04c.6-1.013 1.607-1.52 3.02-1.52 1.24 0 2.267.42 3.08 1.26.827.84 1.24 1.88 1.24 3.12 0 1.253-.42 2.293-1.26 3.12-.84.827-1.933 1.24-3.28 1.24-1.16 0-2.113-.347-2.86-1.04-.933-.853-1.4-2.28-1.4-4.28 0-3.48.787-5.76 2.36-6.84.12-.08.247-.153.38-.22.133-.08.273-.147.42-.2.16-.067.293-.12.4-.16.107-.053.253-.1.44-.14.2-.053.333-.087.4-.1.08-.027.227-.06.44-.1.227-.053.367-.087.42-.1.533-.12.92-.26 1.16-.42.24-.173.407-.387.5-.64zm-.46 7.6c-.56-.547-1.247-.82-2.06-.82s-1.507.28-2.08.84c-.56.547-.84 1.3-.84 2.26 0 .96.287 1.713.86 2.26.573.547 1.26.82 2.06.82s1.487-.273 2.06-.82c.573-.547.86-1.3.86-2.26 0-.973-.287-1.733-.86-2.28zm10.708 3.62l1.2.66c-.28.533-.62.98-1.02 1.34-.76.68-1.68 1.02-2.76 1.02-1.12 0-2.086-.36-2.9-1.08-.8-.733-1.2-1.82-1.2-3.26 0-1.267.36-2.313 1.08-3.14.734-.84 1.714-1.26 2.94-1.26 1.387 0 2.434.507 3.14 1.52.56.8.82 1.84.78 3.12h-6.46c.014.84.274 1.52.78 2.04.507.52 1.127.78 1.86.78.654 0 1.22-.2 1.7-.6.374-.32.66-.7.86-1.14zm-5.1-2.28h4.88c-.12-.653-.406-1.173-.86-1.56-.44-.4-.966-.6-1.58-.6-.6 0-1.133.207-1.6.62-.453.4-.733.913-.84 1.54zm14.849-3.24v8.3h-1.44v-6.98h-2.96v3.74c0 1.08-.213 1.88-.64 2.4-.48.587-1.147.88-2 .88-.107 0-.253-.013-.44-.04v-1.32c.133.027.24.04.32.04.467 0 .813-.18 1.04-.54.187-.293.28-.767.28-1.42v-5.06h5.84zm2.724 8.3v-8.3h1.44v3.18h1.48c1.147 0 1.987.273 2.52.82.427.427.64 1.007.64 1.74 0 .773-.247 1.393-.74 1.86-.493.467-1.307.7-2.44.7h-2.9zm1.44-1.28h1.34c.6 0 1.027-.073 1.28-.22.36-.24.54-.593.54-1.06 0-.48-.173-.827-.52-1.04-.24-.16-.667-.24-1.28-.24h-1.36v2.56z" fill="#A89365"/><path fill="#fff" d="M0 135h215v188H0z"/><path stroke="#575757" stroke-width="2" d="M16 136h183v146H16z"/><circle cx="88" cy="209" r="64" stroke="#575757" stroke-width="2"/><path fill-rule="evenodd" clip-rule="evenodd" d="M88 267c32.033 0 58-25.967 58-58s-25.967-58-58-58c-32.032 0-58 25.967-58 58s25.968 58 58 58zm0-56a2 2 0 100-4 2 2 0 000 4z" fill="#575757"/><path d="M170 148h8v10h-8v-10z" fill="#575757"/><path d="M174 270l9.342-37.128a20 20 0 00-1.041-12.824l-6.656-15.38a20.006 20.006 0 01-1.645-7.944V158m0 0h-4v-10h8v10h-4z" stroke="#575757" stroke-width="3" stroke-linecap="round" stroke-linejoin="round"/><circle cx="187.5" cy="168.5" r="2" fill="#575757" stroke="#575757"/><circle cx="30.5" cy="266.5" r="7" fill="#575757" stroke="#575757"/><path d="M1.954 301.66h2.4c1.334 0 2.354.28 3.06.84.8.613 1.2 1.533 1.2 2.76 0 1.147-.44 2.02-1.32 2.62.854.213 1.487.647 1.9 1.3.427.64.64 1.327.64 2.06 0 .6-.133 1.153-.4 1.66a3.555 3.555 0 01-.96 1.22c-.746.587-1.813.88-3.2.88h-3.32v-13.34zm1.48 1.4v4.46h1.12c.2 0 .394-.007.58-.02a4.27 4.27 0 00.66-.16c.267-.093.494-.213.68-.36.2-.147.367-.367.5-.66.134-.293.2-.633.2-1.02 0-.413-.08-.767-.24-1.06-.16-.307-.34-.533-.54-.68-.2-.147-.44-.26-.72-.34a3.772 3.772 0 00-.64-.14 4.982 4.982 0 00-.44-.02h-1.16zm0 5.78v4.76h1.7c1.08 0 1.86-.187 2.34-.56.587-.427.88-1.04.88-1.84 0-.893-.38-1.547-1.14-1.96-.48-.267-1.233-.4-2.26-.4h-1.52zm8.766-2.14h1.44v5.48l5.68-6.12V315h-1.44v-5.54l-5.68 6.12v-8.88zm9.844 8.3v-8.3h1.44v3.4h3.92v-3.4h1.44v8.3h-1.44v-3.58h-3.92V315h-1.44zm9.511-8.3h1.44v5.48l5.68-6.12V315h-1.44v-5.54l-5.68 6.12v-8.88zm16.124 0v8.3h-1.44v-6.98h-2.96v3.74c0 1.08-.213 1.88-.64 2.4-.48.587-1.147.88-2 .88a3.25 3.25 0 01-.44-.04v-1.32c.133.027.24.04.32.04.467 0 .813-.18 1.04-.54.187-.293.28-.767.28-1.42v-5.06h5.84zm9.744 7.3c-.827.827-1.873 1.24-3.14 1.24-1.267 0-2.32-.413-3.16-1.24-.827-.827-1.24-1.867-1.24-3.12 0-1.267.413-2.313 1.24-3.14.84-.827 1.893-1.24 3.16-1.24 1.267 0 2.313.413 3.14 1.24.84.827 1.26 1.873 1.26 3.14 0 1.253-.42 2.293-1.26 3.12zm-1.08-5.4c-.56-.547-1.247-.82-2.06-.82s-1.507.28-2.08.84c-.56.547-.84 1.3-.84 2.26 0 .96.287 1.713.86 2.26.573.547 1.26.82 2.06.82s1.487-.273 2.06-.82c.573-.547.86-1.3.86-2.26 0-.973-.287-1.733-.86-2.28zm4.548-1.9h3.14c.76 0 1.34.16 1.74.48.48.387.72.907.72 1.56 0 .72-.3 1.273-.9 1.66.414.107.76.293 1.04.56.44.427.66.96.66 1.6 0 .8-.286 1.427-.86 1.88-.493.373-1.146.56-1.96.56h-3.58v-8.3zm1.44 3.38h1.52c.387 0 .694-.08.92-.24.267-.2.4-.487.4-.86a.95.95 0 00-.4-.8c-.2-.133-.586-.2-1.16-.2h-1.28v2.1zm0 3.64h1.78c.614 0 1.047-.093 1.3-.28.32-.24.48-.547.48-.92 0-.4-.14-.713-.42-.94-.253-.2-.686-.3-1.3-.3h-1.84v2.44zm7.154 1.28v-8.3h1.44v3.18h1.48c1.147 0 1.987.273 2.52.82.427.427.64 1.007.64 1.74 0 .773-.247 1.393-.74 1.86-.493.467-1.307.7-2.44.7h-2.9zm1.44-1.28h1.34c.6 0 1.027-.073 1.28-.22.36-.24.54-.593.54-1.06 0-.48-.173-.827-.52-1.04-.24-.16-.667-.24-1.28-.24h-1.36v2.56zm5.64 1.28v-8.3h1.44v8.3h-1.44zm4.15-8.3h1.44v5.48l5.68-6.12V315h-1.44v-5.54l-5.68 6.12v-8.88zm.72-3.58l1.2-.46c.24.8.807 1.2 1.7 1.2.894 0 1.46-.4 1.7-1.2l1.2.46a2.78 2.78 0 01-1.1 1.42c-.506.347-1.106.52-1.8.52-.693 0-1.3-.173-1.82-.52a2.816 2.816 0 01-1.08-1.42zm13.792 3.58h6.68v8.3h-1.44v-6.98h-3.8V315h-1.44v-8.3zm10.835 7.14v5.76h-1.44v-12.9h1.44v1.16c.733-.907 1.68-1.36 2.84-1.36 1.24 0 2.22.44 2.94 1.32.733.867 1.1 1.893 1.1 3.08 0 1.2-.36 2.227-1.08 3.08-.72.84-1.687 1.26-2.9 1.26-1.214 0-2.18-.467-2.9-1.4zm2.7.12c.813 0 1.466-.293 1.96-.88.493-.6.74-1.327.74-2.18 0-.96-.274-1.72-.82-2.28-.547-.56-1.18-.84-1.9-.84s-1.36.28-1.92.84c-.56.56-.84 1.313-.84 2.26 0 .867.253 1.6.76 2.2.52.587 1.193.88 2.02.88zm13.407.04c-.827.827-1.873 1.24-3.14 1.24-1.267 0-2.32-.413-3.16-1.24-.827-.827-1.24-1.867-1.24-3.12 0-1.267.413-2.313 1.24-3.14.84-.827 1.893-1.24 3.16-1.24 1.267 0 2.313.413 3.14 1.24.84.827 1.26 1.873 1.26 3.14 0 1.253-.42 2.293-1.26 3.12zm-1.08-5.4c-.56-.547-1.247-.82-2.06-.82s-1.507.28-2.08.84c-.56.547-.84 1.3-.84 2.26 0 .96.287 1.713.86 2.26.573.547 1.26.82 2.06.82s1.487-.273 2.06-.82c.573-.547.86-1.3.86-2.26 0-.973-.287-1.733-.86-2.28zm4.548-1.9h1.44v5.48l5.68-6.12V315h-1.44v-5.54l-5.68 6.12v-8.88zm9.844 8.3v-8.3h4.92v1.32h-3.48V315h-1.44zm7.807-1.16v5.76h-1.44v-12.9h1.44v1.16c.734-.907 1.68-1.36 2.84-1.36 1.24 0 2.22.44 2.94 1.32.734.867 1.1 1.893 1.1 3.08 0 1.2-.36 2.227-1.08 3.08-.72.84-1.686 1.26-2.9 1.26-1.213 0-2.18-.467-2.9-1.4zm2.7.12c.814 0 1.467-.293 1.96-.88.494-.6.74-1.327.74-2.18 0-.96-.273-1.72-.82-2.28-.546-.56-1.18-.84-1.9-.84s-1.36.28-1.92.84c-.56.56-.84 1.313-.84 2.26 0 .867.254 1.6.76 2.2.52.587 1.194.88 2.02.88zm6.388 1.04v-8.3h1.44v3.18h1.48c1.146 0 1.986.273 2.52.82.426.427.64 1.007.64 1.74 0 .773-.247 1.393-.74 1.86-.494.467-1.307.7-2.44.7h-2.9zm1.44-1.28h1.34c.6 0 1.026-.073 1.28-.22.36-.24.54-.593.54-1.06 0-.48-.174-.827-.52-1.04-.24-.16-.667-.24-1.28-.24h-1.36v2.56zm5.64 1.28v-8.3h1.44v8.3h-1.44zm4.15-8.3h3.14c.76 0 1.34.16 1.74.48.48.387.72.907.72 1.56 0 .72-.3 1.273-.9 1.66.413.107.76.293 1.04.56.44.427.66.96.66 1.6 0 .8-.287 1.427-.86 1.88-.493.373-1.147.56-1.96.56h-3.58v-8.3zm1.44 3.38h1.52c.387 0 .693-.08.92-.24.267-.2.4-.487.4-.86a.95.95 0 00-.4-.8c-.2-.133-.587-.2-1.16-.2h-1.28v2.1zm0 3.64h1.78c.613 0 1.047-.093 1.3-.28.32-.24.48-.547.48-.92 0-.4-.14-.713-.42-.94-.253-.2-.687-.3-1.3-.3h-1.84v2.44zm13.514-5.84v-1.18H180v8.3h-1.44v-1.16c-.72.933-1.667 1.4-2.84 1.4-1.12 0-2.073-.387-2.86-1.16-.787-.773-1.18-1.853-1.18-3.24 0-1.36.387-2.42 1.16-3.18.787-.773 1.747-1.16 2.88-1.16 1.2 0 2.147.46 2.84 1.38zm-2.68-.1c-.76 0-1.407.273-1.94.82-.52.533-.78 1.28-.78 2.24 0 .92.24 1.673.72 2.26.493.573 1.16.86 2 .86.84 0 1.507-.3 2-.9.507-.6.76-1.333.76-2.2 0-.987-.28-1.747-.84-2.28-.56-.533-1.2-.8-1.92-.8zm12.287.24h-2.6V315h-1.44v-6.98h-2.6v-1.32h6.64v1.32zm7.478 4.2l1.2.66c-.28.533-.62.98-1.02 1.34-.76.68-1.68 1.02-2.76 1.02-1.12 0-2.087-.36-2.9-1.08-.8-.733-1.2-1.82-1.2-3.26 0-1.267.36-2.313 1.08-3.14.733-.84 1.713-1.26 2.94-1.26 1.387 0 2.433.507 3.14 1.52.56.8.82 1.84.78 3.12h-6.46c.013.84.273 1.52.78 2.04s1.127.78 1.86.78c.653 0 1.22-.2 1.7-.6.373-.32.66-.7.86-1.14zm-5.1-2.28h4.88c-.12-.653-.407-1.173-.86-1.56-.44-.4-.967-.6-1.58-.6-.6 0-1.133.207-1.6.62-.453.4-.733.913-.84 1.54zm14.849-3.24v8.3h-1.44v-6.98h-2.96v3.74c0 1.08-.213 1.88-.64 2.4-.48.587-1.147.88-2 .88-.107 0-.253-.013-.44-.04v-1.32c.133.027.24.04.32.04.467 0 .813-.18 1.04-.54.187-.293.28-.767.28-1.42v-5.06h5.84zm2.724 8.3v-8.3h1.44v3.18h1.48c1.146 0 1.986.273 2.52.82.426.427.64 1.007.64 1.74 0 .773-.247 1.393-.74 1.86-.494.467-1.307.7-2.44.7h-2.9zm1.44-1.28h1.34c.6 0 1.026-.073 1.28-.22.36-.24.54-.593.54-1.06 0-.48-.174-.827-.52-1.04-.24-.16-.667-.24-1.28-.24h-1.36v2.56z" fill="#A89365"/><path fill="#fff" d="M82 631h80v225H82z"/><path fill-rule="evenodd" clip-rule="evenodd" d="M144 814V633h-44v181h44zm-46 2h48V631H98v185zm23.5-135a7.5 7.5 0 110 15 7.5 7.5 0 010-15zm.5 29c6.075 0 11 4.925 11 11s-4.925 11-11 11-11-4.925-11-11 4.925-11 11-11zm0-2c7.18 0 13 5.82 13 13s-5.82 13-13 13-13-5.82-13-13 5.82-13 13-13zm11 45c0-6.075-4.925-11-11-11s-11 4.925-11 11 4.925 11 11 11 11-4.925 11-11zm2 0c0-7.18-5.82-13-13-13s-13 5.82-13 13 5.82 13 13 13 13-5.82 13-13z" fill="#575757"/><path d="M85.353 834.66h8.12V848h-1.48v-11.94h-5.16v7.16c0 .627-.006 1.1-.02 1.42-.013.307-.12.747-.32 1.32-.186.56-.473 1.013-.86 1.36-.6.533-1.36.8-2.28.8-.213 0-.48-.04-.8-.12v-1.4c.267.08.514.12.74.12.52 0 .954-.173 1.3-.52.24-.24.42-.58.54-1.02.12-.453.187-.833.2-1.14.014-.307.02-.78.02-1.42v-7.96zm17.37 10.56l1.2.66c-.28.533-.62.98-1.02 1.34-.76.68-1.68 1.02-2.76 1.02-1.12 0-2.087-.36-2.9-1.08-.8-.733-1.2-1.82-1.2-3.26 0-1.267.36-2.313 1.08-3.14.733-.84 1.713-1.26 2.94-1.26 1.387 0 2.433.507 3.14 1.52.56.8.82 1.84.78 3.12h-6.46c.014.84.273 1.52.78 2.04s1.127.78 1.86.78c.653 0 1.22-.2 1.7-.6.373-.32.66-.7.86-1.14zm-5.1-2.28h4.88c-.12-.653-.407-1.173-.86-1.56-.44-.4-.967-.6-1.58-.6-.6 0-1.133.207-1.6.62a2.56 2.56 0 00-.84 1.54zm8.569-3.24h3.14c.76 0 1.34.16 1.74.48.48.387.72.907.72 1.56 0 .72-.3 1.273-.9 1.66.413.107.76.293 1.04.56.44.427.66.96.66 1.6 0 .8-.287 1.427-.86 1.88-.493.373-1.147.56-1.96.56h-3.58v-8.3zm1.44 3.38h1.52c.387 0 .693-.08.92-.24.267-.2.4-.487.4-.86a.95.95 0 00-.4-.8c-.2-.133-.587-.2-1.16-.2h-1.28v2.1zm0 3.64h1.78c.613 0 1.047-.093 1.3-.28.32-.24.48-.547.48-.92 0-.4-.14-.713-.42-.94-.253-.2-.687-.3-1.3-.3h-1.84v2.44zm13.514-5.84v-1.18h1.44v8.3h-1.44v-1.16c-.72.933-1.667 1.4-2.84 1.4-1.12 0-2.074-.387-2.86-1.16-.787-.773-1.18-1.853-1.18-3.24 0-1.36.386-2.42 1.16-3.18.786-.773 1.746-1.16 2.88-1.16 1.2 0 2.146.46 2.84 1.38zm-2.68-.1c-.76 0-1.407.273-1.94.82-.52.533-.78 1.28-.78 2.24 0 .92.24 1.673.72 2.26.493.573 1.16.86 2 .86.84 0 1.506-.3 2-.9.506-.6.76-1.333.76-2.2 0-.987-.28-1.747-.84-2.28-.56-.533-1.2-.8-1.92-.8zm5.887 7.22l2.58-3.42c-.08 0-.193-.013-.34-.04a3.854 3.854 0 01-.6-.2 1.938 1.938 0 01-.66-.42c-.44-.413-.66-.967-.66-1.66 0-.787.247-1.407.74-1.86.493-.467 1.307-.7 2.44-.7h2.9v8.3h-1.44v-3.34h-.88l-2.36 3.34h-1.72zm4.96-4.54v-2.48h-1.34c-.627 0-1.06.073-1.3.22-.347.227-.52.567-.52 1.02 0 .453.173.787.52 1 .253.16.68.24 1.28.24h1.36zm18.112 4.54l-1.56-3.76h-5.68l-1.6 3.76h-1.64l6.14-13.98 5.98 13.98h-1.64zm-6.66-5.16h4.52l-2.24-5.34-2.28 5.34zm19.952-7.08v1.84a6.13 6.13 0 00-1.74-1.24 5.492 5.492 0 00-2.3-.52c-1.533 0-2.813.54-3.84 1.62-1.013 1.067-1.52 2.38-1.52 3.94 0 1.68.553 3.007 1.66 3.98 1.12.973 2.36 1.46 3.72 1.46.853 0 1.68-.207 2.48-.62a5.907 5.907 0 001.54-1.12v1.84c-1.213.867-2.553 1.3-4.02 1.3-1.973 0-3.62-.66-4.94-1.98-1.307-1.32-1.96-2.947-1.96-4.88 0-1.987.66-3.64 1.98-4.96 1.333-1.32 3-1.98 5-1.98 1.467 0 2.78.44 3.94 1.32z" fill="#A89365"/><path fill="#fff" d="M582 631h92v225h-92z"/><path fill-rule="evenodd" clip-rule="evenodd" d="M650 814V633h-44v181h44zm-46 2h48V631h-48v185zm23.5-135a7.5 7.5 0 110 15 7.5 7.5 0 010-15zm.5 29c6.075 0 11 4.925 11 11s-4.925 11-11 11-11-4.925-11-11 4.925-11 11-11zm0-2c7.18 0 13 5.82 13 13s-5.82 13-13 13-13-5.82-13-13 5.82-13 13-13zm11 45c0-6.075-4.925-11-11-11s-11 4.925-11 11 4.925 11 11 11 11-4.925 11-11zm2 0c0-7.18-5.82-13-13-13s-13 5.82-13 13 5.82 13 13 13 13-5.82 13-13z" fill="#575757"/><path d="M584.124 834.66h9.8V848h-1.48v-11.94h-6.84V848h-1.48v-13.34zm14.322 12.18v5.76h-1.44v-12.9h1.44v1.16c.734-.907 1.68-1.36 2.84-1.36 1.24 0 2.22.44 2.94 1.32.734.867 1.1 1.893 1.1 3.08 0 1.2-.36 2.227-1.08 3.08-.72.84-1.686 1.26-2.9 1.26-1.213 0-2.18-.467-2.9-1.4zm2.7.12c.814 0 1.467-.293 1.96-.88.494-.6.74-1.327.74-2.18 0-.96-.273-1.72-.82-2.28-.546-.56-1.18-.84-1.9-.84s-1.36.28-1.92.84c-.56.56-.84 1.313-.84 2.26 0 .867.254 1.6.76 2.2.52.587 1.194.88 2.02.88zm12.748-6.08v-1.18h1.44v8.3h-1.44v-1.16c-.72.933-1.667 1.4-2.84 1.4-1.12 0-2.074-.387-2.86-1.16-.787-.773-1.18-1.853-1.18-3.24 0-1.36.386-2.42 1.16-3.18.786-.773 1.746-1.16 2.88-1.16 1.2 0 2.146.46 2.84 1.38zm-2.68-.1c-.76 0-1.407.273-1.94.82-.52.533-.78 1.28-.78 2.24 0 .92.24 1.673.72 2.26.493.573 1.16.86 2 .86.84 0 1.506-.3 2-.9.506-.6.76-1.333.76-2.2 0-.987-.28-1.747-.84-2.28-.56-.533-1.2-.8-1.92-.8zm6.847-1.08h3.14c.76 0 1.34.16 1.74.48.48.387.72.907.72 1.56 0 .72-.3 1.273-.9 1.66.414.107.76.293 1.04.56.44.427.66.96.66 1.6 0 .8-.286 1.427-.86 1.88-.493.373-1.146.56-1.96.56h-3.58v-8.3zm1.44 3.38h1.52c.387 0 .694-.08.92-.24.267-.2.4-.487.4-.86a.95.95 0 00-.4-.8c-.2-.133-.586-.2-1.16-.2h-1.28v2.1zm0 3.64h1.78c.614 0 1.047-.093 1.3-.28.32-.24.48-.547.48-.92 0-.4-.14-.713-.42-.94-.253-.2-.686-.3-1.3-.3h-1.84v2.44zm13.514-5.84v-1.18h1.44v8.3h-1.44v-1.16c-.72.933-1.667 1.4-2.84 1.4-1.12 0-2.073-.387-2.86-1.16-.787-.773-1.18-1.853-1.18-3.24 0-1.36.387-2.42 1.16-3.18.787-.773 1.747-1.16 2.88-1.16 1.2 0 2.147.46 2.84 1.38zm-2.68-.1c-.76 0-1.407.273-1.94.82-.52.533-.78 1.28-.78 2.24 0 .92.24 1.673.72 2.26.493.573 1.16.86 2 .86.84 0 1.507-.3 2-.9.507-.6.76-1.333.76-2.2 0-.987-.28-1.747-.84-2.28-.56-.533-1.2-.8-1.92-.8zm5.887 7.22l2.58-3.42c-.08 0-.193-.013-.34-.04a3.854 3.854 0 01-.6-.2 1.958 1.958 0 01-.66-.42c-.44-.413-.66-.967-.66-1.66 0-.787.247-1.407.74-1.86.494-.467 1.307-.7 2.44-.7h2.9v8.3h-1.44v-3.34h-.88l-2.36 3.34h-1.72zm4.96-4.54v-2.48h-1.34c-.626 0-1.06.073-1.3.22-.346.227-.52.567-.52 1.02 0 .453.174.787.52 1 .254.16.68.24 1.28.24h1.36zm18.112 4.54l-1.56-3.76h-5.68l-1.6 3.76h-1.64l6.14-13.98 5.98 13.98h-1.64zm-6.66-5.16h4.52l-2.24-5.34-2.28 5.34zm19.952-7.08v1.84a6.13 6.13 0 00-1.74-1.24 5.492 5.492 0 00-2.3-.52c-1.533 0-2.813.54-3.84 1.62-1.013 1.067-1.52 2.38-1.52 3.94 0 1.68.553 3.007 1.66 3.98 1.12.973 2.36 1.46 3.72 1.46.853 0 1.68-.207 2.48-.62a5.907 5.907 0 001.54-1.12v1.84c-1.213.867-2.553 1.3-4.02 1.3-1.973 0-3.62-.66-4.94-1.98-1.307-1.32-1.96-2.947-1.96-4.88 0-1.987.66-3.64 1.98-4.96 1.333-1.32 3-1.98 5-1.98 1.467 0 2.78.44 3.94 1.32z" fill="#A89365"/><path fill="#fff" d="M726 631h163v126H726z"/><mask id="c" fill="#fff"><path fill-rule="evenodd" clip-rule="evenodd" d="M849 633h-84v76h84v-76zm-84-2h-2v80h6v6h17.996v-6H827v6h17.996v-6H851v-80h-86zm9 14a3 3 0 100-6 3 3 0 000 6zm66 0a3 3 0 100-6 3 3 0 000 6zm-7 27c0 14.359-11.641 26-26 26s-26-11.641-26-26 11.641-26 26-26 26 11.641 26 26zm2 0c0 15.464-12.536 28-28 28s-28-12.536-28-28 12.536-28 28-28 28 12.536 28 28zm-58 28a3 3 0 11-6 0 3 3 0 016 0zm63 3a3 3 0 100-6 3 3 0 000 6z"/></mask><path fill-rule="evenodd" clip-rule="evenodd" d="M849 633h-84v76h84v-76zm-84-2h-2v80h6v6h17.996v-6H827v6h17.996v-6H851v-80h-86zm9 14a3 3 0 100-6 3 3 0 000 6zm66 0a3 3 0 100-6 3 3 0 000 6zm-7 27c0 14.359-11.641 26-26 26s-26-11.641-26-26 11.641-26 26-26 26 11.641 26 26zm2 0c0 15.464-12.536 28-28 28s-28-12.536-28-28 12.536-28 28-28 28 12.536 28 28zm-58 28a3 3 0 11-6 0 3 3 0 016 0zm63 3a3 3 0 100-6 3 3 0 000 6z" fill="#575757"/><path d="M765 633v-1h-1v1h1zm84 0h1v-1h-1v1zm-84 76h-1v1h1v-1zm84 0v1h1v-1h-1zm-86-78v-1h-1v1h1zm0 80h-1v1h1v-1zm6 0h1v-1h-1v1zm0 6h-1v1h1v-1zm17.996 0v1h1v-1h-1zm0-6v-1h-1v1h1zM827 711h1v-1h-1v1zm0 6h-1v1h1v-1zm17.996 0v1h1v-1h-1zm0-6v-1h-1v1h1zm6.004 0v1h1v-1h-1zm0-80h1v-1h-1v1zm-86 3h84v-2h-84v2zm1 75v-76h-2v76h2zm83-1h-84v2h84v-2zm-1-75v76h2v-76h-2zm-85-1h2v-2h-2v2zm1 1v-2h-2v2h2zm0 76v-76h-2v76h2zm0 2v-2h-2v2h2zm1-1h-2v2h2v-2zm4 0h-4v2h4v-2zm1 7v-6h-2v6h2zm16.996-1H769v2h17.996v-2zm-1-5v6h2v-6h-2zM827 710h-40.004v2H827v-2zm1 7v-6h-2v6h2zm16.996-1H827v2h17.996v-2zm-1-5v6h2v-6h-2zm5.004-1h-4.004v2H849v-2zm2 0h-2v2h2v-2zm-1-1v2h2v-2h-2zm0-76v76h2v-76h-2zm0-2v2h2v-2h-2zm-1 1h2v-2h-2v2zm-84 0h84v-2h-84v2zm11 10a2 2 0 01-2 2v2a4 4 0 004-4h-2zm-2-2a2 2 0 012 2h2a4 4 0 00-4-4v2zm-2 2a2 2 0 012-2v-2a4 4 0 00-4 4h2zm2 2a2 2 0 01-2-2h-2a4 4 0 004 4v-2zm68-2a2 2 0 01-2 2v2a4 4 0 004-4h-2zm-2-2a2 2 0 012 2h2a4 4 0 00-4-4v2zm-2 2a2 2 0 012-2v-2a4 4 0 00-4 4h2zm2 2a2 2 0 01-2-2h-2a4 4 0 004 4v-2zm-33 55c14.912 0 27-12.088 27-27h-2c0 13.807-11.193 25-25 25v2zm-27-27c0 14.912 12.088 27 27 27v-2c-13.807 0-25-11.193-25-25h-2zm27-27c-14.912 0-27 12.088-27 27h2c0-13.807 11.193-25 25-25v-2zm27 27c0-14.912-12.088-27-27-27v2c13.807 0 25 11.193 25 25h2zm-27 29c16.016 0 29-12.984 29-29h-2c0 14.912-12.088 27-27 27v2zm-29-29c0 16.016 12.984 29 29 29v-2c-14.912 0-27-12.088-27-27h-2zm29-29c-16.016 0-29 12.984-29 29h2c0-14.912 12.088-27 27-27v-2zm29 29c0-16.016-12.984-29-29-29v2c14.912 0 27 12.088 27 27h2zm-62 32a4 4 0 004-4h-2a2 2 0 01-2 2v2zm-4-4a4 4 0 004 4v-2a2 2 0 01-2-2h-2zm4-4a4 4 0 00-4 4h2a2 2 0 012-2v-2zm4 4a4 4 0 00-4-4v2a2 2 0 012 2h2zm64 0a2 2 0 01-2 2v2a4 4 0 004-4h-2zm-2-2a2 2 0 012 2h2a4 4 0 00-4-4v2zm-2 2a2 2 0 012-2v-2a4 4 0 00-4 4h2zm2 2a2 2 0 01-2-2h-2a4 4 0 004 4v-2z" fill="#575757" mask="url(#c)"/><path d="M737.007 749l-1.56-3.76h-5.68l-1.6 3.76h-1.64l6.14-13.98 5.98 13.98h-1.64zm-6.66-5.16h4.52l-2.24-5.34-2.28 5.34zm9.822-3.14h1.44v3.4l3.36-3.4h1.76l-3.6 3.7 4.04 4.6h-1.88l-3.24-3.64-.44.42V749h-1.44v-8.3zm13.877 1.32h-2.6V749h-1.44v-6.98h-2.6v-1.32h6.64v1.32zm1.513-1.32h1.44v5.48l5.68-6.12V749h-1.44v-5.54l-5.68 6.12v-8.88zm9.844 0h3.14c.76 0 1.34.16 1.74.48.48.387.72.907.72 1.56 0 .72-.3 1.273-.9 1.66.413.107.76.293 1.04.56.44.427.66.96.66 1.6 0 .8-.287 1.427-.86 1.88-.493.373-1.147.56-1.96.56h-3.58v-8.3zm1.44 3.38h1.52c.387 0 .693-.08.92-.24.267-.2.4-.487.4-.86a.95.95 0 00-.4-.8c-.2-.133-.587-.2-1.16-.2h-1.28v2.1zm0 3.64h1.78c.613 0 1.047-.093 1.3-.28.32-.24.48-.547.48-.92 0-.4-.14-.713-.42-.94-.253-.2-.687-.3-1.3-.3h-1.84v2.44zm7.154 1.28v-8.3h1.44v3.4h3.92v-3.4h1.44v8.3h-1.44v-3.58h-3.92V749h-1.44zm9.511 0v-8.3h1.44v3.18h1.48c1.147 0 1.987.273 2.52.82.427.427.64 1.007.64 1.74 0 .773-.246 1.393-.74 1.86-.493.467-1.306.7-2.44.7h-2.9zm1.44-1.28h1.34c.6 0 1.027-.073 1.28-.22.36-.24.54-.593.54-1.06 0-.48-.173-.827-.52-1.04-.24-.16-.666-.24-1.28-.24h-1.36v2.56zm5.64 1.28v-8.3h1.44v8.3h-1.44zm4.151-8.3h1.44v5.48l5.68-6.12V749h-1.44v-5.54l-5.68 6.12v-8.88zm.72-3.58l1.2-.46c.24.8.807 1.2 1.7 1.2.893 0 1.46-.4 1.7-1.2l1.2.46a2.78 2.78 0 01-1.1 1.42c-.507.347-1.107.52-1.8.52-.693 0-1.3-.173-1.82-.52a2.813 2.813 0 01-1.08-1.42zm20.292 4.18v1.72c-.654-.827-1.52-1.24-2.6-1.24-.814 0-1.507.28-2.08.84-.574.547-.86 1.3-.86 2.26 0 .96.286 1.713.86 2.26.573.547 1.26.82 2.06.82 1.066 0 1.96-.433 2.68-1.3v1.72a4.379 4.379 0 01-2.64.86c-1.294 0-2.36-.407-3.2-1.22-.827-.827-1.24-1.867-1.24-3.12 0-1.267.42-2.313 1.26-3.14.84-.84 1.9-1.26 3.18-1.26.96 0 1.82.267 2.58.8zm8.629.58v-1.18h1.44v8.3h-1.44v-1.16c-.72.933-1.667 1.4-2.84 1.4-1.12 0-2.073-.387-2.86-1.16-.787-.773-1.18-1.853-1.18-3.24 0-1.36.387-2.42 1.16-3.18.787-.773 1.747-1.16 2.88-1.16 1.2 0 2.147.46 2.84 1.38zm-2.68-.1c-.76 0-1.407.273-1.94.82-.52.533-.78 1.28-.78 2.24 0 .92.24 1.673.72 2.26.493.573 1.16.86 2 .86.84 0 1.507-.3 2-.9.507-.6.76-1.333.76-2.2 0-.987-.28-1.747-.84-2.28-.56-.533-1.2-.8-1.92-.8zm13.248-6.78h1.6c-.147.493-.4.913-.76 1.26-.347.333-.667.56-.96.68-.28.12-.614.227-1 .32-.067.013-.227.053-.48.12-.254.053-.447.1-.58.14-.134.04-.307.093-.52.16a3.312 3.312 0 00-.58.24 4.001 4.001 0 00-.48.3c-.507.387-.92.927-1.24 1.62a5.713 5.713 0 00-.5 2.18h.04c.6-1.013 1.606-1.52 3.02-1.52 1.24 0 2.266.42 3.08 1.26.826.84 1.24 1.88 1.24 3.12 0 1.253-.42 2.293-1.26 3.12-.84.827-1.934 1.24-3.28 1.24-1.16 0-2.114-.347-2.86-1.04-.934-.853-1.4-2.28-1.4-4.28 0-3.48.786-5.76 2.36-6.84.12-.08.246-.153.38-.22.133-.08.273-.147.42-.2.16-.067.293-.12.4-.16.106-.053.253-.1.44-.14.2-.053.333-.087.4-.1.08-.027.226-.06.44-.1l.42-.1c.533-.12.92-.26 1.16-.42.24-.173.406-.387.5-.64zm-.46 7.6c-.56-.547-1.247-.82-2.06-.82-.814 0-1.507.28-2.08.84-.56.547-.84 1.3-.84 2.26 0 .96.286 1.713.86 2.26.573.547 1.26.82 2.06.82s1.486-.273 2.06-.82c.573-.547.86-1.3.86-2.26 0-.973-.287-1.733-.86-2.28zm4.548-1.9h3.14c.76 0 1.34.16 1.74.48.48.387.72.907.72 1.56 0 .72-.3 1.273-.9 1.66.413.107.76.293 1.04.56.44.427.66.96.66 1.6 0 .8-.287 1.427-.86 1.88-.494.373-1.147.56-1.96.56h-3.58v-8.3zm1.44 3.38h1.52c.386 0 .693-.08.92-.24.266-.2.4-.487.4-.86 0-.333-.134-.6-.4-.8-.2-.133-.587-.2-1.16-.2h-1.28v2.1zm0 3.64h1.78c.613 0 1.046-.093 1.3-.28.32-.24.48-.547.48-.92 0-.4-.14-.713-.42-.94-.254-.2-.687-.3-1.3-.3h-1.84v2.44zm7.134 5.88l2.64-5.38-3.82-7.52h1.64l2.94 5.94 2.7-5.94h1.6l-6.1 12.9h-1.6zm13.639 0v-4.46c-1.454 0-2.62-.36-3.5-1.08-.96-.773-1.44-1.847-1.44-3.22 0-1.36.473-2.427 1.42-3.2.853-.72 2.026-1.08 3.52-1.08v-4.9h1.44v4.9c1.493 0 2.666.36 3.52 1.08.946.773 1.42 1.84 1.42 3.2 0 1.373-.48 2.447-1.44 3.22-.88.72-2.047 1.08-3.5 1.08v4.46h-1.44zm0-5.74v-6.02c-.947 0-1.687.173-2.22.52-.827.52-1.24 1.347-1.24 2.48 0 1.067.386 1.873 1.16 2.42.56.4 1.326.6 2.3.6zm1.44-6.02v6.02c.973 0 1.74-.2 2.3-.6.773-.547 1.16-1.353 1.16-2.42 0-1.133-.414-1.96-1.24-2.48-.534-.347-1.274-.52-2.22-.52zm13.308 4.38l1.2.66c-.28.533-.62.98-1.02 1.34-.76.68-1.68 1.02-2.76 1.02-1.12 0-2.087-.36-2.9-1.08-.8-.733-1.2-1.82-1.2-3.26 0-1.267.36-2.313 1.08-3.14.733-.84 1.713-1.26 2.94-1.26 1.386 0 2.433.507 3.14 1.52.56.8.82 1.84.78 3.12h-6.46c.013.84.273 1.52.78 2.04.506.52 1.126.78 1.86.78.653 0 1.22-.2 1.7-.6.373-.32.66-.7.86-1.14zm-5.1-2.28h4.88c-.12-.653-.407-1.173-.86-1.56-.44-.4-.967-.6-1.58-.6-.6 0-1.134.207-1.6.62-.454.4-.734.913-.84 1.54zm10.008 3.9v5.76h-1.44v-12.9h1.44v1.16c.734-.907 1.68-1.36 2.84-1.36 1.24 0 2.22.44 2.94 1.32.734.867 1.1 1.893 1.1 3.08 0 1.2-.36 2.227-1.08 3.08-.72.84-1.686 1.26-2.9 1.26-1.213 0-2.18-.467-2.9-1.4zm2.7.12c.814 0 1.467-.293 1.96-.88.494-.6.74-1.327.74-2.18 0-.96-.273-1.72-.82-2.28-.546-.56-1.18-.84-1.9-.84s-1.36.28-1.92.84c-.56.56-.84 1.313-.84 2.26 0 .867.254 1.6.76 2.2.52.587 1.194.88 2.02.88zM643 58h2v-2h-2v2zm-1.414 104.414a2 2 0 002.828 0l12.728-12.728a2 2 0 10-2.828-2.828L643 158.172l-11.314-11.314a2 2 0 10-2.828 2.828l12.728 12.728zM554 56a2 2 0 100 4v-4zm87 2v103h4V58h-4zm2-2h-89v4h89v-4z" fill="#A89365"/><path d="M686 161V40H554" stroke="#A89365" stroke-width="2" stroke-linecap="round" stroke-linejoin="round" stroke-dasharray="10 10"/><path d="M808 481h2v-2h-2v2zm-1.414 139.414a2 2 0 002.828 0l12.728-12.728a2 2 0 10-2.828-2.828L808 616.172l-11.314-11.314a2 2 0 10-2.828 2.828l12.728 12.728zM502 479a2 2 0 100 4v-4zm304 2v138h4V481h-4zm2-2H502v4h306v-4zm-180 24h2v-2h-2v2zm-1.414 112.414a2 2 0 002.828 0l12.728-12.728a2 2 0 10-2.828-2.828L628 611.172l-11.314-11.314a2 2 0 10-2.828 2.828l12.728 12.728zM502 501a2 2 0 100 4v-4zm124 2v111h4V503h-4zm2-2H502v4h126v-4zm-506 2h-2v-2h2v2zm1.414 112.414a2 2 0 01-2.828 0l-12.728-12.728a2 2 0 112.828-2.828L122 611.172l11.314-11.314a2 2 0 112.828 2.828l-12.728 12.728zM248 501a2 2 0 110 4v-4zm-124 2v111h-4V503h4zm-2-2h126v4H122v-4z" fill="#A89365"/><path d="M107 337v42h536m226-61v61H643m0-90v90" stroke="#A89365" stroke-width="4" stroke-linecap="round"/><path d="M373.586 448.414a2 2 0 002.828 0l12.728-12.728a2 2 0 10-2.828-2.828L375 444.172l-11.314-11.314a2 2 0 10-2.828 2.828l12.728 12.728zM377 289a2 2 0 10-4 0h4zm0 158V289h-4v158h4z" fill="#A89365"/></svg>