<svg width="938" height="856" viewBox="0 0 938 856" fill="none" xmlns="http://www.w3.org/2000/svg">
<rect width="185" height="89" transform="translate(551 185)" fill="white"/>
<mask id="path-1-inside-1" fill="white">
<path fill-rule="evenodd" clip-rule="evenodd" d="M553 187H734V225H553V187ZM551 185H553H734H736V187V225V227H734H728.554V234H706.554V227H582.447V234H560.447V227H553H551V225V187V185ZM679 194H608V217H679V194ZM727 214.5C727 215.881 725.881 217 724.5 217C723.119 217 722 215.881 722 214.5C722 213.119 723.119 212 724.5 212C725.881 212 727 213.119 727 214.5ZM562.5 217C563.881 217 565 215.881 565 214.5C565 213.119 563.881 212 562.5 212C561.119 212 560 213.119 560 214.5C560 215.881 561.119 217 562.5 217ZM703 214.5C703 215.881 701.881 217 700.5 217C699.119 217 698 215.881 698 214.5C698 213.119 699.119 212 700.5 212C701.881 212 703 213.119 703 214.5ZM595.5 217C596.881 217 598 215.881 598 214.5C598 213.119 596.881 212 595.5 212C594.119 212 593 213.119 593 214.5C593 215.881 594.119 217 595.5 217ZM694 214.5C694 215.881 692.881 217 691.5 217C690.119 217 689 215.881 689 214.5C689 213.119 690.119 212 691.5 212C692.881 212 694 213.119 694 214.5ZM586.5 217C587.881 217 589 215.881 589 214.5C589 213.119 587.881 212 586.5 212C585.119 212 584 213.119 584 214.5C584 215.881 585.119 217 586.5 217Z"/>
</mask>
<path fill-rule="evenodd" clip-rule="evenodd" d="M553 187H734V225H553V187ZM551 185H553H734H736V187V225V227H734H728.554V234H706.554V227H582.447V234H560.447V227H553H551V225V187V185ZM679 194H608V217H679V194ZM727 214.5C727 215.881 725.881 217 724.5 217C723.119 217 722 215.881 722 214.5C722 213.119 723.119 212 724.5 212C725.881 212 727 213.119 727 214.5ZM562.5 217C563.881 217 565 215.881 565 214.5C565 213.119 563.881 212 562.5 212C561.119 212 560 213.119 560 214.5C560 215.881 561.119 217 562.5 217ZM703 214.5C703 215.881 701.881 217 700.5 217C699.119 217 698 215.881 698 214.5C698 213.119 699.119 212 700.5 212C701.881 212 703 213.119 703 214.5ZM595.5 217C596.881 217 598 215.881 598 214.5C598 213.119 596.881 212 595.5 212C594.119 212 593 213.119 593 214.5C593 215.881 594.119 217 595.5 217ZM694 214.5C694 215.881 692.881 217 691.5 217C690.119 217 689 215.881 689 214.5C689 213.119 690.119 212 691.5 212C692.881 212 694 213.119 694 214.5ZM586.5 217C587.881 217 589 215.881 589 214.5C589 213.119 587.881 212 586.5 212C585.119 212 584 213.119 584 214.5C584 215.881 585.119 217 586.5 217Z" fill="#575757"/>
<path d="M734 187H735V186H734V187ZM553 187V186H552V187H553ZM734 225V226H735V225H734ZM553 225H552V226H553V225ZM551 185V184H550V185H551ZM736 185H737V184H736V185ZM736 227V228H737V227H736ZM728.554 227V226H727.554V227H728.554ZM728.554 234V235H729.554V234H728.554ZM706.554 234H705.554V235H706.554V234ZM706.554 227H707.554V226H706.554V227ZM582.447 227V226H581.447V227H582.447ZM582.447 234V235H583.447V234H582.447ZM560.447 234H559.447V235H560.447V234ZM560.447 227H561.447V226H560.447V227ZM551 227H550V228H551V227ZM608 194V193H607V194H608ZM679 194H680V193H679V194ZM608 217H607V218H608V217ZM679 217V218H680V217H679ZM734 186H553V188H734V186ZM735 225V187H733V225H735ZM553 226H734V224H553V226ZM552 187V225H554V187H552ZM553 184H551V186H553V184ZM734 184H553V186H734V184ZM736 184H734V186H736V184ZM737 187V185H735V187H737ZM737 225V187H735V225H737ZM737 227V225H735V227H737ZM734 228H736V226H734V228ZM728.554 228H734V226H728.554V228ZM729.554 234V227H727.554V234H729.554ZM706.554 235H728.554V233H706.554V235ZM705.554 227V234H707.554V227H705.554ZM582.447 228H706.554V226H582.447V228ZM583.447 234V227H581.447V234H583.447ZM560.447 235H582.447V233H560.447V235ZM559.447 227V234H561.447V227H559.447ZM553 228H560.447V226H553V228ZM551 228H553V226H551V228ZM550 225V227H552V225H550ZM550 187V225H552V187H550ZM550 185V187H552V185H550ZM608 195H679V193H608V195ZM609 217V194H607V217H609ZM679 216H608V218H679V216ZM678 194V217H680V194H678ZM724.5 218C726.433 218 728 216.433 728 214.5H726C726 215.328 725.328 216 724.5 216V218ZM721 214.5C721 216.433 722.567 218 724.5 218V216C723.672 216 723 215.328 723 214.5H721ZM724.5 211C722.567 211 721 212.567 721 214.5H723C723 213.672 723.672 213 724.5 213V211ZM728 214.5C728 212.567 726.433 211 724.5 211V213C725.328 213 726 213.672 726 214.5H728ZM564 214.5C564 215.328 563.328 216 562.5 216V218C564.433 218 566 216.433 566 214.5H564ZM562.5 213C563.328 213 564 213.672 564 214.5H566C566 212.567 564.433 211 562.5 211V213ZM561 214.5C561 213.672 561.672 213 562.5 213V211C560.567 211 559 212.567 559 214.5H561ZM562.5 216C561.672 216 561 215.328 561 214.5H559C559 216.433 560.567 218 562.5 218V216ZM700.5 218C702.433 218 704 216.433 704 214.5H702C702 215.328 701.328 216 700.5 216V218ZM697 214.5C697 216.433 698.567 218 700.5 218V216C699.672 216 699 215.328 699 214.5H697ZM700.5 211C698.567 211 697 212.567 697 214.5H699C699 213.672 699.672 213 700.5 213V211ZM704 214.5C704 212.567 702.433 211 700.5 211V213C701.328 213 702 213.672 702 214.5H704ZM597 214.5C597 215.328 596.328 216 595.5 216V218C597.433 218 599 216.433 599 214.5H597ZM595.5 213C596.328 213 597 213.672 597 214.5H599C599 212.567 597.433 211 595.5 211V213ZM594 214.5C594 213.672 594.672 213 595.5 213V211C593.567 211 592 212.567 592 214.5H594ZM595.5 216C594.672 216 594 215.328 594 214.5H592C592 216.433 593.567 218 595.5 218V216ZM691.5 218C693.433 218 695 216.433 695 214.5H693C693 215.328 692.328 216 691.5 216V218ZM688 214.5C688 216.433 689.567 218 691.5 218V216C690.672 216 690 215.328 690 214.5H688ZM691.5 211C689.567 211 688 212.567 688 214.5H690C690 213.672 690.672 213 691.5 213V211ZM695 214.5C695 212.567 693.433 211 691.5 211V213C692.328 213 693 213.672 693 214.5H695ZM588 214.5C588 215.328 587.328 216 586.5 216V218C588.433 218 590 216.433 590 214.5H588ZM586.5 213C587.328 213 588 213.672 588 214.5H590C590 212.567 588.433 211 586.5 211V213ZM585 214.5C585 213.672 585.672 213 586.5 213V211C584.567 211 583 212.567 583 214.5H585ZM586.5 216C585.672 216 585 215.328 585 214.5H583C583 216.433 584.567 218 586.5 218V216Z" fill="#575757" mask="url(#path-1-inside-1)"/>
<path d="M619.129 253.76V255.6C618.596 255.067 618.016 254.653 617.389 254.36C616.629 254.013 615.862 253.84 615.089 253.84C613.556 253.84 612.276 254.38 611.249 255.46C610.236 256.527 609.729 257.84 609.729 259.4C609.729 261.08 610.282 262.407 611.389 263.38C612.509 264.353 613.749 264.84 615.109 264.84C615.962 264.84 616.789 264.633 617.589 264.22C618.149 263.94 618.662 263.567 619.129 263.1V264.94C617.916 265.807 616.576 266.24 615.109 266.24C613.136 266.24 611.489 265.58 610.169 264.26C608.862 262.94 608.209 261.313 608.209 259.38C608.209 257.393 608.869 255.74 610.189 254.42C611.522 253.1 613.189 252.44 615.189 252.44C616.656 252.44 617.969 252.88 619.129 253.76ZM626.509 259.02H623.909V266H622.469V259.02H619.869V257.7H626.509V259.02ZM629.462 264.84V270.6H628.022V257.7H629.462V258.86C630.195 257.953 631.142 257.5 632.302 257.5C633.542 257.5 634.522 257.94 635.242 258.82C635.975 259.687 636.342 260.713 636.342 261.9C636.342 263.1 635.982 264.127 635.262 264.98C634.542 265.82 633.575 266.24 632.362 266.24C631.149 266.24 630.182 265.773 629.462 264.84ZM632.162 264.96C632.975 264.96 633.629 264.667 634.122 264.08C634.615 263.48 634.862 262.753 634.862 261.9C634.862 260.94 634.589 260.18 634.042 259.62C633.495 259.06 632.862 258.78 632.142 258.78C631.422 258.78 630.782 259.06 630.222 259.62C629.662 260.18 629.382 260.933 629.382 261.88C629.382 262.747 629.635 263.48 630.142 264.08C630.662 264.667 631.335 264.96 632.162 264.96ZM638.549 257.7H639.989V263.18L645.669 257.06V266H644.229V260.46L638.549 266.58V257.7ZM647.433 266L649.433 257.06L652.873 263.82L656.233 257.06L658.233 266H656.753L655.653 260.86L652.833 266.58L649.973 260.86L648.913 266H647.433ZM666.155 263.22L667.355 263.88C667.075 264.413 666.735 264.86 666.335 265.22C665.575 265.9 664.655 266.24 663.575 266.24C662.455 266.24 661.488 265.88 660.675 265.16C659.875 264.427 659.475 263.34 659.475 261.9C659.475 260.633 659.835 259.587 660.555 258.76C661.288 257.92 662.268 257.5 663.495 257.5C664.881 257.5 665.928 258.007 666.635 259.02C667.195 259.82 667.455 260.86 667.415 262.14H660.955C660.968 262.98 661.228 263.66 661.735 264.18C662.241 264.7 662.861 264.96 663.595 264.96C664.248 264.96 664.815 264.76 665.295 264.36C665.668 264.04 665.955 263.66 666.155 263.22ZM661.055 260.94H665.935C665.815 260.287 665.528 259.767 665.075 259.38C664.635 258.98 664.108 258.78 663.495 258.78C662.895 258.78 662.361 258.987 661.895 259.4C661.441 259.8 661.161 260.313 661.055 260.94ZM671.064 264.84V270.6H669.624V257.7H671.064V258.86C671.797 257.953 672.744 257.5 673.904 257.5C675.144 257.5 676.124 257.94 676.844 258.82C677.577 259.687 677.944 260.713 677.944 261.9C677.944 263.1 677.584 264.127 676.864 264.98C676.144 265.82 675.177 266.24 673.964 266.24C672.75 266.24 671.784 265.773 671.064 264.84ZM673.764 264.96C674.577 264.96 675.23 264.667 675.724 264.08C676.217 263.48 676.464 262.753 676.464 261.9C676.464 260.94 676.19 260.18 675.644 259.62C675.097 259.06 674.464 258.78 673.744 258.78C673.024 258.78 672.384 259.06 671.824 259.62C671.264 260.18 670.984 260.933 670.984 261.88C670.984 262.747 671.237 263.48 671.744 264.08C672.264 264.667 672.937 264.96 673.764 264.96Z" fill="#A89365"/>
<rect width="86" height="107" transform="translate(468 19)" fill="white"/>
<path fill-rule="evenodd" clip-rule="evenodd" d="M505.758 23.0082H518.037C519.523 23.0082 520.819 22.2003 521.512 21H524C525.657 21 527 22.3431 527 24V81C527 82.6569 525.657 84 524 84H499C497.343 84 496 82.6569 496 81V24C496 22.3431 497.343 21 499 21H502.284C502.976 22.2003 504.273 23.0082 505.758 23.0082ZM518.037 21.0082C518.099 21.0082 518.16 21.0054 518.22 21H505.576C505.636 21.0054 505.697 21.0082 505.758 21.0082H518.037ZM503.75 19H520.045H521.045H522.045H524C526.761 19 529 21.2386 529 24V29.0272C529.552 29.0272 530 29.4749 530 30.0272V34.0435C530 34.5958 529.552 35.0435 529 35.0435V81C529 83.7614 526.761 86 524 86H499C496.239 86 494 83.7614 494 81V42.0626C493.448 42.0626 493 41.6149 493 41.0626V37.0463C493 36.494 493.448 36.0463 494 36.0463V35.0435C493.448 35.0435 493 34.5958 493 34.0435V30.0272C493 29.4749 493.448 29.0272 494 29.0272V24C494 21.2386 496.239 19 499 19H501.75H502.75H503.75Z" fill="#575757"/>
<path d="M480.342 105.76V107.6C479.809 107.067 479.229 106.653 478.602 106.36C477.842 106.013 477.075 105.84 476.302 105.84C474.769 105.84 473.489 106.38 472.462 107.46C471.449 108.527 470.942 109.84 470.942 111.4C470.942 113.08 471.495 114.407 472.602 115.38C473.722 116.353 474.962 116.84 476.322 116.84C477.175 116.84 478.002 116.633 478.802 116.22C479.362 115.94 479.875 115.567 480.342 115.1V116.94C479.129 117.807 477.789 118.24 476.322 118.24C474.349 118.24 472.702 117.58 471.382 116.26C470.075 114.94 469.422 113.313 469.422 111.38C469.422 109.393 470.082 107.74 471.402 106.42C472.735 105.1 474.402 104.44 476.402 104.44C477.869 104.44 479.182 104.88 480.342 105.76ZM481.752 118L483.752 109.06L487.192 115.82L490.552 109.06L492.552 118H491.072L489.972 112.86L487.152 118.58L484.292 112.86L483.232 118H481.752ZM500.673 110.88V109.7H502.113V118H500.673V116.84C499.953 117.773 499.006 118.24 497.833 118.24C496.713 118.24 495.76 117.853 494.973 117.08C494.186 116.307 493.793 115.227 493.793 113.84C493.793 112.48 494.18 111.42 494.953 110.66C495.74 109.887 496.7 109.5 497.833 109.5C499.033 109.5 499.98 109.96 500.673 110.88ZM497.993 110.78C497.233 110.78 496.586 111.053 496.053 111.6C495.533 112.133 495.273 112.88 495.273 113.84C495.273 114.76 495.513 115.513 495.993 116.1C496.486 116.673 497.153 116.96 497.993 116.96C498.833 116.96 499.5 116.66 499.993 116.06C500.5 115.46 500.753 114.727 500.753 113.86C500.753 112.873 500.473 112.113 499.913 111.58C499.353 111.047 498.713 110.78 497.993 110.78ZM506.28 116.84V122.6H504.84V109.7H506.28V110.86C507.014 109.953 507.96 109.5 509.12 109.5C510.36 109.5 511.34 109.94 512.06 110.82C512.794 111.687 513.16 112.713 513.16 113.9C513.16 115.1 512.8 116.127 512.08 116.98C511.36 117.82 510.394 118.24 509.18 118.24C507.967 118.24 507 117.773 506.28 116.84ZM508.98 116.96C509.794 116.96 510.447 116.667 510.94 116.08C511.434 115.48 511.68 114.753 511.68 113.9C511.68 112.94 511.407 112.18 510.86 111.62C510.314 111.06 509.68 110.78 508.96 110.78C508.24 110.78 507.6 111.06 507.04 111.62C506.48 112.18 506.2 112.933 506.2 113.88C506.2 114.747 506.454 115.48 506.96 116.08C507.48 116.667 508.154 116.96 508.98 116.96ZM520.613 111.02H518.013V118H516.573V111.02H513.973V109.7H520.613V111.02ZM526.35 122.6V118.14C524.897 118.14 523.73 117.78 522.85 117.06C521.89 116.287 521.41 115.213 521.41 113.84C521.41 112.48 521.884 111.413 522.83 110.64C523.684 109.92 524.857 109.56 526.35 109.56V104.66H527.79V109.56C529.284 109.56 530.457 109.92 531.31 110.64C532.257 111.413 532.73 112.48 532.73 113.84C532.73 115.213 532.25 116.287 531.29 117.06C530.41 117.78 529.244 118.14 527.79 118.14V122.6H526.35ZM526.35 116.86V110.84C525.404 110.84 524.664 111.013 524.13 111.36C523.304 111.88 522.89 112.707 522.89 113.84C522.89 114.907 523.277 115.713 524.05 116.26C524.61 116.66 525.377 116.86 526.35 116.86ZM527.79 110.84V116.86C528.764 116.86 529.53 116.66 530.09 116.26C530.864 115.713 531.25 114.907 531.25 113.84C531.25 112.707 530.837 111.88 530.01 111.36C529.477 111.013 528.737 110.84 527.79 110.84ZM541.958 117C541.131 117.827 540.085 118.24 538.818 118.24C537.551 118.24 536.498 117.827 535.658 117C534.831 116.173 534.418 115.133 534.418 113.88C534.418 112.613 534.831 111.567 535.658 110.74C536.498 109.913 537.551 109.5 538.818 109.5C540.085 109.5 541.131 109.913 541.958 110.74C542.798 111.567 543.218 112.613 543.218 113.88C543.218 115.133 542.798 116.173 541.958 117ZM540.878 111.6C540.318 111.053 539.631 110.78 538.818 110.78C538.005 110.78 537.311 111.06 536.738 111.62C536.178 112.167 535.898 112.92 535.898 113.88C535.898 114.84 536.185 115.593 536.758 116.14C537.331 116.687 538.018 116.96 538.818 116.96C539.618 116.96 540.305 116.687 540.878 116.14C541.451 115.593 541.738 114.84 541.738 113.88C541.738 112.907 541.451 112.147 540.878 111.6ZM545.426 118V109.7H546.866V113.1H550.786V109.7H552.226V118H550.786V114.42H546.866V118H545.426Z" fill="#A89365"/>
<path d="M556.74 8.66H559.14C560.473 8.66 561.493 8.94 562.2 9.5C563 10.1133 563.4 11.0333 563.4 12.26C563.4 13.4067 562.96 14.28 562.08 14.88C562.933 15.0933 563.566 15.5267 563.98 16.18C564.406 16.82 564.62 17.5067 564.62 18.24C564.62 18.84 564.486 19.3933 564.22 19.9C563.966 20.4067 563.646 20.8133 563.26 21.12C562.513 21.7067 561.446 22 560.06 22H556.74V8.66ZM558.22 10.06V14.52H559.34C559.54 14.52 559.733 14.5133 559.92 14.5C560.106 14.4733 560.326 14.42 560.58 14.34C560.846 14.2467 561.073 14.1267 561.26 13.98C561.46 13.8333 561.626 13.6133 561.76 13.32C561.893 13.0267 561.96 12.6867 561.96 12.3C561.96 11.8867 561.88 11.5333 561.72 11.24C561.56 10.9333 561.38 10.7067 561.18 10.56C560.98 10.4133 560.74 10.3 560.46 10.22C560.18 10.14 559.966 10.0933 559.82 10.08C559.673 10.0667 559.526 10.06 559.38 10.06H558.22ZM558.22 15.84V20.6H559.92C561 20.6 561.78 20.4133 562.26 20.04C562.846 19.6133 563.14 19 563.14 18.2C563.14 17.3067 562.76 16.6533 562 16.24C561.52 15.9733 560.766 15.84 559.74 15.84H558.22ZM566.985 7.42H568.425V22H566.985V7.42ZM572.585 13.7V18.54C572.585 19.38 572.718 19.9733 572.985 20.32C573.318 20.7467 573.805 20.96 574.445 20.96C575.085 20.96 575.572 20.7467 575.905 20.32C576.172 19.9733 576.305 19.38 576.305 18.54V13.7H577.745V18.7C577.745 19.82 577.492 20.6533 576.985 21.2C576.332 21.8933 575.485 22.24 574.445 22.24C573.405 22.24 572.558 21.8933 571.905 21.2C571.398 20.6533 571.145 19.82 571.145 18.7V13.7H572.585ZM586.622 19.22L587.822 19.88C587.542 20.4133 587.202 20.86 586.802 21.22C586.042 21.9 585.122 22.24 584.042 22.24C582.922 22.24 581.955 21.88 581.142 21.16C580.342 20.4267 579.942 19.34 579.942 17.9C579.942 16.6333 580.302 15.5867 581.022 14.76C581.755 13.92 582.735 13.5 583.962 13.5C585.348 13.5 586.395 14.0067 587.102 15.02C587.662 15.82 587.922 16.86 587.882 18.14H581.422C581.435 18.98 581.695 19.66 582.202 20.18C582.708 20.7 583.328 20.96 584.062 20.96C584.715 20.96 585.282 20.76 585.762 20.36C586.135 20.04 586.422 19.66 586.622 19.22ZM581.522 16.94H586.402C586.282 16.2867 585.995 15.7667 585.542 15.38C585.102 14.98 584.575 14.78 583.962 14.78C583.362 14.78 582.828 14.9867 582.362 15.4C581.908 15.8 581.628 16.3133 581.522 16.94ZM593.01 15.02H591.57V22H590.13V15.02H589.25V13.7H590.13V10.7H591.57V13.7H593.01V15.02ZM601.388 21C600.561 21.8267 599.514 22.24 598.248 22.24C596.981 22.24 595.928 21.8267 595.088 21C594.261 20.1733 593.848 19.1333 593.848 17.88C593.848 16.6133 594.261 15.5667 595.088 14.74C595.928 13.9133 596.981 13.5 598.248 13.5C599.514 13.5 600.561 13.9133 601.388 14.74C602.228 15.5667 602.648 16.6133 602.648 17.88C602.648 19.1333 602.228 20.1733 601.388 21ZM600.308 15.6C599.748 15.0533 599.061 14.78 598.248 14.78C597.434 14.78 596.741 15.06 596.168 15.62C595.608 16.1667 595.328 16.92 595.328 17.88C595.328 18.84 595.614 19.5933 596.188 20.14C596.761 20.6867 597.448 20.96 598.248 20.96C599.048 20.96 599.734 20.6867 600.308 20.14C600.881 19.5933 601.168 18.84 601.168 17.88C601.168 16.9067 600.881 16.1467 600.308 15.6ZM611.876 21C611.049 21.8267 610.003 22.24 608.736 22.24C607.469 22.24 606.416 21.8267 605.576 21C604.749 20.1733 604.336 19.1333 604.336 17.88C604.336 16.6133 604.749 15.5667 605.576 14.74C606.416 13.9133 607.469 13.5 608.736 13.5C610.003 13.5 611.049 13.9133 611.876 14.74C612.716 15.5667 613.136 16.6133 613.136 17.88C613.136 19.1333 612.716 20.1733 611.876 21ZM610.796 15.6C610.236 15.0533 609.549 14.78 608.736 14.78C607.923 14.78 607.229 15.06 606.656 15.62C606.096 16.1667 605.816 16.92 605.816 17.88C605.816 18.84 606.103 19.5933 606.676 20.14C607.249 20.6867 607.936 20.96 608.736 20.96C609.536 20.96 610.223 20.6867 610.796 20.14C611.369 19.5933 611.656 18.84 611.656 17.88C611.656 16.9067 611.369 16.1467 610.796 15.6ZM618.264 15.02H616.824V22H615.384V15.02H614.504V13.7H615.384V10.7H616.824V13.7H618.264V15.02ZM619.622 22V7.42H621.062V14.66C621.648 13.8867 622.442 13.5 623.442 13.5C624.508 13.5 625.302 13.88 625.822 14.64C626.142 15.1067 626.302 15.8467 626.302 16.86V22H624.862V16.9C624.862 16.22 624.735 15.7133 624.482 15.38C624.175 14.98 623.722 14.78 623.122 14.78C622.508 14.78 622.022 14.9933 621.662 15.42C621.262 15.8867 621.062 16.6333 621.062 17.66V22H619.622ZM632.324 25.4L642.604 6.82L643.764 7.42L633.484 25.96L632.324 25.4ZM648.988 8.66H650.628L654.148 18.66L658.328 7.98L662.288 18.66L666.188 8.66H667.828L662.228 22.7L658.308 12.02L654.108 22.7L648.988 8.66ZM669.348 13.7H670.788V22H669.348V13.7ZM669.348 11.28C669.148 11.08 669.048 10.84 669.048 10.56C669.048 10.28 669.148 10.04 669.348 9.84C669.548 9.64 669.788 9.54 670.068 9.54C670.348 9.54 670.588 9.64 670.788 9.84C670.988 10.04 671.088 10.28 671.088 10.56C671.088 10.84 670.988 11.08 670.788 11.28C670.588 11.48 670.348 11.58 670.068 11.58C669.788 11.58 669.548 11.48 669.348 11.28ZM679.948 8.66V10.06H675.348V14H679.788V15.4H675.348V22H673.868V8.66H679.948ZM682.18 13.7H683.62V22H682.18V13.7ZM682.18 11.28C681.98 11.08 681.88 10.84 681.88 10.56C681.88 10.28 681.98 10.04 682.18 9.84C682.38 9.64 682.62 9.54 682.9 9.54C683.18 9.54 683.42 9.64 683.62 9.84C683.82 10.04 683.92 10.28 683.92 10.56C683.92 10.84 683.82 11.08 683.62 11.28C683.42 11.48 683.18 11.58 682.9 11.58C682.62 11.58 682.38 11.48 682.18 11.28Z" fill="#A89365"/>
<rect width="185" height="89" transform="translate(283 185)" fill="white"/>
<mask id="path-7-inside-2" fill="white">
<path fill-rule="evenodd" clip-rule="evenodd" d="M285 187H466V225H285V187ZM283 185H285H466H468V187V225V227H466H460.554V234H438.554V227H314.447V234H292.447V227H285H283V225V187V185ZM342 197H409V204H342V197ZM340 195H342H409H411V197V204V206H409H342H340V204V197V195ZM349 210H402V217H349V210ZM294.5 216C296.433 216 298 214.433 298 212.5C298 210.567 296.433 209 294.5 209C292.567 209 291 210.567 291 212.5C291 214.433 292.567 216 294.5 216ZM459 213.5C459 214.881 457.881 216 456.5 216C455.119 216 454 214.881 454 213.5C454 212.119 455.119 211 456.5 211C457.881 211 459 212.119 459 213.5ZM445.5 216C446.881 216 448 214.881 448 213.5C448 212.119 446.881 211 445.5 211C444.119 211 443 212.119 443 213.5C443 214.881 444.119 216 445.5 216ZM437 213.5C437 214.881 435.881 216 434.5 216C433.119 216 432 214.881 432 213.5C432 212.119 433.119 211 434.5 211C435.881 211 437 212.119 437 213.5ZM423.5 216C424.881 216 426 214.881 426 213.5C426 212.119 424.881 211 423.5 211C422.119 211 421 212.119 421 213.5C421 214.881 422.119 216 423.5 216Z"/>
</mask>
<path fill-rule="evenodd" clip-rule="evenodd" d="M285 187H466V225H285V187ZM283 185H285H466H468V187V225V227H466H460.554V234H438.554V227H314.447V234H292.447V227H285H283V225V187V185ZM342 197H409V204H342V197ZM340 195H342H409H411V197V204V206H409H342H340V204V197V195ZM349 210H402V217H349V210ZM294.5 216C296.433 216 298 214.433 298 212.5C298 210.567 296.433 209 294.5 209C292.567 209 291 210.567 291 212.5C291 214.433 292.567 216 294.5 216ZM459 213.5C459 214.881 457.881 216 456.5 216C455.119 216 454 214.881 454 213.5C454 212.119 455.119 211 456.5 211C457.881 211 459 212.119 459 213.5ZM445.5 216C446.881 216 448 214.881 448 213.5C448 212.119 446.881 211 445.5 211C444.119 211 443 212.119 443 213.5C443 214.881 444.119 216 445.5 216ZM437 213.5C437 214.881 435.881 216 434.5 216C433.119 216 432 214.881 432 213.5C432 212.119 433.119 211 434.5 211C435.881 211 437 212.119 437 213.5ZM423.5 216C424.881 216 426 214.881 426 213.5C426 212.119 424.881 211 423.5 211C422.119 211 421 212.119 421 213.5C421 214.881 422.119 216 423.5 216Z" fill="#575757"/>
<path d="M466 187H467V186H466V187ZM285 187V186H284V187H285ZM466 225V226H467V225H466ZM285 225H284V226H285V225ZM283 185V184H282V185H283ZM468 185H469V184H468V185ZM468 227V228H469V227H468ZM460.554 227V226H459.554V227H460.554ZM460.554 234V235H461.554V234H460.554ZM438.554 234H437.554V235H438.554V234ZM438.554 227H439.554V226H438.554V227ZM314.447 227V226H313.447V227H314.447ZM314.447 234V235H315.447V234H314.447ZM292.447 234H291.447V235H292.447V234ZM292.447 227H293.447V226H292.447V227ZM283 227H282V228H283V227ZM409 197H410V196H409V197ZM342 197V196H341V197H342ZM409 204V205H410V204H409ZM342 204H341V205H342V204ZM340 195V194H339V195H340ZM411 195H412V194H411V195ZM411 206V207H412V206H411ZM340 206H339V207H340V206ZM402 210H403V209H402V210ZM349 210V209H348V210H349ZM402 217V218H403V217H402ZM349 217H348V218H349V217ZM466 186H285V188H466V186ZM467 225V187H465V225H467ZM285 226H466V224H285V226ZM284 187V225H286V187H284ZM285 184H283V186H285V184ZM466 184H285V186H466V184ZM468 184H466V186H468V184ZM469 187V185H467V187H469ZM469 225V187H467V225H469ZM469 227V225H467V227H469ZM466 228H468V226H466V228ZM460.554 228H466V226H460.554V228ZM461.554 234V227H459.554V234H461.554ZM438.554 235H460.554V233H438.554V235ZM437.554 227V234H439.554V227H437.554ZM314.447 228H438.554V226H314.447V228ZM315.447 234V227H313.447V234H315.447ZM292.447 235H314.447V233H292.447V235ZM291.447 227V234H293.447V227H291.447ZM285 228H292.447V226H285V228ZM283 228H285V226H283V228ZM282 225V227H284V225H282ZM282 187V225H284V187H282ZM282 185V187H284V185H282ZM409 196H342V198H409V196ZM410 204V197H408V204H410ZM342 205H409V203H342V205ZM341 197V204H343V197H341ZM342 194H340V196H342V194ZM409 194H342V196H409V194ZM411 194H409V196H411V194ZM412 197V195H410V197H412ZM412 204V197H410V204H412ZM412 206V204H410V206H412ZM409 207H411V205H409V207ZM342 207H409V205H342V207ZM340 207H342V205H340V207ZM339 204V206H341V204H339ZM339 197V204H341V197H339ZM339 195V197H341V195H339ZM402 209H349V211H402V209ZM403 217V210H401V217H403ZM349 218H402V216H349V218ZM348 210V217H350V210H348ZM297 212.5C297 213.881 295.881 215 294.5 215V217C296.985 217 299 214.985 299 212.5H297ZM294.5 210C295.881 210 297 211.119 297 212.5H299C299 210.015 296.985 208 294.5 208V210ZM292 212.5C292 211.119 293.119 210 294.5 210V208C292.015 208 290 210.015 290 212.5H292ZM294.5 215C293.119 215 292 213.881 292 212.5H290C290 214.985 292.015 217 294.5 217V215ZM456.5 217C458.433 217 460 215.433 460 213.5H458C458 214.328 457.328 215 456.5 215V217ZM453 213.5C453 215.433 454.567 217 456.5 217V215C455.672 215 455 214.328 455 213.5H453ZM456.5 210C454.567 210 453 211.567 453 213.5H455C455 212.672 455.672 212 456.5 212V210ZM460 213.5C460 211.567 458.433 210 456.5 210V212C457.328 212 458 212.672 458 213.5H460ZM447 213.5C447 214.328 446.328 215 445.5 215V217C447.433 217 449 215.433 449 213.5H447ZM445.5 212C446.328 212 447 212.672 447 213.5H449C449 211.567 447.433 210 445.5 210V212ZM444 213.5C444 212.672 444.672 212 445.5 212V210C443.567 210 442 211.567 442 213.5H444ZM445.5 215C444.672 215 444 214.328 444 213.5H442C442 215.433 443.567 217 445.5 217V215ZM434.5 217C436.433 217 438 215.433 438 213.5H436C436 214.328 435.328 215 434.5 215V217ZM431 213.5C431 215.433 432.567 217 434.5 217V215C433.672 215 433 214.328 433 213.5H431ZM434.5 210C432.567 210 431 211.567 431 213.5H433C433 212.672 433.672 212 434.5 212V210ZM438 213.5C438 211.567 436.433 210 434.5 210V212C435.328 212 436 212.672 436 213.5H438ZM425 213.5C425 214.328 424.328 215 423.5 215V217C425.433 217 427 215.433 427 213.5H425ZM423.5 212C424.328 212 425 212.672 425 213.5H427C427 211.567 425.433 210 423.5 210V212ZM422 213.5C422 212.672 422.672 212 423.5 212V210C421.567 210 420 211.567 420 213.5H422ZM423.5 215C422.672 215 422 214.328 422 213.5H420C420 215.433 421.567 217 423.5 217V215Z" fill="#575757" mask="url(#path-7-inside-2)"/>
<path d="M310.984 253.76V255.6C310.451 255.067 309.871 254.653 309.244 254.36C308.484 254.013 307.718 253.84 306.944 253.84C305.411 253.84 304.131 254.38 303.104 255.46C302.091 256.527 301.584 257.84 301.584 259.4C301.584 261.08 302.138 262.407 303.244 263.38C304.364 264.353 305.604 264.84 306.964 264.84C307.818 264.84 308.644 264.633 309.444 264.22C310.004 263.94 310.518 263.567 310.984 263.1V264.94C309.771 265.807 308.431 266.24 306.964 266.24C304.991 266.24 303.344 265.58 302.024 264.26C300.718 262.94 300.064 261.313 300.064 259.38C300.064 257.393 300.724 255.74 302.044 254.42C303.378 253.1 305.044 252.44 307.044 252.44C308.511 252.44 309.824 252.88 310.984 253.76ZM313.714 266V252.66H316.434C318.487 252.66 320.127 253.18 321.354 254.22C322.874 255.487 323.634 257.193 323.634 259.34C323.634 261.42 322.854 263.127 321.294 264.46C320.654 265.007 319.967 265.4 319.234 265.64C318.501 265.88 317.561 266 316.414 266H313.714ZM315.194 254.06V264.6H316.494C318.081 264.6 319.354 264.2 320.314 263.4C321.514 262.387 322.114 261.033 322.114 259.34C322.114 257.74 321.601 256.46 320.574 255.5C319.547 254.54 318.187 254.06 316.494 254.06H315.194ZM325.631 262.48V261H330.031V262.48H325.631ZM332.397 257.7H339.077V266H337.637V259.02H333.837V266H332.397V257.7ZM343.232 264.84V270.6H341.792V257.7H343.232V258.86C343.965 257.953 344.912 257.5 346.072 257.5C347.312 257.5 348.292 257.94 349.012 258.82C349.745 259.687 350.112 260.713 350.112 261.9C350.112 263.1 349.752 264.127 349.032 264.98C348.312 265.82 347.345 266.24 346.132 266.24C344.918 266.24 343.952 265.773 343.232 264.84ZM345.932 264.96C346.745 264.96 347.398 264.667 347.892 264.08C348.385 263.48 348.632 262.753 348.632 261.9C348.632 260.94 348.358 260.18 347.812 259.62C347.265 259.06 346.632 258.78 345.912 258.78C345.192 258.78 344.552 259.06 343.992 259.62C343.432 260.18 343.152 260.933 343.152 261.88C343.152 262.747 343.405 263.48 343.912 264.08C344.432 264.667 345.105 264.96 345.932 264.96ZM359.339 265C358.512 265.827 357.466 266.24 356.199 266.24C354.932 266.24 353.879 265.827 353.039 265C352.212 264.173 351.799 263.133 351.799 261.88C351.799 260.613 352.212 259.567 353.039 258.74C353.879 257.913 354.932 257.5 356.199 257.5C357.466 257.5 358.512 257.913 359.339 258.74C360.179 259.567 360.599 260.613 360.599 261.88C360.599 263.133 360.179 264.173 359.339 265ZM358.259 259.6C357.699 259.053 357.012 258.78 356.199 258.78C355.386 258.78 354.692 259.06 354.119 259.62C353.559 260.167 353.279 260.92 353.279 261.88C353.279 262.84 353.566 263.593 354.139 264.14C354.712 264.687 355.399 264.96 356.199 264.96C356.999 264.96 357.686 264.687 358.259 264.14C358.832 263.593 359.119 262.84 359.119 261.88C359.119 260.907 358.832 260.147 358.259 259.6ZM362.807 257.7H364.247V263.18L369.927 257.06V266H368.487V260.46L362.807 266.58V257.7ZM372.651 266V257.7H377.571V259.02H374.091V266H372.651ZM380.458 264.84V270.6H379.018V257.7H380.458V258.86C381.192 257.953 382.138 257.5 383.298 257.5C384.538 257.5 385.518 257.94 386.238 258.82C386.972 259.687 387.338 260.713 387.338 261.9C387.338 263.1 386.978 264.127 386.258 264.98C385.538 265.82 384.572 266.24 383.358 266.24C382.145 266.24 381.178 265.773 380.458 264.84ZM383.158 264.96C383.972 264.96 384.625 264.667 385.118 264.08C385.612 263.48 385.858 262.753 385.858 261.9C385.858 260.94 385.585 260.18 385.038 259.62C384.492 259.06 383.858 258.78 383.138 258.78C382.418 258.78 381.778 259.06 381.218 259.62C380.658 260.18 380.378 260.933 380.378 261.88C380.378 262.747 380.632 263.48 381.138 264.08C381.658 264.667 382.332 264.96 383.158 264.96ZM389.546 266V257.7H390.986V260.88H392.466C393.612 260.88 394.452 261.153 394.986 261.7C395.412 262.127 395.626 262.707 395.626 263.44C395.626 264.213 395.379 264.833 394.886 265.3C394.392 265.767 393.579 266 392.446 266H389.546ZM390.986 264.72H392.326C392.926 264.72 393.352 264.647 393.606 264.5C393.966 264.26 394.146 263.907 394.146 263.44C394.146 262.96 393.972 262.613 393.626 262.4C393.386 262.24 392.959 262.16 392.346 262.16H390.986V264.72ZM396.626 266V257.7H398.066V266H396.626ZM400.776 257.7H403.916C404.676 257.7 405.256 257.86 405.656 258.18C406.136 258.567 406.376 259.087 406.376 259.74C406.376 260.46 406.076 261.013 405.476 261.4C405.889 261.507 406.236 261.693 406.516 261.96C406.956 262.387 407.176 262.92 407.176 263.56C407.176 264.36 406.889 264.987 406.316 265.44C405.823 265.813 405.169 266 404.356 266H400.776V257.7ZM402.216 261.08H403.736C404.123 261.08 404.429 261 404.656 260.84C404.923 260.64 405.056 260.353 405.056 259.98C405.056 259.647 404.923 259.38 404.656 259.18C404.456 259.047 404.069 258.98 403.496 258.98H402.216V261.08ZM402.216 264.72H403.996C404.609 264.72 405.043 264.627 405.296 264.44C405.616 264.2 405.776 263.893 405.776 263.52C405.776 263.12 405.636 262.807 405.356 262.58C405.103 262.38 404.669 262.28 404.056 262.28H402.216V264.72ZM415.73 258.88V257.7H417.17V266H415.73V264.84C415.01 265.773 414.063 266.24 412.89 266.24C411.77 266.24 410.816 265.853 410.03 265.08C409.243 264.307 408.85 263.227 408.85 261.84C408.85 260.48 409.236 259.42 410.01 258.66C410.796 257.887 411.756 257.5 412.89 257.5C414.09 257.5 415.036 257.96 415.73 258.88ZM413.05 258.78C412.29 258.78 411.643 259.053 411.11 259.6C410.59 260.133 410.33 260.88 410.33 261.84C410.33 262.76 410.57 263.513 411.05 264.1C411.543 264.673 412.21 264.96 413.05 264.96C413.89 264.96 414.556 264.66 415.05 264.06C415.556 263.46 415.81 262.727 415.81 261.86C415.81 260.873 415.53 260.113 414.97 259.58C414.41 259.047 413.77 258.78 413.05 258.78ZM425.337 259.02H422.737V266H421.297V259.02H418.697V257.7H425.337V259.02ZM432.815 263.22L434.015 263.88C433.735 264.413 433.395 264.86 432.995 265.22C432.235 265.9 431.315 266.24 430.235 266.24C429.115 266.24 428.148 265.88 427.335 265.16C426.535 264.427 426.135 263.34 426.135 261.9C426.135 260.633 426.495 259.587 427.215 258.76C427.948 257.92 428.928 257.5 430.155 257.5C431.542 257.5 432.588 258.007 433.295 259.02C433.855 259.82 434.115 260.86 434.075 262.14H427.615C427.628 262.98 427.888 263.66 428.395 264.18C428.902 264.7 429.522 264.96 430.255 264.96C430.908 264.96 431.475 264.76 431.955 264.36C432.328 264.04 432.615 263.66 432.815 263.22ZM427.715 260.94H432.595C432.475 260.287 432.188 259.767 431.735 259.38C431.295 258.98 430.768 258.78 430.155 258.78C429.555 258.78 429.022 258.987 428.555 259.4C428.102 259.8 427.822 260.313 427.715 260.94ZM442.564 257.7V266H441.124V259.02H438.164V262.76C438.164 263.84 437.95 264.64 437.524 265.16C437.044 265.747 436.377 266.04 435.524 266.04C435.417 266.04 435.27 266.027 435.084 266V264.68C435.217 264.707 435.324 264.72 435.404 264.72C435.87 264.72 436.217 264.54 436.444 264.18C436.63 263.887 436.724 263.413 436.724 262.76V257.7H442.564ZM445.288 266V257.7H446.728V260.88H448.208C449.354 260.88 450.194 261.153 450.728 261.7C451.154 262.127 451.368 262.707 451.368 263.44C451.368 264.213 451.121 264.833 450.628 265.3C450.134 265.767 449.321 266 448.188 266H445.288ZM446.728 264.72H448.068C448.668 264.72 449.094 264.647 449.348 264.5C449.708 264.26 449.888 263.907 449.888 263.44C449.888 262.96 449.714 262.613 449.368 262.4C449.128 262.24 448.701 262.16 448.088 262.16H446.728V264.72Z" fill="#A89365"/>
<rect width="130" height="142" transform="translate(807 164)" fill="white"/>
<path fill-rule="evenodd" clip-rule="evenodd" d="M935 234H809V244C809 245.105 809.895 246 811 246H864H879H933C934.105 246 935 245.105 935 244V234ZM879 248H933C935.209 248 937 246.209 937 244V234V233V232V168C937 165.791 935.209 164 933 164H811C808.791 164 807 165.791 807 168V232V233V234V244C807 246.209 808.791 248 811 248H864V253.513C864 259.179 860.375 264.208 855 266H888C882.625 264.208 879 259.179 879 253.513V248ZM935 232H809V168C809 166.895 809.895 166 811 166H933C934.105 166 935 166.895 935 168V232ZM875 240C875 241.657 873.657 243 872 243C870.343 243 869 241.657 869 240C869 238.343 870.343 237 872 237C873.657 237 875 238.343 875 240Z" fill="#575757"/>
<path d="M829.427 284.66V290.38L835.107 284.66H837.107L830.867 290.88L837.307 298H835.267L829.807 291.88L829.427 292.26V298H827.947V284.66H829.427ZM845.134 297C844.307 297.827 843.261 298.24 841.994 298.24C840.727 298.24 839.674 297.827 838.834 297C838.007 296.173 837.594 295.133 837.594 293.88C837.594 292.613 838.007 291.567 838.834 290.74C839.674 289.913 840.727 289.5 841.994 289.5C843.261 289.5 844.307 289.913 845.134 290.74C845.974 291.567 846.394 292.613 846.394 293.88C846.394 295.133 845.974 296.173 845.134 297ZM844.054 291.6C843.494 291.053 842.807 290.78 841.994 290.78C841.181 290.78 840.487 291.06 839.914 291.62C839.354 292.167 839.074 292.92 839.074 293.88C839.074 294.84 839.361 295.593 839.934 296.14C840.507 296.687 841.194 296.96 841.994 296.96C842.794 296.96 843.481 296.687 844.054 296.14C844.627 295.593 844.914 294.84 844.914 293.88C844.914 292.907 844.627 292.147 844.054 291.6ZM847.642 298L849.642 289.06L853.082 295.82L856.442 289.06L858.442 298H856.962L855.862 292.86L853.042 298.58L850.182 292.86L849.122 298H847.642ZM860.204 289.7H866.884V298H865.444V291.02H861.644V298H860.204V289.7ZM869.598 298V289.7H871.038V292.88H872.518C873.665 292.88 874.505 293.153 875.038 293.7C875.465 294.127 875.678 294.707 875.678 295.44C875.678 296.213 875.432 296.833 874.938 297.3C874.445 297.767 873.632 298 872.498 298H869.598ZM871.038 296.72H872.378C872.978 296.72 873.405 296.647 873.658 296.5C874.018 296.26 874.198 295.907 874.198 295.44C874.198 294.96 874.025 294.613 873.678 294.4C873.438 294.24 873.012 294.16 872.398 294.16H871.038V296.72ZM879.046 293.1H880.546C880.679 292.167 881.053 291.38 881.666 290.74C882.453 289.913 883.499 289.5 884.806 289.5C886.086 289.5 887.139 289.913 887.966 290.74C888.793 291.567 889.206 292.613 889.206 293.88C889.206 295.133 888.786 296.173 887.946 297C887.119 297.827 886.073 298.24 884.806 298.24C883.353 298.24 882.213 297.72 881.386 296.68C880.853 296.013 880.546 295.26 880.466 294.42H879.046V298H877.606V289.7H879.046V293.1ZM884.806 290.78C884.006 290.78 883.326 291.06 882.766 291.62C882.219 292.167 881.946 292.92 881.946 293.88C881.946 294.853 882.226 295.613 882.786 296.16C883.346 296.693 884.019 296.96 884.806 296.96C885.606 296.96 886.293 296.687 886.866 296.14C887.439 295.593 887.726 294.84 887.726 293.88C887.726 292.92 887.439 292.167 886.866 291.62C886.306 291.06 885.619 290.78 884.806 290.78ZM896.659 291.02H894.059V298H892.619V291.02H890.019V289.7H896.659V291.02ZM904.137 295.22L905.337 295.88C905.057 296.413 904.717 296.86 904.317 297.22C903.557 297.9 902.637 298.24 901.557 298.24C900.437 298.24 899.471 297.88 898.657 297.16C897.857 296.427 897.457 295.34 897.457 293.9C897.457 292.633 897.817 291.587 898.537 290.76C899.271 289.92 900.251 289.5 901.477 289.5C902.864 289.5 903.911 290.007 904.617 291.02C905.177 291.82 905.437 292.86 905.397 294.14H898.937C898.951 294.98 899.211 295.66 899.717 296.18C900.224 296.7 900.844 296.96 901.577 296.96C902.231 296.96 902.797 296.76 903.277 296.36C903.651 296.04 903.937 295.66 904.137 295.22ZM899.037 292.94H903.917C903.797 292.287 903.511 291.767 903.057 291.38C902.617 290.98 902.091 290.78 901.477 290.78C900.877 290.78 900.344 290.987 899.877 291.4C899.424 291.8 899.144 292.313 899.037 292.94ZM909.046 296.84V302.6H907.606V289.7H909.046V290.86C909.779 289.953 910.726 289.5 911.886 289.5C913.126 289.5 914.106 289.94 914.826 290.82C915.559 291.687 915.926 292.713 915.926 293.9C915.926 295.1 915.566 296.127 914.846 296.98C914.126 297.82 913.159 298.24 911.946 298.24C910.733 298.24 909.766 297.773 909.046 296.84ZM911.746 296.96C912.559 296.96 913.213 296.667 913.706 296.08C914.199 295.48 914.446 294.753 914.446 293.9C914.446 292.94 914.173 292.18 913.626 291.62C913.079 291.06 912.446 290.78 911.726 290.78C911.006 290.78 910.366 291.06 909.806 291.62C909.246 292.18 908.966 292.933 908.966 293.88C908.966 294.747 909.219 295.48 909.726 296.08C910.246 296.667 910.919 296.96 911.746 296.96Z" fill="#A89365"/>
<rect width="218" height="97" transform="translate(266 470)" fill="white"/>
<path fill-rule="evenodd" clip-rule="evenodd" d="M268 472H482V518H268V472ZM266 470H268H482H484V472V518V520H482H473V527H447V520H303V527H277V520H268H266V518V472V470ZM301 494.5C301 499.194 297.194 503 292.5 503C287.806 503 284 499.194 284 494.5C284 489.806 287.806 486 292.5 486C297.194 486 301 489.806 301 494.5ZM303 494.5C303 500.299 298.299 505 292.5 505C286.701 505 282 500.299 282 494.5C282 488.701 286.701 484 292.5 484C298.299 484 303 488.701 303 494.5ZM457.5 503C462.194 503 466 499.194 466 494.5C466 489.806 462.194 486 457.5 486C452.806 486 449 489.806 449 494.5C449 499.194 452.806 503 457.5 503ZM457.5 505C463.299 505 468 500.299 468 494.5C468 488.701 463.299 484 457.5 484C451.701 484 447 488.701 447 494.5C447 500.299 451.701 505 457.5 505ZM316 483H434V507H316V483ZM409.5 493C410.881 493 412 491.881 412 490.5C412 489.119 410.881 488 409.5 488C408.119 488 407 489.119 407 490.5C407 491.881 408.119 493 409.5 493ZM340.5 498C341.881 498 343 496.881 343 495.5C343 494.119 341.881 493 340.5 493C339.119 493 338 494.119 338 495.5C338 496.881 339.119 498 340.5 498ZM351.5 498C352.881 498 354 496.881 354 495.5C354 494.119 352.881 493 351.5 493C350.119 493 349 494.119 349 495.5C349 496.881 350.119 498 351.5 498ZM412 498.5C412 499.881 410.881 501 409.5 501C408.119 501 407 499.881 407 498.5C407 497.119 408.119 496 409.5 496C410.881 496 412 497.119 412 498.5Z" fill="#575757"/>
<path d="M286.578 559V548.82L277.298 559.6V545.66H278.778V555.88L288.058 545.1V559H286.578ZM291.137 559V550.7H292.577V554.1H296.497V550.7H297.937V559H296.497V555.42H292.577V559H291.137ZM306.089 552.02H303.489V559H302.049V552.02H299.449V550.7H306.089V552.02ZM313.567 556.22L314.767 556.88C314.487 557.413 314.147 557.86 313.747 558.22C312.987 558.9 312.067 559.24 310.987 559.24C309.867 559.24 308.9 558.88 308.087 558.16C307.287 557.427 306.887 556.34 306.887 554.9C306.887 553.633 307.247 552.587 307.967 551.76C308.7 550.92 309.68 550.5 310.907 550.5C312.294 550.5 313.34 551.007 314.047 552.02C314.607 552.82 314.867 553.86 314.827 555.14H308.367C308.38 555.98 308.64 556.66 309.147 557.18C309.654 557.7 310.274 557.96 311.007 557.96C311.66 557.96 312.227 557.76 312.707 557.36C313.08 557.04 313.367 556.66 313.567 556.22ZM308.467 553.94H313.347C313.227 553.287 312.94 552.767 312.487 552.38C312.047 551.98 311.52 551.78 310.907 551.78C310.307 551.78 309.774 551.987 309.307 552.4C308.854 552.8 308.574 553.313 308.467 553.94ZM317.036 559V550.7H321.956V552.02H318.476V559H317.036ZM324.843 557.84V563.6H323.403V550.7H324.843V551.86C325.576 550.953 326.523 550.5 327.683 550.5C328.923 550.5 329.903 550.94 330.623 551.82C331.356 552.687 331.723 553.713 331.723 554.9C331.723 556.1 331.363 557.127 330.643 557.98C329.923 558.82 328.956 559.24 327.743 559.24C326.53 559.24 325.563 558.773 324.843 557.84ZM327.543 557.96C328.356 557.96 329.01 557.667 329.503 557.08C329.996 556.48 330.243 555.753 330.243 554.9C330.243 553.94 329.97 553.18 329.423 552.62C328.876 552.06 328.243 551.78 327.523 551.78C326.803 551.78 326.163 552.06 325.603 552.62C325.043 553.18 324.763 553.933 324.763 554.88C324.763 555.747 325.016 556.48 325.523 557.08C326.043 557.667 326.716 557.96 327.543 557.96ZM340.29 551.88V550.7H341.73V559H340.29V557.84C339.57 558.773 338.624 559.24 337.45 559.24C336.33 559.24 335.377 558.853 334.59 558.08C333.804 557.307 333.41 556.227 333.41 554.84C333.41 553.48 333.797 552.42 334.57 551.66C335.357 550.887 336.317 550.5 337.45 550.5C338.65 550.5 339.597 550.96 340.29 551.88ZM337.61 551.78C336.85 551.78 336.204 552.053 335.67 552.6C335.15 553.133 334.89 553.88 334.89 554.84C334.89 555.76 335.13 556.513 335.61 557.1C336.104 557.673 336.77 557.96 337.61 557.96C338.45 557.96 339.117 557.66 339.61 557.06C340.117 556.46 340.37 555.727 340.37 554.86C340.37 553.873 340.09 553.113 339.53 552.58C338.97 552.047 338.33 551.78 337.61 551.78ZM350.738 550.7V559H349.298V552.02H346.338V555.76C346.338 556.84 346.124 557.64 345.698 558.16C345.218 558.747 344.551 559.04 343.698 559.04C343.591 559.04 343.444 559.027 343.258 559V557.68C343.391 557.707 343.498 557.72 343.578 557.72C344.044 557.72 344.391 557.54 344.618 557.18C344.804 556.887 344.898 556.413 344.898 555.76V550.7H350.738ZM353.462 559V550.7H354.902V553.88H356.382C357.528 553.88 358.368 554.153 358.902 554.7C359.328 555.127 359.542 555.707 359.542 556.44C359.542 557.213 359.295 557.833 358.802 558.3C358.308 558.767 357.495 559 356.362 559H353.462ZM354.902 557.72H356.242C356.842 557.72 357.268 557.647 357.522 557.5C357.882 557.26 358.062 556.907 358.062 556.44C358.062 555.96 357.888 555.613 357.542 555.4C357.302 555.24 356.875 555.16 356.262 555.16H354.902V557.72ZM361.469 559V550.7H362.909V554.1H366.829V550.7H368.269V559H366.829V555.42H362.909V559H361.469ZM370.981 559V550.7H372.421V553.88H373.901C375.048 553.88 375.888 554.153 376.421 554.7C376.848 555.127 377.061 555.707 377.061 556.44C377.061 557.213 376.814 557.833 376.321 558.3C375.828 558.767 375.014 559 373.881 559H370.981ZM372.421 557.72H373.761C374.361 557.72 374.788 557.647 375.041 557.5C375.401 557.26 375.581 556.907 375.581 556.44C375.581 555.96 375.408 555.613 375.061 555.4C374.821 555.24 374.394 555.16 373.781 555.16H372.421V557.72ZM378.061 559V550.7H379.501V559H378.061ZM382.212 550.7H383.652V556.18L389.332 550.06V559H387.892V553.46L382.212 559.58V550.7ZM382.932 547.12L384.132 546.66C384.372 547.46 384.938 547.86 385.832 547.86C386.725 547.86 387.292 547.46 387.532 546.66L388.732 547.12C388.518 547.72 388.152 548.193 387.632 548.54C387.125 548.887 386.525 549.06 385.832 549.06C385.138 549.06 384.532 548.887 384.012 548.54C383.505 548.193 383.145 547.72 382.932 547.12ZM396.703 563.6L399.343 558.22L395.523 550.7H397.163L400.103 556.64L402.803 550.7H404.403L398.303 563.6H396.703ZM412.423 551.3V553.02C411.769 552.193 410.903 551.78 409.823 551.78C409.009 551.78 408.316 552.06 407.743 552.62C407.169 553.167 406.883 553.92 406.883 554.88C406.883 555.84 407.169 556.593 407.743 557.14C408.316 557.687 409.003 557.96 409.803 557.96C410.869 557.96 411.763 557.527 412.483 556.66V558.38C411.696 558.953 410.816 559.24 409.842 559.24C408.549 559.24 407.483 558.833 406.643 558.02C405.816 557.193 405.403 556.153 405.403 554.9C405.403 553.633 405.823 552.587 406.663 551.76C407.503 550.92 408.563 550.5 409.842 550.5C410.803 550.5 411.663 550.767 412.423 551.3ZM414.692 550.7H416.132V556.18L421.812 550.06V559H420.372V553.46L414.692 559.58V550.7ZM430.816 550.7V559H429.376V552.02H426.416V555.76C426.416 556.84 426.202 557.64 425.776 558.16C425.296 558.747 424.629 559.04 423.776 559.04C423.669 559.04 423.522 559.027 423.336 559V557.68C423.469 557.707 423.576 557.72 423.656 557.72C424.122 557.72 424.469 557.54 424.696 557.18C424.882 556.887 424.976 556.413 424.976 555.76V550.7H430.816ZM433.54 550.7H434.98V556.18L440.66 550.06V559H439.22V553.46L433.54 559.58V550.7ZM448.823 552.02H446.223V559H444.783V552.02H442.183V550.7H448.823V552.02ZM456.301 556.22L457.501 556.88C457.221 557.413 456.881 557.86 456.481 558.22C455.721 558.9 454.801 559.24 453.721 559.24C452.601 559.24 451.635 558.88 450.821 558.16C450.021 557.427 449.621 556.34 449.621 554.9C449.621 553.633 449.981 552.587 450.701 551.76C451.435 550.92 452.415 550.5 453.641 550.5C455.028 550.5 456.075 551.007 456.781 552.02C457.341 552.82 457.601 553.86 457.561 555.14H451.101C451.115 555.98 451.375 556.66 451.881 557.18C452.388 557.7 453.008 557.96 453.741 557.96C454.395 557.96 454.961 557.76 455.441 557.36C455.815 557.04 456.101 556.66 456.301 556.22ZM451.201 553.94H456.081C455.961 553.287 455.675 552.767 455.221 552.38C454.781 551.98 454.255 551.78 453.641 551.78C453.041 551.78 452.508 551.987 452.041 552.4C451.588 552.8 451.308 553.313 451.201 553.94ZM466.05 550.7V559H464.61V552.02H461.65V555.76C461.65 556.84 461.437 557.64 461.01 558.16C460.53 558.747 459.863 559.04 459.01 559.04C458.903 559.04 458.757 559.027 458.57 559V557.68C458.703 557.707 458.81 557.72 458.89 557.72C459.357 557.72 459.703 557.54 459.93 557.18C460.117 556.887 460.21 556.413 460.21 555.76V550.7H466.05ZM468.774 559V550.7H470.214V553.88H471.694C472.841 553.88 473.681 554.153 474.214 554.7C474.641 555.127 474.854 555.707 474.854 556.44C474.854 557.213 474.607 557.833 474.114 558.3C473.621 558.767 472.807 559 471.674 559H468.774ZM470.214 557.72H471.554C472.154 557.72 472.581 557.647 472.834 557.5C473.194 557.26 473.374 556.907 473.374 556.44C473.374 555.96 473.201 555.613 472.854 555.4C472.614 555.24 472.187 555.16 471.574 555.16H470.214V557.72Z" fill="#A89365"/>
<path d="M781.313 454.7H782.753V458.1L786.113 454.7H787.873L784.273 458.4L788.313 463H786.433L783.193 459.36L782.753 459.78V463H781.313V454.7ZM796.111 455.88V454.7H797.551V463H796.111V461.84C795.391 462.773 794.444 463.24 793.271 463.24C792.151 463.24 791.197 462.853 790.411 462.08C789.624 461.307 789.231 460.227 789.231 458.84C789.231 457.48 789.617 456.42 790.391 455.66C791.177 454.887 792.137 454.5 793.271 454.5C794.471 454.5 795.417 454.96 796.111 455.88ZM793.431 455.78C792.671 455.78 792.024 456.053 791.491 456.6C790.971 457.133 790.711 457.88 790.711 458.84C790.711 459.76 790.951 460.513 791.431 461.1C791.924 461.673 792.591 461.96 793.431 461.96C794.271 461.96 794.937 461.66 795.431 461.06C795.937 460.46 796.191 459.727 796.191 458.86C796.191 457.873 795.911 457.113 795.351 456.58C794.791 456.047 794.151 455.78 793.431 455.78ZM806.678 449H808.278C808.131 449.493 807.878 449.913 807.518 450.26C807.171 450.593 806.851 450.82 806.558 450.94C806.278 451.06 805.945 451.167 805.558 451.26C805.491 451.273 805.331 451.313 805.078 451.38C804.825 451.433 804.631 451.48 804.498 451.52C804.365 451.56 804.191 451.613 803.978 451.68C803.765 451.747 803.571 451.827 803.398 451.92C803.225 452.013 803.065 452.113 802.918 452.22C802.411 452.607 801.998 453.147 801.678 453.84C801.371 454.52 801.205 455.247 801.178 456.02H801.218C801.818 455.007 802.825 454.5 804.238 454.5C805.478 454.5 806.505 454.92 807.318 455.76C808.145 456.6 808.558 457.64 808.558 458.88C808.558 460.133 808.138 461.173 807.298 462C806.458 462.827 805.365 463.24 804.018 463.24C802.858 463.24 801.905 462.893 801.158 462.2C800.225 461.347 799.758 459.92 799.758 457.92C799.758 454.44 800.545 452.16 802.118 451.08C802.238 451 802.365 450.927 802.498 450.86C802.631 450.78 802.771 450.713 802.918 450.66C803.078 450.593 803.211 450.54 803.318 450.5C803.425 450.447 803.571 450.4 803.758 450.36C803.958 450.307 804.091 450.273 804.158 450.26C804.238 450.233 804.385 450.2 804.598 450.16C804.825 450.107 804.965 450.073 805.018 450.06C805.551 449.94 805.938 449.8 806.178 449.64C806.418 449.467 806.585 449.253 806.678 449ZM806.218 456.6C805.658 456.053 804.971 455.78 804.158 455.78C803.345 455.78 802.651 456.06 802.078 456.62C801.518 457.167 801.238 457.92 801.238 458.88C801.238 459.84 801.525 460.593 802.098 461.14C802.671 461.687 803.358 461.96 804.158 461.96C804.958 461.96 805.645 461.687 806.218 461.14C806.791 460.593 807.078 459.84 807.078 458.88C807.078 457.907 806.791 457.147 806.218 456.6ZM816.926 460.22L818.126 460.88C817.846 461.413 817.506 461.86 817.106 462.22C816.346 462.9 815.426 463.24 814.346 463.24C813.226 463.24 812.26 462.88 811.446 462.16C810.646 461.427 810.246 460.34 810.246 458.9C810.246 457.633 810.606 456.587 811.326 455.76C812.06 454.92 813.04 454.5 814.266 454.5C815.653 454.5 816.7 455.007 817.406 456.02C817.966 456.82 818.226 457.86 818.186 459.14H811.726C811.74 459.98 812 460.66 812.506 461.18C813.013 461.7 813.633 461.96 814.366 461.96C815.02 461.96 815.586 461.76 816.066 461.36C816.44 461.04 816.726 460.66 816.926 460.22ZM811.826 457.94H816.706C816.586 457.287 816.3 456.767 815.846 456.38C815.406 455.98 814.88 455.78 814.266 455.78C813.666 455.78 813.133 455.987 812.666 456.4C812.213 456.8 811.933 457.313 811.826 457.94ZM826.675 454.7V463H825.235V456.02H822.275V459.76C822.275 460.84 822.062 461.64 821.635 462.16C821.155 462.747 820.488 463.04 819.635 463.04C819.528 463.04 819.382 463.027 819.195 463V461.68C819.328 461.707 819.435 461.72 819.515 461.72C819.982 461.72 820.328 461.54 820.555 461.18C820.742 460.887 820.835 460.413 820.835 459.76V454.7H826.675ZM829.399 463V454.7H830.839V457.88H832.319C833.466 457.88 834.306 458.153 834.839 458.7C835.266 459.127 835.479 459.707 835.479 460.44C835.479 461.213 835.232 461.833 834.739 462.3C834.246 462.767 833.432 463 832.299 463H829.399ZM830.839 461.72H832.179C832.779 461.72 833.206 461.647 833.459 461.5C833.819 461.26 833.999 460.907 833.999 460.44C833.999 459.96 833.826 459.613 833.479 459.4C833.239 459.24 832.812 459.16 832.199 459.16H830.839V461.72Z" fill="#A89365"/>
<path d="M95.3131 476.7H96.7531V480.1L100.113 476.7H101.873L98.2731 480.4L102.313 485H100.433L97.1931 481.36L96.7531 481.78V485H95.3131V476.7ZM110.111 477.88V476.7H111.551V485H110.111V483.84C109.391 484.773 108.444 485.24 107.271 485.24C106.151 485.24 105.197 484.853 104.411 484.08C103.624 483.307 103.231 482.227 103.231 480.84C103.231 479.48 103.617 478.42 104.391 477.66C105.177 476.887 106.137 476.5 107.271 476.5C108.471 476.5 109.417 476.96 110.111 477.88ZM107.431 477.78C106.671 477.78 106.024 478.053 105.491 478.6C104.971 479.133 104.711 479.88 104.711 480.84C104.711 481.76 104.951 482.513 105.431 483.1C105.924 483.673 106.591 483.96 107.431 483.96C108.271 483.96 108.937 483.66 109.431 483.06C109.937 482.46 110.191 481.727 110.191 480.86C110.191 479.873 109.911 479.113 109.351 478.58C108.791 478.047 108.151 477.78 107.431 477.78ZM120.678 471H122.278C122.131 471.493 121.878 471.913 121.518 472.26C121.171 472.593 120.851 472.82 120.558 472.94C120.278 473.06 119.945 473.167 119.558 473.26C119.491 473.273 119.331 473.313 119.078 473.38C118.825 473.433 118.631 473.48 118.498 473.52C118.365 473.56 118.191 473.613 117.978 473.68C117.765 473.747 117.571 473.827 117.398 473.92C117.225 474.013 117.065 474.113 116.918 474.22C116.411 474.607 115.998 475.147 115.678 475.84C115.371 476.52 115.205 477.247 115.178 478.02H115.218C115.818 477.007 116.825 476.5 118.238 476.5C119.478 476.5 120.505 476.92 121.318 477.76C122.145 478.6 122.558 479.64 122.558 480.88C122.558 482.133 122.138 483.173 121.298 484C120.458 484.827 119.365 485.24 118.018 485.24C116.858 485.24 115.905 484.893 115.158 484.2C114.225 483.347 113.758 481.92 113.758 479.92C113.758 476.44 114.545 474.16 116.118 473.08C116.238 473 116.365 472.927 116.498 472.86C116.631 472.78 116.771 472.713 116.918 472.66C117.078 472.593 117.211 472.54 117.318 472.5C117.425 472.447 117.571 472.4 117.758 472.36C117.958 472.307 118.091 472.273 118.158 472.26C118.238 472.233 118.385 472.2 118.598 472.16C118.825 472.107 118.965 472.073 119.018 472.06C119.551 471.94 119.938 471.8 120.178 471.64C120.418 471.467 120.585 471.253 120.678 471ZM120.218 478.6C119.658 478.053 118.971 477.78 118.158 477.78C117.345 477.78 116.651 478.06 116.078 478.62C115.518 479.167 115.238 479.92 115.238 480.88C115.238 481.84 115.525 482.593 116.098 483.14C116.671 483.687 117.358 483.96 118.158 483.96C118.958 483.96 119.645 483.687 120.218 483.14C120.791 482.593 121.078 481.84 121.078 480.88C121.078 479.907 120.791 479.147 120.218 478.6ZM130.926 482.22L132.126 482.88C131.846 483.413 131.506 483.86 131.106 484.22C130.346 484.9 129.426 485.24 128.346 485.24C127.226 485.24 126.26 484.88 125.446 484.16C124.646 483.427 124.246 482.34 124.246 480.9C124.246 479.633 124.606 478.587 125.326 477.76C126.06 476.92 127.04 476.5 128.266 476.5C129.653 476.5 130.7 477.007 131.406 478.02C131.966 478.82 132.226 479.86 132.186 481.14H125.726C125.74 481.98 126 482.66 126.506 483.18C127.013 483.7 127.633 483.96 128.366 483.96C129.02 483.96 129.586 483.76 130.066 483.36C130.44 483.04 130.726 482.66 130.926 482.22ZM125.826 479.94H130.706C130.586 479.287 130.3 478.767 129.846 478.38C129.406 477.98 128.88 477.78 128.266 477.78C127.666 477.78 127.133 477.987 126.666 478.4C126.213 478.8 125.933 479.313 125.826 479.94ZM140.675 476.7V485H139.235V478.02H136.275V481.76C136.275 482.84 136.062 483.64 135.635 484.16C135.155 484.747 134.488 485.04 133.635 485.04C133.528 485.04 133.382 485.027 133.195 485V483.68C133.328 483.707 133.435 483.72 133.515 483.72C133.982 483.72 134.328 483.54 134.555 483.18C134.742 482.887 134.835 482.413 134.835 481.76V476.7H140.675ZM143.399 485V476.7H144.839V479.88H146.319C147.466 479.88 148.306 480.153 148.839 480.7C149.266 481.127 149.479 481.707 149.479 482.44C149.479 483.213 149.232 483.833 148.739 484.3C148.246 484.767 147.432 485 146.299 485H143.399ZM144.839 483.72H146.179C146.779 483.72 147.206 483.647 147.459 483.5C147.819 483.26 147.999 482.907 147.999 482.44C147.999 481.96 147.826 481.613 147.479 481.4C147.239 481.24 146.812 481.16 146.199 481.16H144.839V483.72Z" fill="#A89365"/>
<path d="M80.3131 402.7H81.7531V406.1L85.1131 402.7H86.8731L83.2731 406.4L87.3131 411H85.4331L82.1931 407.36L81.7531 407.78V411H80.3131V402.7ZM95.1106 403.88V402.7H96.5506V411H95.1106V409.84C94.3906 410.773 93.444 411.24 92.2706 411.24C91.1506 411.24 90.1973 410.853 89.4106 410.08C88.624 409.307 88.2306 408.227 88.2306 406.84C88.2306 405.48 88.6173 404.42 89.3906 403.66C90.1773 402.887 91.1373 402.5 92.2706 402.5C93.4706 402.5 94.4173 402.96 95.1106 403.88ZM92.4306 403.78C91.6706 403.78 91.024 404.053 90.4906 404.6C89.9706 405.133 89.7106 405.88 89.7106 406.84C89.7106 407.76 89.9506 408.513 90.4306 409.1C90.924 409.673 91.5906 409.96 92.4306 409.96C93.2706 409.96 93.9373 409.66 94.4306 409.06C94.9373 408.46 95.1906 407.727 95.1906 406.86C95.1906 405.873 94.9106 405.113 94.3506 404.58C93.7906 404.047 93.1506 403.78 92.4306 403.78ZM105.678 397H107.278C107.131 397.493 106.878 397.913 106.518 398.26C106.171 398.593 105.851 398.82 105.558 398.94C105.278 399.06 104.945 399.167 104.558 399.26C104.491 399.273 104.331 399.313 104.078 399.38C103.825 399.433 103.631 399.48 103.498 399.52C103.365 399.56 103.191 399.613 102.978 399.68C102.765 399.747 102.571 399.827 102.398 399.92C102.225 400.013 102.065 400.113 101.918 400.22C101.411 400.607 100.998 401.147 100.678 401.84C100.371 402.52 100.205 403.247 100.178 404.02H100.218C100.818 403.007 101.825 402.5 103.238 402.5C104.478 402.5 105.505 402.92 106.318 403.76C107.145 404.6 107.558 405.64 107.558 406.88C107.558 408.133 107.138 409.173 106.298 410C105.458 410.827 104.365 411.24 103.018 411.24C101.858 411.24 100.905 410.893 100.158 410.2C99.2246 409.347 98.758 407.92 98.758 405.92C98.758 402.44 99.5446 400.16 101.118 399.08C101.238 399 101.365 398.927 101.498 398.86C101.631 398.78 101.771 398.713 101.918 398.66C102.078 398.593 102.211 398.54 102.318 398.5C102.425 398.447 102.571 398.4 102.758 398.36C102.958 398.307 103.091 398.273 103.158 398.26C103.238 398.233 103.385 398.2 103.598 398.16C103.825 398.107 103.965 398.073 104.018 398.06C104.551 397.94 104.938 397.8 105.178 397.64C105.418 397.467 105.585 397.253 105.678 397ZM105.218 404.6C104.658 404.053 103.971 403.78 103.158 403.78C102.345 403.78 101.651 404.06 101.078 404.62C100.518 405.167 100.238 405.92 100.238 406.88C100.238 407.84 100.525 408.593 101.098 409.14C101.671 409.687 102.358 409.96 103.158 409.96C103.958 409.96 104.645 409.687 105.218 409.14C105.791 408.593 106.078 407.84 106.078 406.88C106.078 405.907 105.791 405.147 105.218 404.6ZM115.926 408.22L117.126 408.88C116.846 409.413 116.506 409.86 116.106 410.22C115.346 410.9 114.426 411.24 113.346 411.24C112.226 411.24 111.26 410.88 110.446 410.16C109.646 409.427 109.246 408.34 109.246 406.9C109.246 405.633 109.606 404.587 110.326 403.76C111.06 402.92 112.04 402.5 113.266 402.5C114.653 402.5 115.7 403.007 116.406 404.02C116.966 404.82 117.226 405.86 117.186 407.14H110.726C110.74 407.98 111 408.66 111.506 409.18C112.013 409.7 112.633 409.96 113.366 409.96C114.02 409.96 114.586 409.76 115.066 409.36C115.44 409.04 115.726 408.66 115.926 408.22ZM110.826 405.94H115.706C115.586 405.287 115.3 404.767 114.846 404.38C114.406 403.98 113.88 403.78 113.266 403.78C112.666 403.78 112.133 403.987 111.666 404.4C111.213 404.8 110.933 405.313 110.826 405.94ZM125.675 402.7V411H124.235V404.02H121.275V407.76C121.275 408.84 121.062 409.64 120.635 410.16C120.155 410.747 119.488 411.04 118.635 411.04C118.528 411.04 118.382 411.027 118.195 411V409.68C118.328 409.707 118.435 409.72 118.515 409.72C118.982 409.72 119.328 409.54 119.555 409.18C119.742 408.887 119.835 408.413 119.835 407.76V402.7H125.675ZM128.399 411V402.7H129.839V405.88H131.319C132.466 405.88 133.306 406.153 133.839 406.7C134.266 407.127 134.479 407.707 134.479 408.44C134.479 409.213 134.232 409.833 133.739 410.3C133.246 410.767 132.432 411 131.299 411H128.399ZM129.839 409.72H131.179C131.779 409.72 132.206 409.647 132.459 409.5C132.819 409.26 132.999 408.907 132.999 408.44C132.999 407.96 132.826 407.613 132.479 407.4C132.239 407.24 131.812 407.16 131.199 407.16H129.839V409.72Z" fill="#A89365"/>
<path d="M842.313 402.7H843.753V406.1L847.113 402.7H848.873L845.273 406.4L849.313 411H847.433L844.193 407.36L843.753 407.78V411H842.313V402.7ZM857.111 403.88V402.7H858.551V411H857.111V409.84C856.391 410.773 855.444 411.24 854.271 411.24C853.151 411.24 852.197 410.853 851.411 410.08C850.624 409.307 850.231 408.227 850.231 406.84C850.231 405.48 850.617 404.42 851.391 403.66C852.177 402.887 853.137 402.5 854.271 402.5C855.471 402.5 856.417 402.96 857.111 403.88ZM854.431 403.78C853.671 403.78 853.024 404.053 852.491 404.6C851.971 405.133 851.711 405.88 851.711 406.84C851.711 407.76 851.951 408.513 852.431 409.1C852.924 409.673 853.591 409.96 854.431 409.96C855.271 409.96 855.937 409.66 856.431 409.06C856.937 408.46 857.191 407.727 857.191 406.86C857.191 405.873 856.911 405.113 856.351 404.58C855.791 404.047 855.151 403.78 854.431 403.78ZM867.678 397H869.278C869.131 397.493 868.878 397.913 868.518 398.26C868.171 398.593 867.851 398.82 867.558 398.94C867.278 399.06 866.945 399.167 866.558 399.26C866.491 399.273 866.331 399.313 866.078 399.38C865.825 399.433 865.631 399.48 865.498 399.52C865.365 399.56 865.191 399.613 864.978 399.68C864.765 399.747 864.571 399.827 864.398 399.92C864.225 400.013 864.065 400.113 863.918 400.22C863.411 400.607 862.998 401.147 862.678 401.84C862.371 402.52 862.205 403.247 862.178 404.02H862.218C862.818 403.007 863.825 402.5 865.238 402.5C866.478 402.5 867.505 402.92 868.318 403.76C869.145 404.6 869.558 405.64 869.558 406.88C869.558 408.133 869.138 409.173 868.298 410C867.458 410.827 866.365 411.24 865.018 411.24C863.858 411.24 862.905 410.893 862.158 410.2C861.225 409.347 860.758 407.92 860.758 405.92C860.758 402.44 861.545 400.16 863.118 399.08C863.238 399 863.365 398.927 863.498 398.86C863.631 398.78 863.771 398.713 863.918 398.66C864.078 398.593 864.211 398.54 864.318 398.5C864.425 398.447 864.571 398.4 864.758 398.36C864.958 398.307 865.091 398.273 865.158 398.26C865.238 398.233 865.385 398.2 865.598 398.16C865.825 398.107 865.965 398.073 866.018 398.06C866.551 397.94 866.938 397.8 867.178 397.64C867.418 397.467 867.585 397.253 867.678 397ZM867.218 404.6C866.658 404.053 865.971 403.78 865.158 403.78C864.345 403.78 863.651 404.06 863.078 404.62C862.518 405.167 862.238 405.92 862.238 406.88C862.238 407.84 862.525 408.593 863.098 409.14C863.671 409.687 864.358 409.96 865.158 409.96C865.958 409.96 866.645 409.687 867.218 409.14C867.791 408.593 868.078 407.84 868.078 406.88C868.078 405.907 867.791 405.147 867.218 404.6ZM877.926 408.22L879.126 408.88C878.846 409.413 878.506 409.86 878.106 410.22C877.346 410.9 876.426 411.24 875.346 411.24C874.226 411.24 873.26 410.88 872.446 410.16C871.646 409.427 871.246 408.34 871.246 406.9C871.246 405.633 871.606 404.587 872.326 403.76C873.06 402.92 874.04 402.5 875.266 402.5C876.653 402.5 877.7 403.007 878.406 404.02C878.966 404.82 879.226 405.86 879.186 407.14H872.726C872.74 407.98 873 408.66 873.506 409.18C874.013 409.7 874.633 409.96 875.366 409.96C876.02 409.96 876.586 409.76 877.066 409.36C877.44 409.04 877.726 408.66 877.926 408.22ZM872.826 405.94H877.706C877.586 405.287 877.3 404.767 876.846 404.38C876.406 403.98 875.88 403.78 875.266 403.78C874.666 403.78 874.133 403.987 873.666 404.4C873.213 404.8 872.933 405.313 872.826 405.94ZM887.675 402.7V411H886.235V404.02H883.275V407.76C883.275 408.84 883.062 409.64 882.635 410.16C882.155 410.747 881.488 411.04 880.635 411.04C880.528 411.04 880.382 411.027 880.195 411V409.68C880.328 409.707 880.435 409.72 880.515 409.72C880.982 409.72 881.328 409.54 881.555 409.18C881.742 408.887 881.835 408.413 881.835 407.76V402.7H887.675ZM890.399 411V402.7H891.839V405.88H893.319C894.466 405.88 895.306 406.153 895.839 406.7C896.266 407.127 896.479 407.707 896.479 408.44C896.479 409.213 896.232 409.833 895.739 410.3C895.246 410.767 894.432 411 893.299 411H890.399ZM891.839 409.72H893.179C893.779 409.72 894.206 409.647 894.459 409.5C894.819 409.26 894.999 408.907 894.999 408.44C894.999 407.96 894.826 407.613 894.479 407.4C894.239 407.24 893.812 407.16 893.199 407.16H891.839V409.72Z" fill="#A89365"/>
<rect width="215" height="188" transform="translate(0 135)" fill="white"/>
<rect x="16" y="136" width="183" height="146" stroke="#575757" stroke-width="2"/>
<circle cx="88" cy="209" r="64" stroke="#575757" stroke-width="2"/>
<path fill-rule="evenodd" clip-rule="evenodd" d="M88 267C120.033 267 146 241.033 146 209C146 176.967 120.033 151 88 151C55.9675 151 30 176.967 30 209C30 241.033 55.9675 267 88 267ZM88 211C89.1046 211 90 210.105 90 209C90 207.895 89.1046 207 88 207C86.8954 207 86 207.895 86 209C86 210.105 86.8954 211 88 211Z" fill="#575757"/>
<path d="M170 148H174H178V158H174H170V148Z" fill="#575757"/>
<path d="M174 270L183.342 232.872C184.417 228.599 184.051 224.091 182.301 220.048L175.645 204.668C174.56 202.16 174 199.457 174 196.724V158M174 158H170V148H174H178V158H174Z" stroke="#575757" stroke-width="3" stroke-linecap="round" stroke-linejoin="round"/>
<circle cx="187.5" cy="168.5" r="2" fill="#575757" stroke="#575757"/>
<circle cx="30.5" cy="266.5" r="7" fill="#575757" stroke="#575757"/>
<path d="M1.95438 301.66H4.35438C5.68771 301.66 6.70771 301.94 7.41438 302.5C8.21438 303.113 8.61438 304.033 8.61438 305.26C8.61438 306.407 8.17438 307.28 7.29438 307.88C8.14771 308.093 8.78104 308.527 9.19438 309.18C9.62104 309.82 9.83438 310.507 9.83438 311.24C9.83438 311.84 9.70104 312.393 9.43438 312.9C9.18104 313.407 8.86104 313.813 8.47438 314.12C7.72771 314.707 6.66104 315 5.27438 315H1.95438V301.66ZM3.43438 303.06V307.52H4.55438C4.75438 307.52 4.94771 307.513 5.13438 307.5C5.32104 307.473 5.54104 307.42 5.79438 307.34C6.06104 307.247 6.28771 307.127 6.47438 306.98C6.67438 306.833 6.84104 306.613 6.97438 306.32C7.10771 306.027 7.17438 305.687 7.17438 305.3C7.17438 304.887 7.09438 304.533 6.93438 304.24C6.77438 303.933 6.59438 303.707 6.39438 303.56C6.19438 303.413 5.95438 303.3 5.67438 303.22C5.39438 303.14 5.18104 303.093 5.03438 303.08C4.88771 303.067 4.74104 303.06 4.59438 303.06H3.43438ZM3.43438 308.84V313.6H5.13438C6.21438 313.6 6.99438 313.413 7.47438 313.04C8.06104 312.613 8.35438 312 8.35438 311.2C8.35438 310.307 7.97438 309.653 7.21438 309.24C6.73438 308.973 5.98104 308.84 4.95438 308.84H3.43438ZM12.1998 306.7H13.6398V312.18L19.3198 306.06V315H17.8798V309.46L12.1998 315.58V306.7ZM22.0436 315V306.7H23.4836V310.1H27.4036V306.7H28.8436V315H27.4036V311.42H23.4836V315H22.0436ZM31.5553 306.7H32.9953V312.18L38.6753 306.06V315H37.2353V309.46L31.5553 315.58V306.7ZM47.6791 306.7V315H46.2391V308.02H43.2791V311.76C43.2791 312.84 43.0657 313.64 42.6391 314.16C42.1591 314.747 41.4924 315.04 40.6391 315.04C40.5324 315.04 40.3857 315.027 40.1991 315V313.68C40.3324 313.707 40.4391 313.72 40.5191 313.72C40.9857 313.72 41.3324 313.54 41.5591 313.18C41.7457 312.887 41.8391 312.413 41.8391 311.76V306.7H47.6791ZM57.423 314C56.5963 314.827 55.5496 315.24 54.283 315.24C53.0163 315.24 51.963 314.827 51.123 314C50.2963 313.173 49.883 312.133 49.883 310.88C49.883 309.613 50.2963 308.567 51.123 307.74C51.963 306.913 53.0163 306.5 54.283 306.5C55.5496 306.5 56.5963 306.913 57.423 307.74C58.263 308.567 58.683 309.613 58.683 310.88C58.683 312.133 58.263 313.173 57.423 314ZM56.343 308.6C55.783 308.053 55.0963 307.78 54.283 307.78C53.4696 307.78 52.7763 308.06 52.203 308.62C51.643 309.167 51.363 309.92 51.363 310.88C51.363 311.84 51.6496 312.593 52.223 313.14C52.7963 313.687 53.483 313.96 54.283 313.96C55.083 313.96 55.7696 313.687 56.343 313.14C56.9163 312.593 57.203 311.84 57.203 310.88C57.203 309.907 56.9163 309.147 56.343 308.6ZM60.8913 306.7H64.0313C64.7913 306.7 65.3713 306.86 65.7713 307.18C66.2513 307.567 66.4913 308.087 66.4913 308.74C66.4913 309.46 66.1913 310.013 65.5913 310.4C66.0046 310.507 66.3513 310.693 66.6313 310.96C67.0713 311.387 67.2913 311.92 67.2913 312.56C67.2913 313.36 67.0046 313.987 66.4313 314.44C65.9379 314.813 65.2846 315 64.4713 315H60.8913V306.7ZM62.3313 310.08H63.8513C64.2379 310.08 64.5446 310 64.7713 309.84C65.0379 309.64 65.1713 309.353 65.1713 308.98C65.1713 308.647 65.0379 308.38 64.7713 308.18C64.5713 308.047 64.1846 307.98 63.6113 307.98H62.3313V310.08ZM62.3313 313.72H64.1113C64.7246 313.72 65.1579 313.627 65.4112 313.44C65.7313 313.2 65.8913 312.893 65.8913 312.52C65.8913 312.12 65.7513 311.807 65.4713 311.58C65.2179 311.38 64.7846 311.28 64.1713 311.28H62.3313V313.72ZM69.485 315V306.7H70.925V309.88H72.405C73.5517 309.88 74.3917 310.153 74.925 310.7C75.3517 311.127 75.565 311.707 75.565 312.44C75.565 313.213 75.3183 313.833 74.825 314.3C74.3317 314.767 73.5183 315 72.385 315H69.485ZM70.925 313.72H72.265C72.865 313.72 73.2917 313.647 73.545 313.5C73.905 313.26 74.085 312.907 74.085 312.44C74.085 311.96 73.9117 311.613 73.565 311.4C73.325 311.24 72.8983 311.16 72.285 311.16H70.925V313.72ZM76.565 315V306.7H78.005V315H76.565ZM80.7155 306.7H82.1555V312.18L87.8355 306.06V315H86.3955V309.46L80.7155 315.58V306.7ZM81.4355 303.12L82.6355 302.66C82.8755 303.46 83.4421 303.86 84.3355 303.86C85.2288 303.86 85.7955 303.46 86.0355 302.66L87.2355 303.12C87.0221 303.72 86.6555 304.193 86.1355 304.54C85.6288 304.887 85.0288 305.06 84.3355 305.06C83.6421 305.06 83.0355 304.887 82.5155 304.54C82.0088 304.193 81.6488 303.72 81.4355 303.12ZM95.2272 306.7H101.907V315H100.467V308.02H96.6672V315H95.2272V306.7ZM106.062 313.84V319.6H104.622V306.7H106.062V307.86C106.795 306.953 107.742 306.5 108.902 306.5C110.142 306.5 111.122 306.94 111.842 307.82C112.575 308.687 112.942 309.713 112.942 310.9C112.942 312.1 112.582 313.127 111.862 313.98C111.142 314.82 110.175 315.24 108.962 315.24C107.748 315.24 106.782 314.773 106.062 313.84ZM108.762 313.96C109.575 313.96 110.228 313.667 110.722 313.08C111.215 312.48 111.462 311.753 111.462 310.9C111.462 309.94 111.188 309.18 110.642 308.62C110.095 308.06 109.462 307.78 108.742 307.78C108.022 307.78 107.382 308.06 106.822 308.62C106.262 309.18 105.982 309.933 105.982 310.88C105.982 311.747 106.235 312.48 106.742 313.08C107.262 313.667 107.935 313.96 108.762 313.96ZM122.169 314C121.342 314.827 120.296 315.24 119.029 315.24C117.762 315.24 116.709 314.827 115.869 314C115.042 313.173 114.629 312.133 114.629 310.88C114.629 309.613 115.042 308.567 115.869 307.74C116.709 306.913 117.762 306.5 119.029 306.5C120.296 306.5 121.342 306.913 122.169 307.74C123.009 308.567 123.429 309.613 123.429 310.88C123.429 312.133 123.009 313.173 122.169 314ZM121.089 308.6C120.529 308.053 119.842 307.78 119.029 307.78C118.216 307.78 117.522 308.06 116.949 308.62C116.389 309.167 116.109 309.92 116.109 310.88C116.109 311.84 116.396 312.593 116.969 313.14C117.542 313.687 118.229 313.96 119.029 313.96C119.829 313.96 120.516 313.687 121.089 313.14C121.662 312.593 121.949 311.84 121.949 310.88C121.949 309.907 121.662 309.147 121.089 308.6ZM125.637 306.7H127.077V312.18L132.757 306.06V315H131.317V309.46L125.637 315.58V306.7ZM135.481 315V306.7H140.401V308.02H136.921V315H135.481ZM143.288 313.84V319.6H141.848V306.7H143.288V307.86C144.022 306.953 144.968 306.5 146.128 306.5C147.368 306.5 148.348 306.94 149.068 307.82C149.802 308.687 150.168 309.713 150.168 310.9C150.168 312.1 149.808 313.127 149.088 313.98C148.368 314.82 147.402 315.24 146.188 315.24C144.975 315.24 144.008 314.773 143.288 313.84ZM145.988 313.96C146.802 313.96 147.455 313.667 147.948 313.08C148.442 312.48 148.688 311.753 148.688 310.9C148.688 309.94 148.415 309.18 147.868 308.62C147.322 308.06 146.688 307.78 145.968 307.78C145.248 307.78 144.608 308.06 144.048 308.62C143.488 309.18 143.208 309.933 143.208 310.88C143.208 311.747 143.462 312.48 143.968 313.08C144.488 313.667 145.162 313.96 145.988 313.96ZM152.376 315V306.7H153.816V309.88H155.296C156.442 309.88 157.282 310.153 157.816 310.7C158.242 311.127 158.456 311.707 158.456 312.44C158.456 313.213 158.209 313.833 157.716 314.3C157.222 314.767 156.409 315 155.276 315H152.376ZM153.816 313.72H155.156C155.756 313.72 156.182 313.647 156.436 313.5C156.796 313.26 156.976 312.907 156.976 312.44C156.976 311.96 156.802 311.613 156.456 311.4C156.216 311.24 155.789 311.16 155.176 311.16H153.816V313.72ZM159.456 315V306.7H160.896V315H159.456ZM163.606 306.7H166.746C167.506 306.7 168.086 306.86 168.486 307.18C168.966 307.567 169.206 308.087 169.206 308.74C169.206 309.46 168.906 310.013 168.306 310.4C168.719 310.507 169.066 310.693 169.346 310.96C169.786 311.387 170.006 311.92 170.006 312.56C170.006 313.36 169.719 313.987 169.146 314.44C168.653 314.813 167.999 315 167.186 315H163.606V306.7ZM165.046 310.08H166.566C166.953 310.08 167.259 310 167.486 309.84C167.753 309.64 167.886 309.353 167.886 308.98C167.886 308.647 167.753 308.38 167.486 308.18C167.286 308.047 166.899 307.98 166.326 307.98H165.046V310.08ZM165.046 313.72H166.826C167.439 313.72 167.873 313.627 168.126 313.44C168.446 313.2 168.606 312.893 168.606 312.52C168.606 312.12 168.466 311.807 168.186 311.58C167.933 311.38 167.499 311.28 166.886 311.28H165.046V313.72ZM178.56 307.88V306.7H180V315H178.56V313.84C177.84 314.773 176.893 315.24 175.72 315.24C174.6 315.24 173.647 314.853 172.86 314.08C172.073 313.307 171.68 312.227 171.68 310.84C171.68 309.48 172.067 308.42 172.84 307.66C173.627 306.887 174.587 306.5 175.72 306.5C176.92 306.5 177.867 306.96 178.56 307.88ZM175.88 307.78C175.12 307.78 174.473 308.053 173.94 308.6C173.42 309.133 173.16 309.88 173.16 310.84C173.16 311.76 173.4 312.513 173.88 313.1C174.373 313.673 175.04 313.96 175.88 313.96C176.72 313.96 177.387 313.66 177.88 313.06C178.387 312.46 178.64 311.727 178.64 310.86C178.64 309.873 178.36 309.113 177.8 308.58C177.24 308.047 176.6 307.78 175.88 307.78ZM188.167 308.02H185.567V315H184.127V308.02H181.527V306.7H188.167V308.02ZM195.645 312.22L196.845 312.88C196.565 313.413 196.225 313.86 195.825 314.22C195.065 314.9 194.145 315.24 193.065 315.24C191.945 315.24 190.978 314.88 190.165 314.16C189.365 313.427 188.965 312.34 188.965 310.9C188.965 309.633 189.325 308.587 190.045 307.76C190.778 306.92 191.758 306.5 192.985 306.5C194.372 306.5 195.418 307.007 196.125 308.02C196.685 308.82 196.945 309.86 196.905 311.14H190.445C190.458 311.98 190.718 312.66 191.225 313.18C191.732 313.7 192.352 313.96 193.085 313.96C193.738 313.96 194.305 313.76 194.785 313.36C195.158 313.04 195.445 312.66 195.645 312.22ZM190.545 309.94H195.425C195.305 309.287 195.018 308.767 194.565 308.38C194.125 307.98 193.598 307.78 192.985 307.78C192.385 307.78 191.852 307.987 191.385 308.4C190.932 308.8 190.652 309.313 190.545 309.94ZM205.394 306.7V315H203.954V308.02H200.994V311.76C200.994 312.84 200.781 313.64 200.354 314.16C199.874 314.747 199.207 315.04 198.354 315.04C198.247 315.04 198.101 315.027 197.914 315V313.68C198.047 313.707 198.154 313.72 198.234 313.72C198.701 313.72 199.047 313.54 199.274 313.18C199.461 312.887 199.554 312.413 199.554 311.76V306.7H205.394ZM208.118 315V306.7H209.558V309.88H211.038C212.184 309.88 213.024 310.153 213.558 310.7C213.984 311.127 214.198 311.707 214.198 312.44C214.198 313.213 213.951 313.833 213.458 314.3C212.964 314.767 212.151 315 211.018 315H208.118ZM209.558 313.72H210.898C211.498 313.72 211.924 313.647 212.178 313.5C212.538 313.26 212.718 312.907 212.718 312.44C212.718 311.96 212.544 311.613 212.198 311.4C211.958 311.24 211.531 311.16 210.918 311.16H209.558V313.72Z" fill="#A89365"/>
<rect width="80" height="225" transform="translate(82 631)" fill="white"/>
<path fill-rule="evenodd" clip-rule="evenodd" d="M144 814V633H100V814H144ZM98 816H100H144H146V814V633V631H144H100H98V633V814V816ZM121.5 681C125.642 681 129 684.358 129 688.5C129 692.642 125.642 696 121.5 696C117.358 696 114 692.642 114 688.5C114 684.358 117.358 681 121.5 681ZM122 710C128.075 710 133 714.925 133 721C133 727.075 128.075 732 122 732C115.925 732 111 727.075 111 721C111 714.925 115.925 710 122 710ZM122 708C129.18 708 135 713.82 135 721C135 728.18 129.18 734 122 734C114.82 734 109 728.18 109 721C109 713.82 114.82 708 122 708ZM133 753C133 746.925 128.075 742 122 742C115.925 742 111 746.925 111 753C111 759.075 115.925 764 122 764C128.075 764 133 759.075 133 753ZM135 753C135 745.82 129.18 740 122 740C114.82 740 109 745.82 109 753C109 760.18 114.82 766 122 766C129.18 766 135 760.18 135 753Z" fill="#575757"/>
<path d="M85.3534 834.66H93.4734V848H91.9934V836.06H86.8334V843.22C86.8334 843.847 86.8268 844.32 86.8134 844.64C86.8001 844.947 86.6934 845.387 86.4934 845.96C86.3068 846.52 86.0201 846.973 85.6334 847.32C85.0334 847.853 84.2734 848.12 83.3534 848.12C83.1401 848.12 82.8734 848.08 82.5534 848V846.6C82.8201 846.68 83.0668 846.72 83.2934 846.72C83.8134 846.72 84.2468 846.547 84.5934 846.2C84.8334 845.96 85.0134 845.62 85.1334 845.18C85.2534 844.727 85.3201 844.347 85.3334 844.04C85.3468 843.733 85.3534 843.26 85.3534 842.62V834.66ZM102.723 845.22L103.923 845.88C103.643 846.413 103.303 846.86 102.903 847.22C102.143 847.9 101.223 848.24 100.143 848.24C99.0231 848.24 98.0565 847.88 97.2431 847.16C96.4431 846.427 96.0431 845.34 96.0431 843.9C96.0431 842.633 96.4031 841.587 97.1231 840.76C97.8565 839.92 98.8365 839.5 100.063 839.5C101.45 839.5 102.496 840.007 103.203 841.02C103.763 841.82 104.023 842.86 103.983 844.14H97.5231C97.5365 844.98 97.7965 845.66 98.3031 846.18C98.8098 846.7 99.4298 846.96 100.163 846.96C100.816 846.96 101.383 846.76 101.863 846.36C102.236 846.04 102.523 845.66 102.723 845.22ZM97.6231 842.94H102.503C102.383 842.287 102.096 841.767 101.643 841.38C101.203 840.98 100.676 840.78 100.063 840.78C99.4631 840.78 98.9298 840.987 98.4631 841.4C98.0098 841.8 97.7298 842.313 97.6231 842.94ZM106.192 839.7H109.332C110.092 839.7 110.672 839.86 111.072 840.18C111.552 840.567 111.792 841.087 111.792 841.74C111.792 842.46 111.492 843.013 110.892 843.4C111.305 843.507 111.652 843.693 111.932 843.96C112.372 844.387 112.592 844.92 112.592 845.56C112.592 846.36 112.305 846.987 111.732 847.44C111.239 847.813 110.585 848 109.772 848H106.192V839.7ZM107.632 843.08H109.152C109.539 843.08 109.845 843 110.072 842.84C110.339 842.64 110.472 842.353 110.472 841.98C110.472 841.647 110.339 841.38 110.072 841.18C109.872 841.047 109.485 840.98 108.912 840.98H107.632V843.08ZM107.632 846.72H109.412C110.025 846.72 110.459 846.627 110.712 846.44C111.032 846.2 111.192 845.893 111.192 845.52C111.192 845.12 111.052 844.807 110.772 844.58C110.519 844.38 110.085 844.28 109.472 844.28H107.632V846.72ZM121.146 840.88V839.7H122.586V848H121.146V846.84C120.426 847.773 119.479 848.24 118.306 848.24C117.186 848.24 116.232 847.853 115.446 847.08C114.659 846.307 114.266 845.227 114.266 843.84C114.266 842.48 114.652 841.42 115.426 840.66C116.212 839.887 117.172 839.5 118.306 839.5C119.506 839.5 120.452 839.96 121.146 840.88ZM118.466 840.78C117.706 840.78 117.059 841.053 116.526 841.6C116.006 842.133 115.746 842.88 115.746 843.84C115.746 844.76 115.986 845.513 116.466 846.1C116.959 846.673 117.626 846.96 118.466 846.96C119.306 846.96 119.972 846.66 120.466 846.06C120.972 845.46 121.226 844.727 121.226 843.86C121.226 842.873 120.946 842.113 120.386 841.58C119.826 841.047 119.186 840.78 118.466 840.78ZM124.353 848L126.933 844.58C126.853 844.58 126.74 844.567 126.593 844.54C126.46 844.513 126.26 844.447 125.993 844.34C125.726 844.233 125.506 844.093 125.333 843.92C124.893 843.507 124.673 842.953 124.673 842.26C124.673 841.473 124.92 840.853 125.413 840.4C125.906 839.933 126.72 839.7 127.853 839.7H130.753V848H129.313V844.66H128.433L126.073 848H124.353ZM129.313 843.46V840.98H127.973C127.346 840.98 126.913 841.053 126.673 841.2C126.326 841.427 126.153 841.767 126.153 842.22C126.153 842.673 126.326 843.007 126.673 843.22C126.926 843.38 127.353 843.46 127.953 843.46H129.313ZM147.425 848L145.865 844.24H140.185L138.585 848H136.945L143.085 834.02L149.065 848H147.425ZM140.765 842.84H145.285L143.045 837.5L140.765 842.84ZM160.717 835.76V837.6C160.184 837.067 159.604 836.653 158.977 836.36C158.217 836.013 157.45 835.84 156.677 835.84C155.144 835.84 153.864 836.38 152.837 837.46C151.824 838.527 151.317 839.84 151.317 841.4C151.317 843.08 151.87 844.407 152.977 845.38C154.097 846.353 155.337 846.84 156.697 846.84C157.55 846.84 158.377 846.633 159.177 846.22C159.737 845.94 160.25 845.567 160.717 845.1V846.94C159.504 847.807 158.164 848.24 156.697 848.24C154.724 848.24 153.077 847.58 151.757 846.26C150.45 844.94 149.797 843.313 149.797 841.38C149.797 839.393 150.457 837.74 151.777 836.42C153.11 835.1 154.777 834.44 156.777 834.44C158.244 834.44 159.557 834.88 160.717 835.76Z" fill="#A89365"/>
<rect width="92" height="225" transform="translate(582 631)" fill="white"/>
<path fill-rule="evenodd" clip-rule="evenodd" d="M650 814V633H606V814H650ZM604 816H606H650H652V814V633V631H650H606H604V633V814V816ZM627.5 681C631.642 681 635 684.358 635 688.5C635 692.642 631.642 696 627.5 696C623.358 696 620 692.642 620 688.5C620 684.358 623.358 681 627.5 681ZM628 710C634.075 710 639 714.925 639 721C639 727.075 634.075 732 628 732C621.925 732 617 727.075 617 721C617 714.925 621.925 710 628 710ZM628 708C635.18 708 641 713.82 641 721C641 728.18 635.18 734 628 734C620.82 734 615 728.18 615 721C615 713.82 620.82 708 628 708ZM639 753C639 746.925 634.075 742 628 742C621.925 742 617 746.925 617 753C617 759.075 621.925 764 628 764C634.075 764 639 759.075 639 753ZM641 753C641 745.82 635.18 740 628 740C620.82 740 615 745.82 615 753C615 760.18 620.82 766 628 766C635.18 766 641 760.18 641 753Z" fill="#575757"/>
<path d="M584.124 834.66H593.924V848H592.444V836.06H585.604V848H584.124V834.66ZM598.446 846.84V852.6H597.006V839.7H598.446V840.86C599.18 839.953 600.126 839.5 601.286 839.5C602.526 839.5 603.506 839.94 604.226 840.82C604.96 841.687 605.326 842.713 605.326 843.9C605.326 845.1 604.966 846.127 604.246 846.98C603.526 847.82 602.56 848.24 601.346 848.24C600.133 848.24 599.166 847.773 598.446 846.84ZM601.146 846.96C601.96 846.96 602.613 846.667 603.106 846.08C603.6 845.48 603.846 844.753 603.846 843.9C603.846 842.94 603.573 842.18 603.026 841.62C602.48 841.06 601.846 840.78 601.126 840.78C600.406 840.78 599.766 841.06 599.206 841.62C598.646 842.18 598.366 842.933 598.366 843.88C598.366 844.747 598.62 845.48 599.126 846.08C599.646 846.667 600.32 846.96 601.146 846.96ZM613.894 840.88V839.7H615.334V848H613.894V846.84C613.174 847.773 612.227 848.24 611.054 848.24C609.934 848.24 608.98 847.853 608.194 847.08C607.407 846.307 607.014 845.227 607.014 843.84C607.014 842.48 607.4 841.42 608.174 840.66C608.96 839.887 609.92 839.5 611.054 839.5C612.254 839.5 613.2 839.96 613.894 840.88ZM611.214 840.78C610.454 840.78 609.807 841.053 609.274 841.6C608.754 842.133 608.494 842.88 608.494 843.84C608.494 844.76 608.734 845.513 609.214 846.1C609.707 846.673 610.374 846.96 611.214 846.96C612.054 846.96 612.72 846.66 613.214 846.06C613.72 845.46 613.974 844.727 613.974 843.86C613.974 842.873 613.694 842.113 613.134 841.58C612.574 841.047 611.934 840.78 611.214 840.78ZM618.061 839.7H621.201C621.961 839.7 622.541 839.86 622.941 840.18C623.421 840.567 623.661 841.087 623.661 841.74C623.661 842.46 623.361 843.013 622.761 843.4C623.175 843.507 623.521 843.693 623.801 843.96C624.241 844.387 624.461 844.92 624.461 845.56C624.461 846.36 624.175 846.987 623.601 847.44C623.108 847.813 622.455 848 621.641 848H618.061V839.7ZM619.501 843.08H621.021C621.408 843.08 621.715 843 621.941 842.84C622.208 842.64 622.341 842.353 622.341 841.98C622.341 841.647 622.208 841.38 621.941 841.18C621.741 841.047 621.355 840.98 620.781 840.98H619.501V843.08ZM619.501 846.72H621.281C621.895 846.72 622.328 846.627 622.581 846.44C622.901 846.2 623.061 845.893 623.061 845.52C623.061 845.12 622.921 844.807 622.641 844.58C622.388 844.38 621.955 844.28 621.341 844.28H619.501V846.72ZM633.015 840.88V839.7H634.455V848H633.015V846.84C632.295 847.773 631.348 848.24 630.175 848.24C629.055 848.24 628.102 847.853 627.315 847.08C626.528 846.307 626.135 845.227 626.135 843.84C626.135 842.48 626.522 841.42 627.295 840.66C628.082 839.887 629.042 839.5 630.175 839.5C631.375 839.5 632.322 839.96 633.015 840.88ZM630.335 840.78C629.575 840.78 628.928 841.053 628.395 841.6C627.875 842.133 627.615 842.88 627.615 843.84C627.615 844.76 627.855 845.513 628.335 846.1C628.828 846.673 629.495 846.96 630.335 846.96C631.175 846.96 631.842 846.66 632.335 846.06C632.842 845.46 633.095 844.727 633.095 843.86C633.095 842.873 632.815 842.113 632.255 841.58C631.695 841.047 631.055 840.78 630.335 840.78ZM636.222 848L638.802 844.58C638.722 844.58 638.609 844.567 638.462 844.54C638.329 844.513 638.129 844.447 637.862 844.34C637.596 844.233 637.376 844.093 637.202 843.92C636.762 843.507 636.542 842.953 636.542 842.26C636.542 841.473 636.789 840.853 637.282 840.4C637.776 839.933 638.589 839.7 639.722 839.7H642.622V848H641.182V844.66H640.302L637.942 848H636.222ZM641.182 843.46V840.98H639.842C639.216 840.98 638.782 841.053 638.542 841.2C638.196 841.427 638.022 841.767 638.022 842.22C638.022 842.673 638.196 843.007 638.542 843.22C638.796 843.38 639.222 843.46 639.822 843.46H641.182ZM659.294 848L657.734 844.24H652.054L650.454 848H648.814L654.954 834.02L660.934 848H659.294ZM652.634 842.84H657.154L654.914 837.5L652.634 842.84ZM672.586 835.76V837.6C672.053 837.067 671.473 836.653 670.846 836.36C670.086 836.013 669.319 835.84 668.546 835.84C667.013 835.84 665.733 836.38 664.706 837.46C663.693 838.527 663.186 839.84 663.186 841.4C663.186 843.08 663.739 844.407 664.846 845.38C665.966 846.353 667.206 846.84 668.566 846.84C669.419 846.84 670.246 846.633 671.046 846.22C671.606 845.94 672.119 845.567 672.586 845.1V846.94C671.373 847.807 670.033 848.24 668.566 848.24C666.593 848.24 664.946 847.58 663.626 846.26C662.319 844.94 661.666 843.313 661.666 841.38C661.666 839.393 662.326 837.74 663.646 836.42C664.979 835.1 666.646 834.44 668.646 834.44C670.113 834.44 671.426 834.88 672.586 835.76Z" fill="#A89365"/>
<rect width="163" height="126" transform="translate(726 631)" fill="white"/>
<mask id="path-30-inside-3" fill="white">
<path fill-rule="evenodd" clip-rule="evenodd" d="M849 633H765V709H849V633ZM765 631H763V633V709V711H765H769V717H786.996V711H827V717H844.996V711H849H851V709V633V631H849H765ZM774 645C775.657 645 777 643.657 777 642C777 640.343 775.657 639 774 639C772.343 639 771 640.343 771 642C771 643.657 772.343 645 774 645ZM840 645C841.657 645 843 643.657 843 642C843 640.343 841.657 639 840 639C838.343 639 837 640.343 837 642C837 643.657 838.343 645 840 645ZM833 672C833 686.359 821.359 698 807 698C792.641 698 781 686.359 781 672C781 657.641 792.641 646 807 646C821.359 646 833 657.641 833 672ZM835 672C835 687.464 822.464 700 807 700C791.536 700 779 687.464 779 672C779 656.536 791.536 644 807 644C822.464 644 835 656.536 835 672ZM777 700C777 701.657 775.657 703 774 703C772.343 703 771 701.657 771 700C771 698.343 772.343 697 774 697C775.657 697 777 698.343 777 700ZM840 703C841.657 703 843 701.657 843 700C843 698.343 841.657 697 840 697C838.343 697 837 698.343 837 700C837 701.657 838.343 703 840 703Z"/>
</mask>
<path fill-rule="evenodd" clip-rule="evenodd" d="M849 633H765V709H849V633ZM765 631H763V633V709V711H765H769V717H786.996V711H827V717H844.996V711H849H851V709V633V631H849H765ZM774 645C775.657 645 777 643.657 777 642C777 640.343 775.657 639 774 639C772.343 639 771 640.343 771 642C771 643.657 772.343 645 774 645ZM840 645C841.657 645 843 643.657 843 642C843 640.343 841.657 639 840 639C838.343 639 837 640.343 837 642C837 643.657 838.343 645 840 645ZM833 672C833 686.359 821.359 698 807 698C792.641 698 781 686.359 781 672C781 657.641 792.641 646 807 646C821.359 646 833 657.641 833 672ZM835 672C835 687.464 822.464 700 807 700C791.536 700 779 687.464 779 672C779 656.536 791.536 644 807 644C822.464 644 835 656.536 835 672ZM777 700C777 701.657 775.657 703 774 703C772.343 703 771 701.657 771 700C771 698.343 772.343 697 774 697C775.657 697 777 698.343 777 700ZM840 703C841.657 703 843 701.657 843 700C843 698.343 841.657 697 840 697C838.343 697 837 698.343 837 700C837 701.657 838.343 703 840 703Z" fill="#575757"/>
<path d="M765 633V632H764V633H765ZM849 633H850V632H849V633ZM765 709H764V710H765V709ZM849 709V710H850V709H849ZM763 631V630H762V631H763ZM763 711H762V712H763V711ZM769 711H770V710H769V711ZM769 717H768V718H769V717ZM786.996 717V718H787.996V717H786.996ZM786.996 711V710H785.996V711H786.996ZM827 711H828V710H827V711ZM827 717H826V718H827V717ZM844.996 717V718H845.996V717H844.996ZM844.996 711V710H843.996V711H844.996ZM851 711V712H852V711H851ZM851 631H852V630H851V631ZM765 634H849V632H765V634ZM766 709V633H764V709H766ZM849 708H765V710H849V708ZM848 633V709H850V633H848ZM763 632H765V630H763V632ZM764 633V631H762V633H764ZM764 709V633H762V709H764ZM764 711V709H762V711H764ZM765 710H763V712H765V710ZM769 710H765V712H769V710ZM770 717V711H768V717H770ZM786.996 716H769V718H786.996V716ZM785.996 711V717H787.996V711H785.996ZM827 710H786.996V712H827V710ZM828 717V711H826V717H828ZM844.996 716H827V718H844.996V716ZM843.996 711V717H845.996V711H843.996ZM849 710H844.996V712H849V710ZM851 710H849V712H851V710ZM850 709V711H852V709H850ZM850 633V709H852V633H850ZM850 631V633H852V631H850ZM849 632H851V630H849V632ZM765 632H849V630H765V632ZM776 642C776 643.105 775.105 644 774 644V646C776.209 646 778 644.209 778 642H776ZM774 640C775.105 640 776 640.895 776 642H778C778 639.791 776.209 638 774 638V640ZM772 642C772 640.895 772.895 640 774 640V638C771.791 638 770 639.791 770 642H772ZM774 644C772.895 644 772 643.105 772 642H770C770 644.209 771.791 646 774 646V644ZM842 642C842 643.105 841.105 644 840 644V646C842.209 646 844 644.209 844 642H842ZM840 640C841.105 640 842 640.895 842 642H844C844 639.791 842.209 638 840 638V640ZM838 642C838 640.895 838.895 640 840 640V638C837.791 638 836 639.791 836 642H838ZM840 644C838.895 644 838 643.105 838 642H836C836 644.209 837.791 646 840 646V644ZM807 699C821.912 699 834 686.912 834 672H832C832 685.807 820.807 697 807 697V699ZM780 672C780 686.912 792.088 699 807 699V697C793.193 697 782 685.807 782 672H780ZM807 645C792.088 645 780 657.088 780 672H782C782 658.193 793.193 647 807 647V645ZM834 672C834 657.088 821.912 645 807 645V647C820.807 647 832 658.193 832 672H834ZM807 701C823.016 701 836 688.016 836 672H834C834 686.912 821.912 699 807 699V701ZM778 672C778 688.016 790.984 701 807 701V699C792.088 699 780 686.912 780 672H778ZM807 643C790.984 643 778 655.984 778 672H780C780 657.088 792.088 645 807 645V643ZM836 672C836 655.984 823.016 643 807 643V645C821.912 645 834 657.088 834 672H836ZM774 704C776.209 704 778 702.209 778 700H776C776 701.105 775.105 702 774 702V704ZM770 700C770 702.209 771.791 704 774 704V702C772.895 702 772 701.105 772 700H770ZM774 696C771.791 696 770 697.791 770 700H772C772 698.895 772.895 698 774 698V696ZM778 700C778 697.791 776.209 696 774 696V698C775.105 698 776 698.895 776 700H778ZM842 700C842 701.105 841.105 702 840 702V704C842.209 704 844 702.209 844 700H842ZM840 698C841.105 698 842 698.895 842 700H844C844 697.791 842.209 696 840 696V698ZM838 700C838 698.895 838.895 698 840 698V696C837.791 696 836 697.791 836 700H838ZM840 702C838.895 702 838 701.105 838 700H836C836 702.209 837.791 704 840 704V702Z" fill="#575757" mask="url(#path-30-inside-3)"/>
<path d="M737.007 749L735.447 745.24H729.767L728.167 749H726.527L732.667 735.02L738.647 749H737.007ZM730.347 743.84H734.867L732.627 738.5L730.347 743.84ZM740.169 740.7H741.609V744.1L744.969 740.7H746.729L743.129 744.4L747.169 749H745.289L742.049 745.36L741.609 745.78V749H740.169V740.7ZM754.046 742.02H751.446V749H750.006V742.02H747.406V740.7H754.046V742.02ZM755.559 740.7H756.999V746.18L762.679 740.06V749H761.239V743.46L755.559 749.58V740.7ZM765.403 740.7H768.543C769.303 740.7 769.883 740.86 770.283 741.18C770.763 741.567 771.003 742.087 771.003 742.74C771.003 743.46 770.703 744.013 770.103 744.4C770.516 744.507 770.863 744.693 771.143 744.96C771.583 745.387 771.803 745.92 771.803 746.56C771.803 747.36 771.516 747.987 770.943 748.44C770.45 748.813 769.796 749 768.983 749H765.403V740.7ZM766.843 744.08H768.363C768.75 744.08 769.056 744 769.283 743.84C769.55 743.64 769.683 743.353 769.683 742.98C769.683 742.647 769.55 742.38 769.283 742.18C769.083 742.047 768.696 741.98 768.123 741.98H766.843V744.08ZM766.843 747.72H768.623C769.236 747.72 769.67 747.627 769.923 747.44C770.243 747.2 770.403 746.893 770.403 746.52C770.403 746.12 770.263 745.807 769.983 745.58C769.73 745.38 769.296 745.28 768.683 745.28H766.843V747.72ZM773.997 749V740.7H775.437V744.1H779.357V740.7H780.797V749H779.357V745.42H775.437V749H773.997ZM783.508 749V740.7H784.948V743.88H786.428C787.575 743.88 788.415 744.153 788.948 744.7C789.375 745.127 789.588 745.707 789.588 746.44C789.588 747.213 789.342 747.833 788.848 748.3C788.355 748.767 787.542 749 786.408 749H783.508ZM784.948 747.72H786.288C786.888 747.72 787.315 747.647 787.568 747.5C787.928 747.26 788.108 746.907 788.108 746.44C788.108 745.96 787.935 745.613 787.588 745.4C787.348 745.24 786.922 745.16 786.308 745.16H784.948V747.72ZM790.588 749V740.7H792.028V749H790.588ZM794.739 740.7H796.179V746.18L801.859 740.06V749H800.419V743.46L794.739 749.58V740.7ZM795.459 737.12L796.659 736.66C796.899 737.46 797.466 737.86 798.359 737.86C799.252 737.86 799.819 737.46 800.059 736.66L801.259 737.12C801.046 737.72 800.679 738.193 800.159 738.54C799.652 738.887 799.052 739.06 798.359 739.06C797.666 739.06 797.059 738.887 796.539 738.54C796.032 738.193 795.672 737.72 795.459 737.12ZM815.751 741.3V743.02C815.097 742.193 814.231 741.78 813.151 741.78C812.337 741.78 811.644 742.06 811.071 742.62C810.497 743.167 810.211 743.92 810.211 744.88C810.211 745.84 810.497 746.593 811.071 747.14C811.644 747.687 812.331 747.96 813.131 747.96C814.197 747.96 815.091 747.527 815.811 746.66V748.38C815.024 748.953 814.144 749.24 813.171 749.24C811.877 749.24 810.811 748.833 809.971 748.02C809.144 747.193 808.731 746.153 808.731 744.9C808.731 743.633 809.151 742.587 809.991 741.76C810.831 740.92 811.891 740.5 813.171 740.5C814.131 740.5 814.991 740.767 815.751 741.3ZM824.38 741.88V740.7H825.82V749H824.38V747.84C823.66 748.773 822.713 749.24 821.54 749.24C820.42 749.24 819.467 748.853 818.68 748.08C817.893 747.307 817.5 746.227 817.5 744.84C817.5 743.48 817.887 742.42 818.66 741.66C819.447 740.887 820.407 740.5 821.54 740.5C822.74 740.5 823.687 740.96 824.38 741.88ZM821.7 741.78C820.94 741.78 820.293 742.053 819.76 742.6C819.24 743.133 818.98 743.88 818.98 744.84C818.98 745.76 819.22 746.513 819.7 747.1C820.193 747.673 820.86 747.96 821.7 747.96C822.54 747.96 823.207 747.66 823.7 747.06C824.207 746.46 824.46 745.727 824.46 744.86C824.46 743.873 824.18 743.113 823.62 742.58C823.06 742.047 822.42 741.78 821.7 741.78ZM834.948 735H836.548C836.401 735.493 836.148 735.913 835.788 736.26C835.441 736.593 835.121 736.82 834.828 736.94C834.548 737.06 834.214 737.167 833.828 737.26C833.761 737.273 833.601 737.313 833.348 737.38C833.094 737.433 832.901 737.48 832.768 737.52C832.634 737.56 832.461 737.613 832.248 737.68C832.034 737.747 831.841 737.827 831.668 737.92C831.494 738.013 831.334 738.113 831.188 738.22C830.681 738.607 830.268 739.147 829.948 739.84C829.641 740.52 829.474 741.247 829.448 742.02H829.488C830.088 741.007 831.094 740.5 832.508 740.5C833.748 740.5 834.774 740.92 835.588 741.76C836.414 742.6 836.828 743.64 836.828 744.88C836.828 746.133 836.408 747.173 835.568 748C834.728 748.827 833.634 749.24 832.288 749.24C831.128 749.24 830.174 748.893 829.428 748.2C828.494 747.347 828.028 745.92 828.028 743.92C828.028 740.44 828.814 738.16 830.388 737.08C830.508 737 830.634 736.927 830.768 736.86C830.901 736.78 831.041 736.713 831.188 736.66C831.348 736.593 831.481 736.54 831.588 736.5C831.694 736.447 831.841 736.4 832.028 736.36C832.228 736.307 832.361 736.273 832.428 736.26C832.508 736.233 832.654 736.2 832.868 736.16C833.094 736.107 833.234 736.073 833.288 736.06C833.821 735.94 834.208 735.8 834.448 735.64C834.688 735.467 834.854 735.253 834.948 735ZM834.488 742.6C833.928 742.053 833.241 741.78 832.428 741.78C831.614 741.78 830.921 742.06 830.348 742.62C829.788 743.167 829.508 743.92 829.508 744.88C829.508 745.84 829.794 746.593 830.368 747.14C830.941 747.687 831.628 747.96 832.428 747.96C833.228 747.96 833.914 747.687 834.488 747.14C835.061 746.593 835.348 745.84 835.348 744.88C835.348 743.907 835.061 743.147 834.488 742.6ZM839.036 740.7H842.176C842.936 740.7 843.516 740.86 843.916 741.18C844.396 741.567 844.636 742.087 844.636 742.74C844.636 743.46 844.336 744.013 843.736 744.4C844.149 744.507 844.496 744.693 844.776 744.96C845.216 745.387 845.436 745.92 845.436 746.56C845.436 747.36 845.149 747.987 844.576 748.44C844.082 748.813 843.429 749 842.616 749H839.036V740.7ZM840.476 744.08H841.996C842.382 744.08 842.689 744 842.916 743.84C843.182 743.64 843.316 743.353 843.316 742.98C843.316 742.647 843.182 742.38 842.916 742.18C842.716 742.047 842.329 741.98 841.756 741.98H840.476V744.08ZM840.476 747.72H842.256C842.869 747.72 843.302 747.627 843.556 747.44C843.876 747.2 844.036 746.893 844.036 746.52C844.036 746.12 843.896 745.807 843.616 745.58C843.362 745.38 842.929 745.28 842.316 745.28H840.476V747.72ZM847.61 753.6L850.25 748.22L846.43 740.7H848.07L851.01 746.64L853.71 740.7H855.31L849.21 753.6H847.61ZM861.249 753.6V749.14C859.795 749.14 858.629 748.78 857.749 748.06C856.789 747.287 856.309 746.213 856.309 744.84C856.309 743.48 856.782 742.413 857.729 741.64C858.582 740.92 859.755 740.56 861.249 740.56V735.66H862.689V740.56C864.182 740.56 865.355 740.92 866.209 741.64C867.155 742.413 867.629 743.48 867.629 744.84C867.629 746.213 867.149 747.287 866.189 748.06C865.309 748.78 864.142 749.14 862.689 749.14V753.6H861.249ZM861.249 747.86V741.84C860.302 741.84 859.562 742.013 859.029 742.36C858.202 742.88 857.789 743.707 857.789 744.84C857.789 745.907 858.175 746.713 858.949 747.26C859.509 747.66 860.275 747.86 861.249 747.86ZM862.689 741.84V747.86C863.662 747.86 864.429 747.66 864.989 747.26C865.762 746.713 866.149 745.907 866.149 744.84C866.149 743.707 865.735 742.88 864.909 742.36C864.375 742.013 863.635 741.84 862.689 741.84ZM875.997 746.22L877.197 746.88C876.917 747.413 876.577 747.86 876.177 748.22C875.417 748.9 874.497 749.24 873.417 749.24C872.297 749.24 871.33 748.88 870.517 748.16C869.717 747.427 869.317 746.34 869.317 744.9C869.317 743.633 869.677 742.587 870.397 741.76C871.13 740.92 872.11 740.5 873.337 740.5C874.723 740.5 875.77 741.007 876.477 742.02C877.037 742.82 877.297 743.86 877.257 745.14H870.797C870.81 745.98 871.07 746.66 871.577 747.18C872.083 747.7 872.703 747.96 873.437 747.96C874.09 747.96 874.657 747.76 875.137 747.36C875.51 747.04 875.797 746.66 875.997 746.22ZM870.897 743.94H875.777C875.657 743.287 875.37 742.767 874.917 742.38C874.477 741.98 873.95 741.78 873.337 741.78C872.737 741.78 872.203 741.987 871.737 742.4C871.283 742.8 871.003 743.313 870.897 743.94ZM880.905 747.84V753.6H879.465V740.7H880.905V741.86C881.639 740.953 882.585 740.5 883.745 740.5C884.985 740.5 885.965 740.94 886.685 741.82C887.419 742.687 887.785 743.713 887.785 744.9C887.785 746.1 887.425 747.127 886.705 747.98C885.985 748.82 885.019 749.24 883.805 749.24C882.592 749.24 881.625 748.773 880.905 747.84ZM883.605 747.96C884.419 747.96 885.072 747.667 885.565 747.08C886.059 746.48 886.305 745.753 886.305 744.9C886.305 743.94 886.032 743.18 885.485 742.62C884.939 742.06 884.305 741.78 883.585 741.78C882.865 741.78 882.225 742.06 881.665 742.62C881.105 743.18 880.825 743.933 880.825 744.88C880.825 745.747 881.079 746.48 881.585 747.08C882.105 747.667 882.779 747.96 883.605 747.96Z" fill="#A89365"/>
<path d="M643 58L645 58L645 56L643 56L643 58ZM641.586 162.414C642.367 163.195 643.633 163.195 644.414 162.414L657.142 149.686C657.923 148.905 657.923 147.639 657.142 146.858C656.361 146.077 655.095 146.077 654.314 146.858L643 158.172L631.686 146.858C630.905 146.077 629.639 146.077 628.858 146.858C628.077 147.639 628.077 148.905 628.858 149.686L641.586 162.414ZM554 56C552.895 56 552 56.8954 552 58C552 59.1046 552.895 60 554 60L554 56ZM641 58L641 161L645 161L645 58L641 58ZM643 56L554 56L554 60L643 60L643 56Z" fill="#A89365"/>
<path d="M686 161L686 40L554 40" stroke="#A89365" stroke-width="2" stroke-linecap="round" stroke-linejoin="round" stroke-dasharray="10 10"/>
<path d="M808 481L810 481L810 479L808 479L808 481ZM806.586 620.414C807.367 621.195 808.633 621.195 809.414 620.414L822.142 607.686C822.923 606.905 822.923 605.639 822.142 604.858C821.361 604.077 820.095 604.077 819.314 604.858L808 616.172L796.686 604.858C795.905 604.077 794.639 604.077 793.858 604.858C793.077 605.639 793.077 606.905 793.858 607.686L806.586 620.414ZM502 479C500.895 479 500 479.895 500 481C500 482.105 500.895 483 502 483L502 479ZM806 481L806 619L810 619L810 481L806 481ZM808 479L502 479L502 483L808 483L808 479Z" fill="#A89365"/>
<path d="M628 503L630 503L630 501L628 501L628 503ZM626.586 615.414C627.367 616.195 628.633 616.195 629.414 615.414L642.142 602.686C642.923 601.905 642.923 600.639 642.142 599.858C641.361 599.077 640.095 599.077 639.314 599.858L628 611.172L616.686 599.858C615.905 599.077 614.639 599.077 613.858 599.858C613.077 600.639 613.077 601.905 613.858 602.686L626.586 615.414ZM502 501C500.895 501 500 501.895 500 503C500 504.105 500.895 505 502 505L502 501ZM626 503L626 614L630 614L630 503L626 503ZM628 501L502 501L502 505L628 505L628 501Z" fill="#A89365"/>
<path d="M122 503L120 503L120 501L122 501L122 503ZM123.414 615.414C122.633 616.195 121.367 616.195 120.586 615.414L107.858 602.686C107.077 601.905 107.077 600.639 107.858 599.858C108.639 599.077 109.905 599.077 110.686 599.858L122 611.172L133.314 599.858C134.095 599.077 135.361 599.077 136.142 599.858C136.923 600.639 136.923 601.905 136.142 602.686L123.414 615.414ZM248 501C249.105 501 250 501.895 250 503C250 504.105 249.105 505 248 505L248 501ZM124 503L124 614L120 614L120 503L124 503ZM122 501L248 501L248 505L122 505L122 501Z" fill="#A89365"/>
<path d="M107 337L107 379L643 379M869 318L869 379L643 379M643 289L643 379" stroke="#A89365" stroke-width="4" stroke-linecap="round"/>
<path d="M373.586 448.414C374.367 449.195 375.633 449.195 376.414 448.414L389.142 435.686C389.923 434.905 389.923 433.639 389.142 432.858C388.361 432.077 387.095 432.077 386.314 432.858L375 444.172L363.686 432.858C362.905 432.077 361.639 432.077 360.858 432.858C360.077 433.639 360.077 434.905 360.858 435.686L373.586 448.414ZM377 289C377 287.895 376.105 287 375 287C373.895 287 373 287.895 373 289L377 289ZM377 447L377 289L373 289L373 447L377 447Z" fill="#A89365"/>
</svg>
