<svg width="18" height="22" viewBox="0 0 18 22" fill="none" xmlns="http://www.w3.org/2000/svg">
<path fill-rule="evenodd" clip-rule="evenodd" d="M0.083252 6.33331C0.083252 5.9191 0.419038 5.58331 0.833252 5.58331H17.1666C17.5808 5.58331 17.9166 5.9191 17.9166 6.33331V20.3333C17.9166 20.7475 17.5808 21.0833 17.1666 21.0833H0.833252C0.419038 21.0833 0.083252 20.7475 0.083252 20.3333V6.33331ZM1.58325 7.08331V19.5833H16.4166V7.08331H1.58325Z" fill="white"/>
<path fill-rule="evenodd" clip-rule="evenodd" d="M8.99992 2.41663C6.8368 2.41663 5.08325 4.17018 5.08325 6.33329C5.08325 6.74751 4.74747 7.08329 4.33325 7.08329C3.91904 7.08329 3.58325 6.74751 3.58325 6.33329C3.58325 3.34175 6.00838 0.916626 8.99992 0.916626C11.9915 0.916626 14.4166 3.34175 14.4166 6.33329C14.4166 6.74751 14.0808 7.08329 13.6666 7.08329C13.2524 7.08329 12.9166 6.74751 12.9166 6.33329C12.9166 4.17018 11.163 2.41663 8.99992 2.41663Z" fill="white"/>
</svg>
