<svg width="65" height="34" viewBox="0 0 65 34" fill="none" xmlns="http://www.w3.org/2000/svg">
<path d="M32.7549 29.6759L45.8644 33.978V0L32.7549 4.30213V29.6759Z" fill="#4CC7E9"/>
<path d="M0 12.9251H2.24785V14.2005C2.51738 13.7522 2.8973 13.3817 3.35076 13.125C3.80422 12.8682 4.31583 12.7339 4.83598 12.735C6.81961 12.735 8.34954 14.2196 8.34954 16.9038V17.0372C8.34954 19.7209 6.83852 21.244 4.83598 21.244C4.31882 21.2649 3.80561 21.1451 3.35023 20.8972C2.89484 20.6494 2.51406 20.2825 2.24785 19.8352V23.8516H0V12.9251ZM6.06343 17.0558V16.9224C6.06343 15.2664 5.25323 14.4668 4.13651 14.4668C2.96622 14.4668 2.15288 15.2832 2.15288 16.9224V17.0558C2.15288 18.6927 2.92751 19.4923 4.13651 19.4923C5.38376 19.4728 6.06343 18.6355 6.06343 17.0558Z" fill="white"/>
<path d="M9.55804 18.1788V12.925H11.787V17.8554C11.787 18.9594 12.2403 19.4923 13.185 19.4923C14.1298 19.4923 14.8662 18.9027 14.8662 17.703V12.925H17.0951V21.0721H14.8851V19.7967C14.6434 20.264 14.2715 20.6499 13.815 20.9069C13.3585 21.164 12.8375 21.281 12.3159 21.2436C10.7283 21.2436 9.55804 20.3106 9.55804 18.1788Z" fill="white"/>
<path d="M18.8141 9.23206H21.0431V21.0531H18.8141V9.23206Z" fill="white"/>
<path d="M23.0456 18.6546V14.5239H22.0068V12.9251H23.0456V11.1738H25.2746V12.9251H26.9746V14.5239H25.2746V18.445C25.2746 19.0923 25.5955 19.4157 26.1622 19.4157C26.4532 19.4276 26.7433 19.3756 27.0124 19.2633V21.0164C26.5748 21.1661 26.1143 21.237 25.6522 21.2259C23.9715 21.2245 23.0456 20.3487 23.0456 18.6546Z" fill="white"/>
<path d="M51.7014 12.925H53.9493V14.4858C54.1568 13.9679 54.5195 13.5282 54.9868 13.2279C55.4542 12.9276 56.0028 12.7818 56.5563 12.8107V14.9044C54.894 14.8854 53.9493 15.4374 53.9493 16.9981V21.0716H51.7014V12.925Z" fill="white"/>
<path d="M57.4628 18.1787V12.925H59.6918V17.8553C59.6918 18.9593 60.145 19.4923 61.0894 19.4923C62.0337 19.4923 62.7705 18.9026 62.7705 17.7029V12.925H64.9995V21.0721H62.7705V19.7966C62.5289 20.2639 62.1569 20.6498 61.7004 20.9069C61.244 21.164 60.7229 21.281 60.2013 21.2435C58.6331 21.2435 57.4628 20.3105 57.4628 18.1787Z" fill="white"/>
</svg>
